<svg xmlns="http://www.w3.org/2000/svg" viewBox="-0.03 0.68 398.6 118.02"><g fill="none" fill-rule="evenodd" transform="translate(0 -8)"><path d="m195.627306 24.6725107 12.296094.0692779c1.554439.008758 3.042721.6301419 4.141893 1.729314l8.25444 8.2544402c.394122.3941224.394122 1.033121 0 1.4272433-.189264.1892642-.445962.2955918-.713622.2955918h-23.978711c-3.261002 0-5.904567-2.6435647-5.904567-5.904567 0-3.242681 2.628713-5.8713934 5.871394-5.8713934.011026 0 .022053.000031.033079.0000932z" fill="#19efb6" opacity=".826869" transform="matrix(-.70710678 .70710678 -.70710678 -.70710678 373.061491 -93.439507)"/><g fill="#2d75ff"><path d="m195.641156 10h23.978711c.557374 0 1.009214.4518402 1.009214 1.0092134 0 .26766-.106328.5243574-.295592.7136217l-8.385436 8.3854357c-1.113728 1.1137284-2.625127 1.7380883-4.200174 1.7350948l-12.106733-.0230097c-3.262811-.0062012-5.904557-2.652973-5.904557-5.915789 0-3.2610022 2.643565-5.9045669 5.904567-5.9045669z" opacity=".757347" transform="matrix(-.70710678 -.70710678 .70710678 -.70710678 340.227255 172.774785)"/><path d="m214.837802 19.2388248 4.12399 4.1235923-4.12399 4.1238773c-2.305877 2.3058768-6.044442 2.3058768-8.350319 0-1.375239-1.3752395-1.925643-3.2629663-1.651211-5.0484251.197149-1.1716964.747437-2.2952699 1.651211-3.1990445 2.305877-2.3058769 6.044442-2.3058769 8.350319 0z" transform="matrix(-1 0 0 -1 423.729584 46.72512)"/><path d="m31.4200201 106.00553c5.9071675 0 11.1608122-1.086376 15.760934-3.259127 4.6001218-2.172752 8.1732791-5.2366704 10.719472-9.1917566 2.5461929-3.9550863 3.9381116-8.5127716 4.1757563-13.6730558h-17.7724263c-.1357969 4.2097056-1.290071 7.2821116-3.4628223 9.2172182s-5.3130558 2.9026599-9.4209137 2.9026599c-4.8547411 0-8.2751268-1.6974619-10.2611573-5.0923857-1.9860304-3.3949239-2.9790456-9.0474721-2.9790456-16.9576446v-5.2451574c.1018477-7.2990862 1.1882233-12.612142 3.2591268-15.9391674 2.0709036-3.3270253 5.3300305-4.990538 9.7773807-4.990538 4.3794518 0 7.6385786.9845279 9.7773807 2.9535837 2.138802 1.9690558 3.2761015 5.2112081 3.4118984 9.7264568h17.8233502c-.7468833-8.3175634-3.8532386-14.8443045-9.319066-19.5802232-5.4658273-4.7359188-12.6970151-7.1038782-21.6935633-7.1038782-6.2466599 0-11.7464365 1.4852792-16.4993299 4.4558376-4.75289333 2.9705583-8.39394915 7.1802639-10.92316741 12.6291167-2.52921826 5.4488527-3.79382739 11.8058476-3.79382739 19.0709846v3.6665178c0 11.5766903 2.80081217 20.5392892 8.4024365 26.8877968 5.6016243 6.3485078 13.2741522 9.5227618 23.0175836 9.5227618zm63.5966718 0c8.1478171 0 14.6066601-2.520731 19.3765281-7.5621933 4.769868-5.0414619 7.154802-11.8567715 7.154802-20.4459288v-.6110863c0-8.7928528-2.376447-15.7439593-7.12934-20.8533197-4.752894-5.1093604-11.254173-7.6640406-19.5038378-7.6640406-5.3979289 0-10.0998984 1.1542741-14.1059085 3.4628223-4.0060102 2.3085483-7.0784162 5.6101117-9.2172183 9.9046904-2.138802 4.2945786-3.208203 9.1917562-3.208203 14.6915329l.0509239 2.9026599c.3734416 8.0459695 2.9366091 14.419939 7.6895025 19.1219085 4.7528933 4.7019697 11.0504771 7.0529547 18.8927511 7.0529547zm0-13.2402034c-3.1233299 0-5.482802-1.1882234-7.0784162-3.56467-1.5956142-2.3764467-2.3934213-6.110863-2.3934213-11.2032487l.0509239-3.1063553c.4752893-8.5212589 3.5816446-12.7818883 9.3190659-12.7818883 6.3145588 0 9.4718378 4.9396142 9.4718378 14.8188426v1.7314111c-.135797 9.4039391-3.259127 14.1059086-9.3699901 14.1059086zm57.0784181 33.9152894c5.635574 0 10.592162-.959066 14.869766-2.877198s7.545219-4.66802 9.802843-8.249665 3.386436-7.799838 3.386436-12.654579v-53.0117355h-15.5827l-.611086 4.7868426c-3.225178-3.8702132-7.706477-5.8053198-13.443899-5.8053198-4.549198 0-8.538233 1.1627614-11.967106 3.4882843-3.428873 2.3255228-6.059939 5.6270862-7.893198 9.9046903-1.833259 4.277604-2.749888 9.2002436-2.749888 14.7679187v.6110863c0 8.6231065 2.070903 15.5063146 6.21271 20.6496242 4.141807 5.1433099 9.573685 7.7149649 16.295635 7.7149649 5.024487 0 9.183269-1.816285 12.476345-5.448853v1.731411c0 7.808325-3.802315 11.712487-11.406944 11.712487-5.228183 0-9.437889-1.884183-12.629117-5.652548l-7.180264 10.082924c2.003005 2.444345 4.897178 4.430375 8.682518 5.958091s7.69799 2.291574 11.737949 2.291574zm2.698964-33.9152894c-3.055431 0-5.431878-1.315533-7.12934-3.946599s-2.546193-6.2042233-2.546193-10.719472c0-5.1942335.865706-9.1578071 2.597117-11.8907208 1.731411-2.7329136 4.124833-4.0993705 7.180264-4.0993705 3.666518 0 6.331533 1.2561218 7.995046 3.7683655v23.1703552c-1.697462 2.4782944-4.396427 3.7174416-8.096894 3.7174416zm54.022987 12.2217254v-55.0996135h-17.212264v55.0996135zm31.514641 1.018478c3.360975 0 6.586153-.492264 9.675533-1.476792v-12.27265c-1.154274.2036954-2.580142.3055432-4.277604.3055432-2.2067 0-3.683492-.4073909-4.430375-1.2221726-.746883-.8147818-1.120325-2.2576244-1.120325-4.3285279v-25.2073095h9.064447v-11.9161827h-9.064447v-13.6985177h-17.16134v13.6985177h-7.027492v11.9161827h7.027492v27.3461115c0 5.6695228 1.408893 9.896203 4.22668 12.6800403 2.817787 2.783838 7.180264 4.175757 13.087431 4.175757zm32.634967 0c5.669523 0 10.082924-1.986031 13.240203-5.958092.475289 2.172751 1.018477 3.81929 1.629563 4.939614h17.16134v-.865705c-1.493766-2.68199-2.274599-6.5522032-2.342497-11.6106397v-24.3925278c-.101848-5.975066-2.189726-10.6770355-6.263635-14.1059086-4.073908-3.428873-9.624609-5.1433096-16.652101-5.1433096s-12.80735 1.6635127-17.339574 4.9905381c-4.532223 3.3270253-6.798335 7.6555532-6.798335 12.9855837h17.16134c0-4.0060102 2.036955-6.0090152 6.110863-6.0090152 4.379452 0 6.569178 2.5292182 6.569178 7.5876548v2.9026598h-5.296081c-8.419411 0-14.835817 1.5277158-19.249218 4.5831472-4.413401 3.0554315-6.620102 7.5706802-6.620102 13.5457461 0 4.7528934 1.816284 8.6994924 5.448853 11.8397972 3.632568 3.140304 8.045969 4.710457 13.240203 4.710457zm4.124832-12.2217263c-1.629563 0-2.970558-.4837766-4.022984-1.4513299-1.052427-.9675533-1.57864-2.2321624-1.57864-3.7938274 0-5.3639797 2.987533-8.0459695 8.962599-8.0459695h4.990538v8.8098274c-.611086 1.1542741-1.621076 2.1897258-3.02997 3.1063553-1.408893.9166294-3.182741 1.3749441-5.321543 1.3749441zm56.009017 12.2217263c3.360975 0 6.586153-.492264 9.675533-1.476792v-12.27265c-1.154274.2036954-2.580142.3055432-4.277604.3055432-2.2067 0-3.683492-.4073909-4.430375-1.2221726-.746884-.8147818-1.120325-2.2576244-1.120325-4.3285279v-25.2073095h9.064446v-11.9161827h-9.064446v-13.6985177h-17.16134v13.6985177h-7.027493v11.9161827h7.027493v27.3461115c0 5.6695228 1.408893 9.896203 4.22668 12.6800403 2.817787 2.783838 7.180264 4.175757 13.087431 4.175757zm42.225281 0c4.515249 0 8.733442-.874193 12.654579-2.622579s6.951107-4.0993706 9.089909-7.0529544l-7.842275-9.2681421c-3.055431 3.8023147-7.299086 5.7034721-12.730964 5.7034721-3.293076 0-5.975066-.8826802-8.045969-2.6480406-2.070904-1.7653604-3.411899-4.192731-4.022985-7.2821116h34.118984v-6.6710254c0-8.5891573-2.240649-15.2856446-6.721949-20.0894618-4.481299-4.8038173-10.592162-7.2057259-18.332589-7.2057259-5.499776 0-10.25267 1.1797361-14.25868 3.5392081-4.00601 2.3594721-7.052954 5.6949848-9.140832 10.0065381-2.087878 4.3115532-3.131817 9.2851167-3.131817 14.9206902v1.425868c0 8.0799188 2.614091 14.6406091 7.842274 19.682071 5.228182 5.0414623 12.068954 7.5621933 20.522314 7.5621933zm7.316406-33.9152896h-17.314111c.950578-6.6540507 3.938111-9.9810761 8.962599-9.9810761 2.715939 0 4.803817.7553706 6.263634 2.2661117s2.155777 3.6410558 2.087878 6.3909441z" fill-rule="nonzero"/></g></g></svg>