<svg xmlns="http://www.w3.org/2000/svg" viewBox="2.02 0 1943.87 389.97"><path d="m822.43 76.44c0 39.02-29.42 67.61-70.19 67.61h-54.62v-135.22h55.2c40.38 0 69.61 28.39 69.61 67.61zm-22.88.19c0-27.62-20.58-47.33-47.12-47.33h-32.12v94.28h33.08c26.16 0 46.16-19.51 46.16-46.95zm142.92-35.35v102.78h-22.12v-20.1c-6.92 14.3-19.81 20.67-36.54 20.86-23.46 0-37.5-15.06-37.5-39.6v-63.94h22.11v57.76c0 15.46 9.04 24.92 23.85 24.92 17.7-.38 28.08-14.1 28.08-32.07v-50.61zm77.43 18.74c-17.7 0-30.38 13.33-30.38 32.84s12.68 32.84 30.38 32.84c12.88 0 23.27-4.25 30.19-12.36l12.31 12.36c-9.23 12.17-24.04 19.13-43.46 19.13-30.39 0-51.54-21.06-51.54-51.97 0-31.1 21.15-52.35 51.54-52.35 18.47 0 32.89 5.99 42.31 16.8l-12.12 14.3c-7.11-7.34-16.92-11.78-29.23-11.59zm104.84 36.89-17.3 18.37v28.78h-22.12v-143.35h22.12v86.55l45.19-45.98h25.38l-37.88 39.8 40.77 62.98h-26.15zm202.68-68.38c-26.92 0-48.08 20.86-48.08 47.52s21.16 47.72 48.08 47.72c13.47 0 27.32-6.18 37.5-16.03l13.46 15.06c-13.64 13.52-33.07 22.22-52.11 22.22-39.43 0-70-29.94-70-68.77 0-38.45 30.96-68 70.77-68 19.04 0 38.08 7.92 51.16 20.86l-13.28 16.61c-9.8-10.62-23.84-17.19-37.5-17.19zm129.26 11.98v21.25c-20.57-1.16-33.65 11.01-35.38 28.59v53.7h-22.12v-102.77h22.12v20.48c6.92-13.91 19.23-21.25 35.38-21.25zm33.27 60.66c3.46 15.84 15.58 25.69 31.73 25.69 11.16 0 21.35-4.24 28.85-11.98l11.73 12.57c-10 11-24.62 17.38-42.31 17.38-31.54 0-52.31-21.05-52.31-51.97 0-31.11 21.35-52.16 51.73-52.35 35.96 0 50.58 23.56 47.89 60.66zm58.08-16.23c-.77-16.62-11.73-26.66-28.47-26.66-16.15 0-27.69 10.24-30 26.66zm58.61 16.23c3.47 15.84 15.58 25.69 31.73 25.69 11.15 0 21.35-4.24 28.85-11.98l11.73 12.57c-10 11-24.62 17.38-42.3 17.38-31.55 0-52.32-21.05-52.32-51.97 0-31.11 21.34-52.16 51.73-52.35 35.96 0 50.58 23.56 47.89 60.66zm58.08-16.23c-.77-16.62-11.73-26.66-28.47-26.66-16.15 0-27.69 10.24-30 26.66zm83.93 11.97-17.3 18.37v28.78h-22.12v-143.35h22.12v86.55l45.19-45.98h25.39l-37.89 39.8 40.77 62.98h-26.15z" fill="#4e4a54" fill-rule="evenodd"/><path d="m790.8 216.67v20.48h-42.7v114.75h-22.69v-114.75h-42.5v-20.48zm17.32 92.34c3.47 15.85 15.58 25.7 31.73 25.7 11.15 0 21.35-4.25 28.85-11.98l11.73 12.56c-10 11.01-24.62 17.38-42.31 17.38-31.54 0-52.31-21.05-52.31-51.96 0-31.11 21.34-52.16 51.73-52.36 35.96 0 50.58 23.57 47.89 60.66zm58.08-16.22c-.77-16.62-11.73-26.66-28.47-26.66-16.15 0-27.69 10.23-30 26.66zm88.8-24.92c-17.7 0-30.38 13.32-30.38 32.84 0 19.51 12.68 32.84 30.38 32.84 12.88 0 23.27-4.25 30.19-12.36l12.31 12.36c-9.23 12.17-24.04 19.13-43.46 19.13-30.39 0-51.54-21.07-51.54-51.97 0-31.11 21.15-52.35 51.54-52.35 18.47 0 32.89 5.98 42.3 16.8l-12.11 14.3c-7.12-7.34-16.92-11.79-29.23-11.59zm163.5 20.09v63.94h-22.11v-57.76c0-15.46-9.24-24.92-24.63-24.92-18.27.19-29.23 13.91-29.23 32.07v50.61h-22.12v-143.34h22.12v60.66c7.31-14.49 20.39-20.86 37.89-20.86 23.85 0 38.08 15.06 38.08 39.6zm128.59 0v63.94h-22.11v-57.76c0-15.46-9.24-24.92-24.63-24.92-16.92.19-27.5 11.97-29.03 28.01v54.67h-22.11v-102.78h22.11v19.71c7.3-14.29 20.38-20.47 37.69-20.47 23.85 0 38.08 15.06 38.08 39.6zm129.48 12.36c0 31.1-21.74 52.35-53.28 52.35-31.73 0-53.45-21.25-53.45-52.35 0-30.91 21.72-51.97 53.45-51.97 31.54 0 53.28 21.06 53.28 51.97zm-84.62.39c0 19.89 12.88 33.42 31.34 33.42 18.27 0 31.16-13.53 31.16-33.42 0-19.71-12.89-33.43-31.16-33.43-18.46 0-31.34 13.72-31.34 33.43zm109.9-92.16h22.11v143.34h-22.11zm153.84 91.77c0 31.1-21.73 52.35-53.27 52.35-31.73 0-53.46-21.25-53.46-52.35 0-30.91 21.73-51.97 53.46-51.97 31.54 0 53.27 21.06 53.27 51.97zm-84.61.39c0 19.89 12.88 33.42 31.34 33.42 18.27 0 31.16-13.53 31.16-33.42 0-19.71-12.89-33.43-31.16-33.43-18.46 0-31.34 13.72-31.34 33.43zm203.49-51.58v92.72c0 29.56-20.96 48.1-53.08 48.1-15.96 0-30-5.01-42.5-13.51l9.43-16.04c9.62 7.15 19.61 11.21 32.11 11.21 19.42 0 32.12-11.4 32.12-29.18v-12.94c-6.93 11.21-18.46 17.39-33.85 17.39-27.69 0-46.16-20.1-46.16-49.65 0-28.98 18.28-48.68 45.39-48.87 15.77-.2 27.5 6.18 34.62 17.38v-16.61zm-51.34 17.19c-17.51 0-29.62 13.13-29.81 31.49.19 18.54 12.11 31.68 29.81 31.68 17.3 0 29.42-13.14 29.42-31.68s-12.12-31.49-29.42-31.49zm82.88-17.2h21.92v102.77h-21.92zm10.96-16.22c-7.31 0-12.89-5.6-12.89-13.13 0-7.74 5.58-13.34 12.89-13.34s12.88 5.6 12.88 13.34c0 7.53-5.57 13.13-12.88 13.13zm57.39 76.11c3.48 15.85 15.59 25.7 31.74 25.7 11.15 0 21.34-4.25 28.84-11.98l11.74 12.56c-10 11.01-24.62 17.38-42.31 17.38-31.54 0-52.31-21.05-52.31-51.96 0-31.11 21.34-52.16 51.73-52.36 35.96 0 50.58 23.57 47.89 60.66zm58.08-16.22c-.77-16.62-11.73-26.66-28.46-26.66-16.16 0-27.69 10.23-30 26.66zm74.09-26.86c-8.65 0-14.99 2.9-14.99 10.24 0 18.94 54.42 8.69 54.23 45.98 0 21.05-18.66 30.52-39.24 30.52-14.99 0-30.97-5.01-41.15-14.3l7.88-15.83c8.85 7.92 23.08 12.74 34.24 12.74 9.42 0 16.73-3.27 16.73-11.01 0-21.05-53.85-9.26-53.66-46.36 0-20.86 18.08-29.75 37.69-29.75 12.89 0 26.54 3.87 35.77 10.43l-8.08 16.42c-9.03-5.6-20.38-9.08-29.42-9.08z" fill="#9c9896" fill-rule="evenodd"/><path d="m545.34 135.03-77.61-45.01v90.02z" fill="#ffa360"/><path d="m390.12 135.03-77.62 45.01 77.62 45.01 77.61-45.01v-90.02z" fill="#3b3487"/><path d="m234.89 45.01-77.61 45.01 77.61 45.01 77.61 45.01v-90.02-90.02z" fill="#7e6bf4"/><path d="m234.89 135.03-77.61-45.01-77.61-45.01-77.62-45.01v90.02 90.02l77.62 45.01 77.61 45.01 77.61-45.01 77.61-45.01z" fill="#3b3487"/><path d="m157.28 360.08 77.98-45.07 77.9-45.18 76.96-44.78-77.62-45.01-77.61 45.01-77.61 45.01-77.61-45.01-77.61 45.01 77.42 44.95z" fill="#2dd49c"/></svg>