<?xml version="1.0" encoding="UTF-8" standalone="no"?>
<svg
   xmlns:dc="http://purl.org/dc/elements/1.1/"
   xmlns:cc="http://creativecommons.org/ns#"
   xmlns:rdf="http://www.w3.org/1999/02/22-rdf-syntax-ns#"
   xmlns:svg="http://www.w3.org/2000/svg"
   xmlns="http://www.w3.org/2000/svg"
   xmlns:sodipodi="http://sodipodi.sourceforge.net/DTD/sodipodi-0.dtd"
   xmlns:inkscape="http://www.inkscape.org/namespaces/inkscape"
   version="1.1"
   id="svg2"
   xml:space="preserve"
   width="296.94666"
   height="80.013336"
   viewBox="0 0 296.94666 80.013336"
   sodipodi:docname="epay_Primary Logo_CMYK.eps"><metadata
     id="metadata8"><rdf:RDF><cc:Work
         rdf:about=""><dc:format>image/svg+xml</dc:format><dc:type
           rdf:resource="http://purl.org/dc/dcmitype/StillImage" /></cc:Work></rdf:RDF></metadata><defs
     id="defs6"><clipPath
       clipPathUnits="userSpaceOnUse"
       id="clipPath40"><path
         d="M 0,0 H 2227 V 600 H 0 Z"
         id="path38" /></clipPath><clipPath
       clipPathUnits="userSpaceOnUse"
       id="clipPath46"><path
         d="M 531.887,514.688 H 163.301 l 33.48,85.429 h 292.391 c 23.59,0 42.715,-19.121 42.715,-42.715 z"
         id="path44" /></clipPath><linearGradient
       x1="0"
       y1="0"
       x2="1"
       y2="0"
       gradientUnits="userSpaceOnUse"
       gradientTransform="matrix(312.671,0,0,-312.671,190.835,557.404)"
       spreadMethod="pad"
       id="linearGradient54"><stop
         style="stop-opacity:1;stop-color:#236c58"
         offset="0"
         id="stop48" /><stop
         style="stop-opacity:1;stop-color:#3eb63d"
         offset="0.996445"
         id="stop50" /><stop
         style="stop-opacity:1;stop-color:#3eb63d"
         offset="1"
         id="stop52" /></linearGradient><clipPath
       clipPathUnits="userSpaceOnUse"
       id="clipPath64"><path
         d="M 336.688,429.641 H 38.1563 l 33.4843,85.433 H 293.973 c 23.59,0 42.715,-19.125 42.715,-42.719 z"
         id="path62" /></clipPath><linearGradient
       x1="0"
       y1="0"
       x2="1"
       y2="0"
       gradientUnits="userSpaceOnUse"
       gradientTransform="matrix(247.513,0,0,-247.513,85.4148,472.357)"
       spreadMethod="pad"
       id="linearGradient72"><stop
         style="stop-opacity:1;stop-color:#236c58"
         offset="0"
         id="stop66" /><stop
         style="stop-opacity:1;stop-color:#3eb63d"
         offset="0.996445"
         id="stop68" /><stop
         style="stop-opacity:1;stop-color:#3eb63d"
         offset="1"
         id="stop70" /></linearGradient><clipPath
       clipPathUnits="userSpaceOnUse"
       id="clipPath82"><path
         d="M 440.656,344.598 H 127.355 l 33.485,85.429 h 237.101 c 23.59,0 42.715,-19.129 42.715,-42.714 z"
         id="path80" /></clipPath><linearGradient
       x1="0"
       y1="0"
       x2="1"
       y2="0"
       gradientUnits="userSpaceOnUse"
       gradientTransform="matrix(268.764,0,0,-268.764,157.387,387.31)"
       spreadMethod="pad"
       id="linearGradient90"><stop
         style="stop-opacity:1;stop-color:#236c58"
         offset="0"
         id="stop84" /><stop
         style="stop-opacity:1;stop-color:#3eb63d"
         offset="0.996445"
         id="stop86" /><stop
         style="stop-opacity:1;stop-color:#3eb63d"
         offset="1"
         id="stop88" /></linearGradient><clipPath
       clipPathUnits="userSpaceOnUse"
       id="clipPath100"><path
         d="M 313.305,259.551 H 0 L 33.4805,344.98 H 270.586 c 23.594,0 42.719,-19.125 42.719,-42.718 z"
         id="path98" /></clipPath><linearGradient
       x1="0"
       y1="0"
       x2="1"
       y2="0"
       gradientUnits="userSpaceOnUse"
       gradientTransform="matrix(248.401,0,0,-248.401,33.9169,302.264)"
       spreadMethod="pad"
       id="linearGradient108"><stop
         style="stop-opacity:1;stop-color:#236c58"
         offset="0"
         id="stop102" /><stop
         style="stop-opacity:1;stop-color:#3eb63d"
         offset="0.996445"
         id="stop104" /><stop
         style="stop-opacity:1;stop-color:#3eb63d"
         offset="1"
         id="stop106" /></linearGradient><clipPath
       clipPathUnits="userSpaceOnUse"
       id="clipPath118"><path
         d="M 451.348,174.504 H 63.7539 l 33.4805,85.43 H 408.633 c 23.586,0 42.715,-19.121 42.715,-42.715 z"
         id="path116" /></clipPath><linearGradient
       x1="0"
       y1="0"
       x2="1"
       y2="0"
       gradientUnits="userSpaceOnUse"
       gradientTransform="matrix(326.049,0,0,-326.049,107.479,217.217)"
       spreadMethod="pad"
       id="linearGradient126"><stop
         style="stop-opacity:1;stop-color:#236c58"
         offset="0"
         id="stop120" /><stop
         style="stop-opacity:1;stop-color:#3eb63d"
         offset="0.996445"
         id="stop122" /><stop
         style="stop-opacity:1;stop-color:#3eb63d"
         offset="1"
         id="stop124" /></linearGradient></defs><sodipodi:namedview
     pagecolor="#ffffff"
     bordercolor="#666666"
     borderopacity="1"
     objecttolerance="10"
     gridtolerance="10"
     guidetolerance="10"
     inkscape:pageopacity="0"
     inkscape:pageshadow="2"
     inkscape:window-width="640"
     inkscape:window-height="480"
     id="namedview4" /><g
     id="g10"
     inkscape:groupmode="layer"
     inkscape:label="ink_ext_XXXXXX"
     transform="matrix(1.3333333,0,0,-1.3333333,0,80.013333)"><g
       id="g12"
       transform="scale(0.1)"><path
         d="m 1960.08,94.9922 c -10.73,0 -22.21,0.5664 -34.46,1.7187 -12.26,1.1524 -25.07,2.6836 -38.48,4.5981 l 14.6,64.718 39.76,-6.035 c 10.73,-1.34 9.58,-0.676 18,-0.676 24.12,0 41.73,5.547 52.84,16.653 11.1,11.113 19.52,26.621 25.27,46.523 l 1.15,4.012 h -45.95 l -110.84,333.094 h 87.87 l 85.57,-278.532 87.29,278.532 h 84.43 L 2107.67,204.68 c -13.01,-38.664 -31.01,-66.621 -53.98,-83.848 -22.97,-17.227 -54.18,-25.8398 -93.61,-25.8398"
         style="fill:#236c58;fill-opacity:1;fill-rule:nonzero;stroke:none"
         id="path14" /><path
         d="m 1308.25,342.352 c 0,-22.93 -6.13,-39.637 -18.38,-50.133 -12.25,-10.5 -30.44,-15.754 -54.56,-15.754 -13.02,0 -25.26,1.535 -36.75,4.582 -11.49,3.047 -22.79,7.637 -33.88,13.758 v 155.793 c 14.16,15.277 28.13,26.539 41.92,33.804 13.78,7.239 28.52,10.871 44.22,10.871 17.61,0 31.58,-4.769 41.92,-14.312 10.34,-9.555 15.51,-25.973 15.51,-49.254 z m 58,189.109 c -18.76,22.582 -45.18,33.883 -79.25,33.883 -23.74,0 -44.79,-5.844 -63.17,-17.52 -18.38,-11.676 -32.36,-27.851 -41.93,-48.527 h -17.22 v 60.301 h -86.15 V 80.1094 h 86.15 V 225.363 c 11.86,-4.992 24.88,-8.711 39.05,-11.203 14.16,-2.488 28.33,-3.738 42.49,-3.738 46.71,0 83.08,11.492 109.12,34.461 26.04,22.98 39.05,54.937 39.05,95.906 v 95.91 c 0,40.582 -9.38,72.16 -28.14,94.762"
         style="fill:#236c58;fill-opacity:1;fill-rule:nonzero;stroke:none"
         id="path16" /><path
         d="m 769.848,430.961 c 0,26.414 5.742,45.656 17.23,57.711 11.485,12.066 29.664,18.098 54.555,18.098 24.883,0 43.078,-6.137 54.562,-18.379 11.485,-12.262 17.227,-32.36 17.227,-60.309 v -7.461 H 769.848 Z M 903.086,280.488 c -11.871,-7.273 -30.441,-10.906 -55.707,-10.906 -26.805,0 -46.43,6.211 -58.871,18.66 -12.445,12.434 -18.66,31.106 -18.66,55.996 v 25.848 h 229.715 v 58.574 c 0,44.414 -14.168,78.293 -42.493,101.653 -28.34,23.347 -66.621,35.031 -114.859,35.031 -48.242,0 -86.723,-11.594 -115.434,-34.746 -28.718,-23.168 -43.078,-56.379 -43.078,-99.637 v -86.723 c 0,-43.269 14.074,-76.582 42.211,-99.922 28.145,-23.367 67.281,-35.039 117.449,-35.039 45.942,0 81.067,6.321 105.383,18.946 19.469,10.129 35.258,26.25 47.488,48.156 l -72.96,25.199 c -5.29,-8.926 -11.954,-16.051 -20.184,-21.09"
         style="fill:#236c58;fill-opacity:1;fill-rule:nonzero;stroke:none"
         id="path18" /><path
         d="m 1705.95,300.594 c -11.87,-11.481 -25.66,-19.723 -41.35,-24.703 -15.7,-4.969 -31.97,-7.453 -48.81,-7.453 -19.53,0 -33.98,3.808 -43.36,11.476 -9.39,7.656 -14.07,18.758 -14.07,33.316 0,16.458 4.21,27.754 12.63,33.879 8.41,6.121 19.72,9.192 33.88,9.192 h 101.08 z m 102.22,-16.949 c -10.72,5.554 -16.07,18.093 -16.07,37.621 v 133.238 c 0,38.281 -13.79,66.332 -41.36,84.137 -27.56,17.8 -64.51,26.703 -110.84,26.703 -45.57,0 -81.07,-8.422 -106.52,-25.274 -25.47,-16.847 -41.84,-43.07 -49.1,-78.672 l 73.5,-14.367 c 6.51,22.977 15.41,38.196 26.7,45.664 11.3,7.473 28.44,11.2 51.41,11.2 22.97,0 40.39,-4.793 52.25,-14.352 11.87,-9.586 17.81,-23.363 17.81,-41.359 v -41.348 h -114.28 c -35.61,0 -63.75,-8.523 -84.43,-25.555 -20.67,-17.043 -31.01,-41.261 -31.01,-72.648 0,-32.93 11.58,-57.711 34.75,-74.375 23.16,-16.66 52.35,-24.981 87.57,-24.981 28.72,0 54.94,5.657 78.68,16.946 23.75,11.289 40.78,25.742 51.12,43.359 h 14.35 c 4.97,-27.57 18.19,-45 39.63,-52.266 20.59,-6.972 45.6,-7.773 75.01,-2.414 0.73,0.129 11.93,2.168 21.17,3.86 l -42.52,59.754 c -11.9,-0.008 -21.19,1.691 -27.82,5.129"
         style="fill:#236c58;fill-opacity:1;fill-rule:nonzero;stroke:none"
         id="path20" /><path
         d="m 1332.2,43.0078 c 5.71,0 10.02,1.2422 12.93,3.7305 2.9,2.4922 4.34,6.4453 4.34,11.875 v 21.1719 c 0,5.5195 -1.22,9.414 -3.67,11.6796 -2.45,2.2657 -5.76,3.3985 -9.93,3.3985 -3.72,0 -7.22,-0.8672 -10.48,-2.586 -3.27,-1.7187 -6.58,-4.3867 -9.93,-8.0078 V 47.3438 c 2.62,-1.4454 5.3,-2.5274 8.02,-3.25 2.73,-0.7227 5.63,-1.086 8.72,-1.086 z m 2.57,-15.6523 c -3.35,0 -6.7,0.2929 -10.06,0.8867 -3.36,0.5859 -6.45,1.4766 -9.25,2.6484 V 1.22266 h -20.42 V 110.098 h 20.42 V 95.8125 h 4.07 c 2.28,4.8905 5.59,8.7305 9.94,11.5035 4.36,2.762 9.35,4.149 14.97,4.149 8.08,0 14.34,-2.684 18.78,-8.035 4.44,-5.3519 6.67,-12.8441 6.67,-22.4534 V 58.2422 c 0,-9.707 -3.08,-17.2734 -9.26,-22.7227 -6.17,-5.4414 -14.78,-8.164 -25.86,-8.164"
         style="fill:#3eb63d;fill-opacity:1;fill-rule:nonzero;stroke:none"
         id="path22" /><path
         d="m 1422.28,42.7344 c 5.99,0 10.33,1.2695 13,3.8125 2.68,2.539 4.02,6.7148 4.02,12.5156 v 20.6836 c 0,5.3516 -1.34,9.375 -4.02,12.0508 -2.67,2.6758 -7.01,4.0156 -13,4.0156 -5.89,0 -10.2,-1.3398 -12.93,-4.0156 -2.72,-2.6758 -4.08,-6.7383 -4.08,-12.1758 V 59.0625 c 0,-5.8008 1.36,-9.9766 4.08,-12.5156 2.73,-2.543 7.04,-3.8125 12.93,-3.8125 z m 0,-15.6524 c -10.8,0 -19.73,2.5899 -26.8,7.7539 -7.08,5.1758 -10.62,13.0157 -10.62,23.543 v 21.3672 c 0,10.6172 3.56,18.5547 10.69,23.8199 7.11,5.262 16.07,7.899 26.87,7.899 10.79,0 19.71,-2.637 26.74,-7.899 7.03,-5.2652 10.55,-13.2027 10.55,-23.8199 V 58.3789 c 0,-10.5273 -3.54,-18.3672 -10.62,-23.543 -7.07,-5.164 -16.02,-7.7539 -26.81,-7.7539"
         style="fill:#3eb63d;fill-opacity:1;fill-rule:nonzero;stroke:none"
         id="path24" /><path
         d="m 1512.65,27.3555 c -9.89,0 -17.55,3.125 -22.99,9.3945 -5.45,6.2578 -8.18,13.7891 -8.18,22.5859 v 77.9801 h 20.42 V 59.2305 c 0,-4.4649 1.17,-8.1641 3.54,-11.1133 2.35,-2.9609 5.62,-4.4336 9.79,-4.4336 1.64,0 3.45,0.2227 5.45,0.6836 1.99,0.4492 3.86,1.1328 5.58,2.0391 l 3.4,-15.1368 c -2.36,-1.0742 -5.01,-2 -7.96,-2.7734 -2.95,-0.7617 -5.97,-1.1406 -9.05,-1.1406"
         style="fill:#3eb63d;fill-opacity:1;fill-rule:nonzero;stroke:none"
         id="path26" /><path
         d="m 1546.13,28.4492 v 81.6488 h 20.41 V 28.4492 Z m 10.21,95.2618 c -4.36,0 -7.88,0.684 -10.55,2.043 -2.69,1.355 -4.01,3.719 -4.01,7.07 v 1.504 c 0,3.445 1.32,5.867 4.01,7.274 2.67,1.406 6.19,2.109 10.55,2.109 4.35,0 7.87,-0.703 10.54,-2.109 2.68,-1.407 4.02,-3.829 4.02,-7.274 v -1.504 c 0,-3.351 -1.37,-5.715 -4.08,-7.07 -2.73,-1.359 -6.23,-2.043 -10.48,-2.043"
         style="fill:#3eb63d;fill-opacity:1;fill-rule:nonzero;stroke:none"
         id="path28" /><path
         d="m 1629.01,27.082 c -12.98,0 -22.66,2.7227 -29.06,8.1719 -6.4,5.4414 -9.59,13.1445 -9.59,23.125 v 21.3672 c 0,10.6172 3.45,18.5547 10.34,23.8199 6.9,5.262 16.29,7.899 28.18,7.899 11.97,0 21.02,-2.5 27.14,-7.488 6.13,-4.9926 9.68,-12.2973 10.69,-21.9145 l -19.74,-1.4961 c -0.46,5.9883 -2.04,10.0195 -4.75,12.1094 -2.73,2.0898 -7.08,3.1367 -13.07,3.1367 -6.36,0 -11.01,-1.3008 -13.96,-3.8867 -2.95,-2.5781 -4.42,-6.6914 -4.42,-12.3047 V 59.0625 c 0,-5.8008 1.47,-9.9766 4.42,-12.5156 2.95,-2.543 7.7,-3.8125 14.22,-3.8125 6.26,0 10.67,0.8594 13.21,2.5898 2.53,1.7188 3.99,5.0274 4.35,9.9297 l 19.74,-1.5 c -0.64,-8.793 -3.88,-15.4414 -9.74,-19.9336 -5.85,-4.4922 -15.16,-6.7383 -27.96,-6.7383"
         style="fill:#3eb63d;fill-opacity:1;fill-rule:nonzero;stroke:none"
         id="path30" /><path
         d="m 1697.25,0.00390625 c -2.54,0 -5.26,0.13281275 -8.17,0.40624975 -2.9,0.273438 -5.94,0.636724 -9.11,1.085934 l 1.77,15.65231 c 3.17,-0.6328 6.03,-1.1132 8.57,-1.4336 2.54,-0.3125 4.81,-0.4687 6.81,-0.4687 5.71,0 9.88,1.3086 12.52,3.9453 2.62,2.625 4.63,6.3086 5.98,11.0156 l 0.28,0.9571 h -10.89 l -26.27,78.9339 h 20.83 l 20.27,-66.0042 20.69,66.0042 h 20.01 l -28.31,-84.1019 c -3.09,-9.168 -7.35,-15.7891 -12.8,-19.8711 -5.44,-4.08203 -12.83,-6.12109375 -22.18,-6.12109375"
         style="fill:#3eb63d;fill-opacity:1;fill-rule:nonzero;stroke:none"
         id="path32" /><g
         id="g34"><g
           id="g36"
           clip-path="url(#clipPath40)"><g
             id="g42"
             clip-path="url(#clipPath46)"><path
               d="m 163,514 v 3 h 1 v 3 h 1 v 2 h 1 v 3 h 1 v 2 h 1 v 3 h 1 v 2 h 1 v 3 h 1 v 2 h 1 v 3 h 1 v 2 h 1 v 3 h 1 v 3 h 1 v 2 h 1 v 3 h 1 v 2 h 1 v 3 h 1 v 2 h 1 v 3 h 1 v 2 h 1 v 3 h 1 v 3 h 1 v 2 h 1 v 3 h 1 v 2 h 1 v 3 h 1 v 2 h 1 v 3 h 1 v 2 h 1 v 3 h 1 v 3 h 1 v 2 h 1 v 3 h 1 v 1 h 303 v -1 h 3 v -1 h 4 v -1 h 2 v -1 h 2 v -1 h 1 v -1 h 2 v -1 h 2 v -1 h 1 v -1 h 1 v -1 h 1 v -1 h 1 v -1 h 1 v -1 h 1 v -1 h 1 v -1 h 1 v -1 h 1 v -2 h 1 v -1 h 1 v -2 h 1 v -2 h 1 v -2 h 1 v -2 h 1 v -3 h 1 v -3 h 1 v -53"
               style="fill:url(#linearGradient54);fill-opacity:1;fill-rule:nonzero;stroke:none"
               id="path56" /></g></g></g><g
         id="g58"><g
           id="g60"
           clip-path="url(#clipPath64)"><path
             d="M 336.688,429.641 H 38.1563 l 33.4843,85.433 H 293.973 c 23.59,0 42.715,-19.125 42.715,-42.719 v -42.714"
             style="fill:url(#linearGradient72);fill-opacity:1;fill-rule:nonzero;stroke:none"
             id="path74" /></g></g><g
         id="g76"><g
           id="g78"
           clip-path="url(#clipPath82)"><path
             d="M 440.656,344.598 H 127.355 l 33.485,85.429 h 237.101 c 23.59,0 42.715,-19.129 42.715,-42.714 v -42.715"
             style="fill:url(#linearGradient90);fill-opacity:1;fill-rule:nonzero;stroke:none"
             id="path92" /></g></g><g
         id="g94"><g
           id="g96"
           clip-path="url(#clipPath100)"><path
             d="M 313.305,259.551 H 0 L 33.4805,344.98 H 270.586 c 23.594,0 42.719,-19.125 42.719,-42.718 v -42.711"
             style="fill:url(#linearGradient108);fill-opacity:1;fill-rule:nonzero;stroke:none"
             id="path110" /></g></g><g
         id="g112"><g
           id="g114"
           clip-path="url(#clipPath118)"><path
             d="M 451.348,174.504 H 63.7539 l 33.4805,85.43 H 408.633 c 23.586,0 42.715,-19.121 42.715,-42.715 v -42.715"
             style="fill:url(#linearGradient126);fill-opacity:1;fill-rule:nonzero;stroke:none"
             id="path128" /></g></g></g></g></svg>
