<svg xmlns="http://www.w3.org/2000/svg" xmlns:xlink="http://www.w3.org/1999/xlink" viewBox="0 0 296.97 80.02"><clipPath id="a"><path d="m0 0h2227v600h-2227z"/></clipPath><clipPath id="b"><path d="m531.887 514.688h-368.586l33.48 85.429h292.391c23.59 0 42.715-19.121 42.715-42.715z"/></clipPath><linearGradient id="c"><stop offset="0" stop-color="#236c58"/><stop offset=".996445" stop-color="#3eb63d"/><stop offset="1" stop-color="#3eb63d"/></linearGradient><linearGradient id="d" gradientTransform="matrix(312.671 0 0 -312.671 190.835 557.404)" gradientUnits="userSpaceOnUse" spreadMethod="pad" x1="0" x2="1" xlink:href="#c" y1="0" y2="0"/><clipPath id="e"><path d="m336.688 429.641h-298.5317l33.4843 85.433h222.3324c23.59 0 42.715-19.125 42.715-42.719z"/></clipPath><linearGradient id="f" gradientTransform="matrix(247.513 0 0 -247.513 85.4148 472.357)" gradientUnits="userSpaceOnUse" spreadMethod="pad" x1="0" x2="1" xlink:href="#c" y1="0" y2="0"/><clipPath id="g"><path d="m440.656 344.598h-313.301l33.485 85.429h237.101c23.59 0 42.715-19.129 42.715-42.714z"/></clipPath><linearGradient id="h" gradientTransform="matrix(268.764 0 0 -268.764 157.387 387.31)" gradientUnits="userSpaceOnUse" spreadMethod="pad" x1="0" x2="1" xlink:href="#c" y1="0" y2="0"/><clipPath id="i"><path d="m313.305 259.551h-313.305l33.4805 85.429h237.1055c23.594 0 42.719-19.125 42.719-42.718z"/></clipPath><linearGradient id="j" gradientTransform="matrix(248.401 0 0 -248.401 33.9169 302.264)" gradientUnits="userSpaceOnUse" spreadMethod="pad" x1="0" x2="1" xlink:href="#c" y1="0" y2="0"/><clipPath id="k"><path d="m451.348 174.504h-387.5941l33.4805 85.43h311.3986c23.586 0 42.715-19.121 42.715-42.715z"/></clipPath><linearGradient id="l" gradientTransform="matrix(326.049 0 0 -326.049 107.479 217.217)" gradientUnits="userSpaceOnUse" spreadMethod="pad" x1="0" x2="1" xlink:href="#c" y1="0" y2="0"/><g transform="matrix(.13333333 0 0 -.13333333 0 80.013333)"><path d="m1960.08 94.9922c-10.73 0-22.21.5664-34.46 1.7187-12.26 1.1524-25.07 2.6836-38.48 4.5981l14.6 64.718 39.76-6.035c10.73-1.34 9.58-.676 18-.676 24.12 0 41.73 5.547 52.84 16.653 11.1 11.113 19.52 26.621 25.27 46.523l1.15 4.012h-45.95l-110.84 333.094h87.87l85.57-278.532 87.29 278.532h84.43l-119.46-354.918c-13.01-38.664-31.01-66.621-53.98-83.848s-54.18-25.8398-93.61-25.8398" fill="#236c58"/><path d="m1308.25 342.352c0-22.93-6.13-39.637-18.38-50.133-12.25-10.5-30.44-15.754-54.56-15.754-13.02 0-25.26 1.535-36.75 4.582s-22.79 7.637-33.88 13.758v155.793c14.16 15.277 28.13 26.539 41.92 33.804 13.78 7.239 28.52 10.871 44.22 10.871 17.61 0 31.58-4.769 41.92-14.312 10.34-9.555 15.51-25.973 15.51-49.254zm58 189.109c-18.76 22.582-45.18 33.883-79.25 33.883-23.74 0-44.79-5.844-63.17-17.52s-32.36-27.851-41.93-48.527h-17.22v60.301h-86.15v-479.4886h86.15v145.2536c11.86-4.992 24.88-8.711 39.05-11.203 14.16-2.488 28.33-3.738 42.49-3.738 46.71 0 83.08 11.492 109.12 34.461 26.04 22.98 39.05 54.937 39.05 95.906v95.91c0 40.582-9.38 72.16-28.14 94.762" fill="#236c58"/><path d="m769.848 430.961c0 26.414 5.742 45.656 17.23 57.711 11.485 12.066 29.664 18.098 54.555 18.098 24.883 0 43.078-6.137 54.562-18.379 11.485-12.262 17.227-32.36 17.227-60.309v-7.461h-143.574zm133.238-150.473c-11.871-7.273-30.441-10.906-55.707-10.906-26.805 0-46.43 6.211-58.871 18.66-12.445 12.434-18.66 31.106-18.66 55.996v25.848h229.715v58.574c0 44.414-14.168 78.293-42.493 101.653-28.34 23.347-66.621 35.031-114.859 35.031-48.242 0-86.723-11.594-115.434-34.746-28.718-23.168-43.078-56.379-43.078-99.637v-86.723c0-43.269 14.074-76.582 42.211-99.922 28.145-23.367 67.281-35.039 117.449-35.039 45.942 0 81.067 6.321 105.383 18.946 19.469 10.129 35.258 26.25 47.488 48.156l-72.96 25.199c-5.29-8.926-11.954-16.051-20.184-21.09" fill="#236c58"/><path d="m1705.95 300.594c-11.87-11.481-25.66-19.723-41.35-24.703-15.7-4.969-31.97-7.453-48.81-7.453-19.53 0-33.98 3.808-43.36 11.476-9.39 7.656-14.07 18.758-14.07 33.316 0 16.458 4.21 27.754 12.63 33.879 8.41 6.121 19.72 9.192 33.88 9.192h101.08zm102.22-16.949c-10.72 5.554-16.07 18.093-16.07 37.621v133.238c0 38.281-13.79 66.332-41.36 84.137-27.56 17.8-64.51 26.703-110.84 26.703-45.57 0-81.07-8.422-106.52-25.274-25.47-16.847-41.84-43.07-49.1-78.672l73.5-14.367c6.51 22.977 15.41 38.196 26.7 45.664 11.3 7.473 28.44 11.2 51.41 11.2s40.39-4.793 52.25-14.352c11.87-9.586 17.81-23.363 17.81-41.359v-41.348h-114.28c-35.61 0-63.75-8.523-84.43-25.555-20.67-17.043-31.01-41.261-31.01-72.648 0-32.93 11.58-57.711 34.75-74.375 23.16-16.66 52.35-24.981 87.57-24.981 28.72 0 54.94 5.657 78.68 16.946 23.75 11.289 40.78 25.742 51.12 43.359h14.35c4.97-27.57 18.19-45 39.63-52.266 20.59-6.972 45.6-7.773 75.01-2.414.73.129 11.93 2.168 21.17 3.86l-42.52 59.754c-11.9-.008-21.19 1.691-27.82 5.129" fill="#236c58"/><g fill="#3eb63d"><path d="m1332.2 43.0078c5.71 0 10.02 1.2422 12.93 3.7305 2.9 2.4922 4.34 6.4453 4.34 11.875v21.1719c0 5.5195-1.22 9.414-3.67 11.6796-2.45 2.2657-5.76 3.3985-9.93 3.3985-3.72 0-7.22-.8672-10.48-2.586-3.27-1.7187-6.58-4.3867-9.93-8.0078v-36.9257c2.62-1.4454 5.3-2.5274 8.02-3.25 2.73-.7227 5.63-1.086 8.72-1.086zm2.57-15.6523c-3.35 0-6.7.2929-10.06.8867-3.36.5859-6.45 1.4766-9.25 2.6484v-29.66794h-20.42v108.87534h20.42v-14.2855h4.07c2.28 4.8905 5.59 8.7305 9.94 11.5035 4.36 2.762 9.35 4.149 14.97 4.149 8.08 0 14.34-2.684 18.78-8.035 4.44-5.3519 6.67-12.8441 6.67-22.4534v-22.7344c0-9.707-3.08-17.2734-9.26-22.7227-6.17-5.4414-14.78-8.164-25.86-8.164"/><path d="m1422.28 42.7344c5.99 0 10.33 1.2695 13 3.8125 2.68 2.539 4.02 6.7148 4.02 12.5156v20.6836c0 5.3516-1.34 9.375-4.02 12.0508-2.67 2.6758-7.01 4.0156-13 4.0156-5.89 0-10.2-1.3398-12.93-4.0156-2.72-2.6758-4.08-6.7383-4.08-12.1758v-20.5586c0-5.8008 1.36-9.9766 4.08-12.5156 2.73-2.543 7.04-3.8125 12.93-3.8125zm0-15.6524c-10.8 0-19.73 2.5899-26.8 7.7539-7.08 5.1758-10.62 13.0157-10.62 23.543v21.3672c0 10.6172 3.56 18.5547 10.69 23.8199 7.11 5.262 16.07 7.899 26.87 7.899 10.79 0 19.71-2.637 26.74-7.899 7.03-5.2652 10.55-13.2027 10.55-23.8199v-21.3672c0-10.5273-3.54-18.3672-10.62-23.543-7.07-5.164-16.02-7.7539-26.81-7.7539"/><path d="m1512.65 27.3555c-9.89 0-17.55 3.125-22.99 9.3945-5.45 6.2578-8.18 13.7891-8.18 22.5859v77.9801h20.42v-78.0855c0-4.4649 1.17-8.1641 3.54-11.1133 2.35-2.9609 5.62-4.4336 9.79-4.4336 1.64 0 3.45.2227 5.45.6836 1.99.4492 3.86 1.1328 5.58 2.0391l3.4-15.1368c-2.36-1.0742-5.01-2-7.96-2.7734-2.95-.7617-5.97-1.1406-9.05-1.1406"/><path d="m1546.13 28.4492v81.6488h20.41v-81.6488zm10.21 95.2618c-4.36 0-7.88.684-10.55 2.043-2.69 1.355-4.01 3.719-4.01 7.07v1.504c0 3.445 1.32 5.867 4.01 7.274 2.67 1.406 6.19 2.109 10.55 2.109 4.35 0 7.87-.703 10.54-2.109 2.68-1.407 4.02-3.829 4.02-7.274v-1.504c0-3.351-1.37-5.715-4.08-7.07-2.73-1.359-6.23-2.043-10.48-2.043"/><path d="m1629.01 27.082c-12.98 0-22.66 2.7227-29.06 8.1719-6.4 5.4414-9.59 13.1445-9.59 23.125v21.3672c0 10.6172 3.45 18.5547 10.34 23.8199 6.9 5.262 16.29 7.899 28.18 7.899 11.97 0 21.02-2.5 27.14-7.488 6.13-4.9926 9.68-12.2973 10.69-21.9145l-19.74-1.4961c-.46 5.9883-2.04 10.0195-4.75 12.1094-2.73 2.0898-7.08 3.1367-13.07 3.1367-6.36 0-11.01-1.3008-13.96-3.8867-2.95-2.5781-4.42-6.6914-4.42-12.3047v-20.5586c0-5.8008 1.47-9.9766 4.42-12.5156 2.95-2.543 7.7-3.8125 14.22-3.8125 6.26 0 10.67.8594 13.21 2.5898 2.53 1.7188 3.99 5.0274 4.35 9.9297l19.74-1.5c-.64-8.793-3.88-15.4414-9.74-19.9336-5.85-4.4922-15.16-6.7383-27.96-6.7383"/><path d="m1697.25.00390625c-2.54 0-5.26.13281275-8.17.40624975-2.9.273438-5.94.636724-9.11 1.085934l1.77 15.65231c3.17-.6328 6.03-1.1132 8.57-1.4336 2.54-.3125 4.81-.4687 6.81-.4687 5.71 0 9.88 1.3086 12.52 3.9453 2.62 2.625 4.63 6.3086 5.98 11.0156l.28.9571h-10.89l-26.27 78.9339h20.83l20.27-66.0042 20.69 66.0042h20.01l-28.31-84.1019c-3.09-9.168-7.35-15.7891-12.8-19.8711-5.44-4.08203-12.83-6.12109375-22.18-6.12109375"/></g><g clip-path="url(#a)"><g clip-path="url(#b)"><path d="m163 514v3h1v3h1v2h1v3h1v2h1v3h1v2h1v3h1v2h1v3h1v2h1v3h1v3h1v2h1v3h1v2h1v3h1v2h1v3h1v2h1v3h1v3h1v2h1v3h1v2h1v3h1v2h1v3h1v2h1v3h1v3h1v2h1v3h1v1h303v-1h3v-1h4v-1h2v-1h2v-1h1v-1h2v-1h2v-1h1v-1h1v-1h1v-1h1v-1h1v-1h1v-1h1v-1h1v-1h1v-2h1v-1h1v-2h1v-2h1v-2h1v-2h1v-3h1v-3h1v-53" fill="url(#d)"/></g></g><g clip-path="url(#e)"><path d="m336.688 429.641h-298.5317l33.4843 85.433h222.3324c23.59 0 42.715-19.125 42.715-42.719z" fill="url(#f)"/></g><g clip-path="url(#g)"><path d="m440.656 344.598h-313.301l33.485 85.429h237.101c23.59 0 42.715-19.129 42.715-42.714z" fill="url(#h)"/></g><g clip-path="url(#i)"><path d="m313.305 259.551h-313.305l33.4805 85.429h237.1055c23.594 0 42.719-19.125 42.719-42.718z" fill="url(#j)"/></g><g clip-path="url(#k)"><path d="m451.348 174.504h-387.5941l33.4805 85.43h311.3986c23.586 0 42.715-19.121 42.715-42.715z" fill="url(#l)"/></g></g></svg>