<svg enable-background="new 0 0 652 652" xmlns="http://www.w3.org/2000/svg" viewBox="26 278.78 600 94.43"><g fill="#666766"><path d="m197.9 349.7c-3.2 1.6-6.5 2.8-9.9 3.6s-7 1.1-10.5 1.1c-3.8 0-7.4-.6-10.5-1.8-3.2-1.1-6-2.9-8.4-5.1-2.3-2.3-4.2-4.9-5.5-8.1s-1.9-6.7-1.9-10.7.6-7.5 1.9-10.7 3.2-5.8 5.5-8.1 5.1-3.9 8.4-5.1c3.2-1.1 6.7-1.8 10.5-1.8 3.9 0 7.5.5 10.8 1.4s6.2 2.5 8.6 4.8l-7.6 8.2c-1.5-1.5-3.2-2.7-4.9-3.4s-4.2-1.1-6.8-1.1c-2.3 0-4.4.4-6.2 1.1-1.9.8-3.4 1.9-4.8 3.3s-2.4 3-3 4.9c-.8 1.9-1 4.1-1 6.2 0 2.3.4 4.4 1 6.3.8 1.9 1.8 3.6 3 4.9 1.4 1.4 2.9 2.5 4.8 3.3s3.9 1.1 6.2 1.1 4.3-.3 6.1-.8c1.6-.5 3-1 4.1-1.6v-7.9h-8.7v-9.9h19v25.9z"/><path d="m258.9 334.4c0 2.9-.4 5.6-1.3 8s-2.2 4.6-3.9 6.3c-1.8 1.8-3.9 3.2-6.5 4.2-2.5 1-5.6 1.5-8.9 1.5-3.4 0-6.3-.5-9-1.5-2.5-1-4.7-2.4-6.5-4.2s-3-3.9-3.9-6.3-1.3-5.1-1.3-8v-29.9h10.8v29.5c0 1.5.3 2.9.8 4.2s1.1 2.4 2 3.3 1.9 1.6 3.2 2.2c1.3.5 2.5.8 3.9.8s2.8-.3 3.9-.8 2.3-1.3 3-2.2c.9-.9 1.5-2 2-3.3s.8-2.7.8-4.2v-29.5h10.8v29.9z"/><path d="m279.1 304.3h10.8v48.8h-10.8z"/><path d="m309.9 304.3h16.1c3.9 0 7.6.4 11.2 1.3s6.6 2.3 9.3 4.2 4.7 4.4 6.2 7.6 2.3 7 2.3 11.4c0 3.9-.8 7.5-2.3 10.4-1.5 3-3.6 5.6-6.1 7.6s-5.5 3.6-8.7 4.7c-3.3 1-6.7 1.5-10.4 1.5h-17.6zm10.8 38.9h5.6c2.5 0 4.8-.3 7-.8s3.9-1.4 5.6-2.5c1.5-1.1 2.8-2.7 3.7-4.6s1.4-4.2 1.4-7c0-2.4-.5-4.4-1.4-6.2s-2.2-3.2-3.7-4.4c-1.5-1.1-3.3-2-5.3-2.5-2-.6-4.2-.9-6.5-.9h-6.3z"/><path d="m372.9 304.3h33.1v9.9h-22.4v9.1h21.2v9.9h-21.2v9.9h23.6v9.9h-34.2v-48.7z"/><path d="m421.2 304.3h11.7l7.7 31.3h.1l10.1-31.3h10l10.1 32.1h.1l8.2-32.1h10.9l-14.2 48.8h-9.6l-10.8-33.7h-.1l-10.8 33.7h-9.3z"/><path d="m505.4 304.3h10.8v48.8h-10.8z"/><path d="m536.2 304.3h18.9c2.5 0 4.8.3 7.1.8s4.2 1.3 5.8 2.4 3 2.7 4.1 4.6 1.5 4.3 1.5 7.1c0 3.4-.9 6.3-2.7 8.7s-4.4 3.9-7.9 4.6l12.4 20.5h-12.9l-10.1-19.5h-5.3v19.5h-10.8zm10.8 20.2h6.3c1 0 2 0 3-.1 1.1-.1 2-.3 2.9-.6s1.6-.9 2.2-1.6c.6-.8.9-1.8.9-3 0-1.3-.3-2.3-.8-2.9-.5-.8-1.1-1.3-1.9-1.6s-1.6-.6-2.7-.8c-1-.1-2-.3-2.9-.3h-7v11z"/><path d="m591.6 304.3h33.1v9.9h-22.3v9.1h21.2v9.9h-21.2v9.9h23.6v9.9h-34.4z"/></g><path d="m120.3 297.7v-18.9h-75.4-18.9v18.9 56.6 18.9h18.9 37.7v-18.9h-37.7v-56.6z" fill="#00739d"/><path d="m120.3 316.6v18.8 37.8h-18.9v-37.8h-37.7v-18.8z" fill="#00739d"/></svg>