<svg enable-background="new 0 0 652 652" xmlns="http://www.w3.org/2000/svg" viewBox="20.7 265.2 599.92 114.22"><g fill="#2f2c83"><path d="m225.7 290 20.5 24.5 20.4-24.5h10.8v62.3h-12.1v-43.8h-.3l-18 22h-1.7l-18-22h-.4v43.8h-12v-62.3z"/><path d="m308.8 328h20.1l-10.5-24.7zm15.7-38 27.5 62.3h-12.7l-6.5-15.2h-27.7l-6 15.2h-12.6l25.7-62.3z"/><path d="m373.5 290v59.9c0 6.7-1.8 12-5.4 16s-8.3 6-14.2 6h-1.2c-.4 0-.8 0-1.2-.1l-.8-10.4c7.1 0 10.7-4.2 10.7-12.5v-58.9z"/><path d="m429.6 290v9.4h-28.3v16.3h27v9.4h-27v17.8h28.9v9.4h-40.9v-62.3z"/><path d="m463.1 289.2c6.1 0 11.9 1.5 17.5 4.5v10.7c-6.5-3.9-12.2-5.8-17.2-5.8-3 0-5.4.6-7.1 1.8s-2.6 2.7-2.6 4.7c0 2.3 1.6 4.5 4.8 6.5.9.6 4.3 2.3 10.3 5 5.1 2.4 8.8 5.1 11.1 8s3.4 6.5 3.4 10.6c0 5.4-1.9 9.7-5.8 13s-8.8 4.9-15 4.9c-4 0-7.4-.4-10.3-1.3s-6.1-2.4-9.7-4.5v-11.9c6.7 5.5 12.9 8.3 18.8 8.3 2.9 0 5.3-.6 7.1-1.9s2.7-3 2.7-5.1c0-2.9-1.6-5.2-4.7-7-2.6-1.4-6-3.1-10.1-5.1-4.9-2.2-8.6-4.8-11-7.8s-3.6-6.4-3.6-10.3c0-5.2 1.9-9.4 5.8-12.5 4.1-3.3 9.2-4.8 15.6-4.8"/><path d="m525 289.2c3.5 0 7 .4 10.4 1.2s7 2.2 11 4.1v11.3c-3.8-2.2-7.4-3.8-10.6-4.8-3.3-1-6.7-1.5-10.2-1.5-4.4 0-8.4.9-12 2.7s-6.3 4.4-8.3 7.7-3 7-3 11.1c0 4.2 1 7.9 2.9 11.2 2 3.3 4.7 5.8 8.3 7.6s7.6 2.7 12 2.7c3.4 0 6.7-.5 9.8-1.5s7-2.7 11.7-5.3v11.3c-4 2.1-7.8 3.6-11.1 4.5-3.4.9-7.3 1.3-11.9 1.3-6.6 0-12.4-1.3-17.6-3.9s-9.2-6.4-12.2-11.3-4.4-10.3-4.4-16.2c0-6.3 1.5-11.9 4.6-16.9 3-5 7.2-8.8 12.6-11.5 5.3-2.5 11.3-3.8 18-3.8"/><path d="m564.3 321.1c0 4.1.9 7.8 2.8 11.1s4.5 5.9 7.8 7.7 7.1 2.7 11.3 2.7c6.4 0 11.6-2 15.8-6 4.1-4 6.2-9.2 6.2-15.5 0-4.1-.9-7.9-2.8-11.2s-4.5-5.9-7.8-7.7c-3.4-1.8-7.2-2.7-11.4-2.7s-8 .9-11.4 2.7-6 4.4-7.8 7.7c-1.7 3.3-2.7 7.1-2.7 11.2m22-31.9c6.5 0 12.3 1.3 17.4 4s9.3 6.5 12.3 11.5c3.1 5 4.6 10.5 4.6 16.5 0 5.8-1.5 11.2-4.5 16.2s-7.1 8.8-12.3 11.6c-5.2 2.7-11.1 4.1-17.6 4.1-6.4 0-12.3-1.4-17.6-4.2s-9.4-6.6-12.3-11.5-4.4-10.3-4.4-16.2c0-5.7 1.5-11.1 4.4-16.1s7-8.9 12.2-11.7 11.1-4.2 17.8-4.2"/></g><path d="m62.8 289.3-22.8 42.2h-19.3l17-42.2z" fill="#d8c8e2"/><path d="m37.7 289.3 22.6 63.1h36.5l-33-63.1z" fill="#885ea8"/><path d="m134.9 265.2-38.1 87.2h-36.5l31.9-87.2z" fill="#5e3a96"/><path d="m182.7 379.4h-48.4l-42.1-114.2h42.7z" fill="#2f2c83"/></svg>