<?xml version="1.0" encoding="utf-8"?>
<!-- Generator: Adobe Illustrator 19.2.1, SVG Export Plug-In . SVG Version: 6.00 Build 0)  -->
<svg version="1.1" id="layer" xmlns="http://www.w3.org/2000/svg" xmlns:xlink="http://www.w3.org/1999/xlink" x="0px" y="0px"
	 viewBox="0 0 652 652" style="enable-background:new 0 0 652 652;" xml:space="preserve">
<style type="text/css">
	.st0{fill:#2F2C83;}
	.st1{fill:#D8C8E2;}
	.st2{fill:#885EA8;}
	.st3{fill:#5E3A96;}
</style>
<polygon class="st0" points="225.7,290 246.2,314.5 266.6,290 277.4,290 277.4,352.3 265.3,352.3 265.3,308.5 265,308.5 247,330.5 
	245.3,330.5 227.3,308.5 226.9,308.5 226.9,352.3 214.9,352.3 214.9,290 "/>
<path class="st0" d="M308.8,328h20.1l-10.5-24.7L308.8,328z M324.5,290l27.5,62.3h-12.7l-6.5-15.2h-27.7l-6,15.2h-12.6l25.7-62.3
	H324.5z"/>
<g>
	<path class="st0" d="M373.5,290v59.9c0,6.7-1.8,12-5.4,16c-3.6,4-8.3,6-14.2,6h-1.2c-0.4,0-0.8,0-1.2-0.1l-0.8-10.4
		c7.1,0,10.7-4.2,10.7-12.5V290H373.5z"/>
</g>
<polygon class="st0" points="429.6,290 429.6,299.4 401.3,299.4 401.3,315.7 428.3,315.7 428.3,325.1 401.3,325.1 401.3,342.9 
	430.2,342.9 430.2,352.3 389.3,352.3 389.3,290 "/>
<g>
	<path class="st0" d="M463.1,289.2c6.1,0,11.9,1.5,17.5,4.5v10.7c-6.5-3.9-12.2-5.8-17.2-5.8c-3,0-5.4,0.6-7.1,1.8
		c-1.7,1.2-2.6,2.7-2.6,4.7c0,2.3,1.6,4.5,4.8,6.5c0.9,0.6,4.3,2.3,10.3,5c5.1,2.4,8.8,5.1,11.1,8c2.3,2.9,3.4,6.5,3.4,10.6
		c0,5.4-1.9,9.7-5.8,13c-3.9,3.3-8.8,4.9-15,4.9c-4,0-7.4-0.4-10.3-1.3c-2.9-0.9-6.1-2.4-9.7-4.5v-11.9c6.7,5.5,12.9,8.3,18.8,8.3
		c2.9,0,5.3-0.6,7.1-1.9c1.8-1.3,2.7-3,2.7-5.1c0-2.9-1.6-5.2-4.7-7c-2.6-1.4-6-3.1-10.1-5.1c-4.9-2.2-8.6-4.8-11-7.8
		c-2.4-3-3.6-6.4-3.6-10.3c0-5.2,1.9-9.4,5.8-12.5C451.6,290.7,456.7,289.2,463.1,289.2"/>
	<path class="st0" d="M525,289.2c3.5,0,7,0.4,10.4,1.2c3.4,0.8,7,2.2,11,4.1v11.3c-3.8-2.2-7.4-3.8-10.6-4.8
		c-3.3-1-6.7-1.5-10.2-1.5c-4.4,0-8.4,0.9-12,2.7c-3.6,1.8-6.3,4.4-8.3,7.7c-2,3.3-3,7-3,11.1c0,4.2,1,7.9,2.9,11.2
		c2,3.3,4.7,5.8,8.3,7.6c3.6,1.8,7.6,2.7,12,2.7c3.4,0,6.7-0.5,9.8-1.5c3.1-1,7-2.7,11.7-5.3v11.3c-4,2.1-7.8,3.6-11.1,4.5
		c-3.4,0.9-7.3,1.3-11.9,1.3c-6.6,0-12.4-1.3-17.6-3.9c-5.2-2.6-9.2-6.4-12.2-11.3c-3-4.9-4.4-10.3-4.4-16.2
		c0-6.3,1.5-11.9,4.6-16.9c3-5,7.2-8.8,12.6-11.5C512.3,290.5,518.3,289.2,525,289.2"/>
	<path class="st0" d="M564.3,321.1c0,4.1,0.9,7.8,2.8,11.1c1.9,3.3,4.5,5.9,7.8,7.7c3.3,1.8,7.1,2.7,11.3,2.7c6.4,0,11.6-2,15.8-6
		c4.1-4,6.2-9.2,6.2-15.5c0-4.1-0.9-7.9-2.8-11.2c-1.9-3.3-4.5-5.9-7.8-7.7c-3.4-1.8-7.2-2.7-11.4-2.7c-4.2,0-8,0.9-11.4,2.7
		c-3.4,1.8-6,4.4-7.8,7.7C565.3,313.2,564.3,317,564.3,321.1 M586.3,289.2c6.5,0,12.3,1.3,17.4,4s9.3,6.5,12.3,11.5
		c3.1,5,4.6,10.5,4.6,16.5c0,5.8-1.5,11.2-4.5,16.2c-3,5-7.1,8.8-12.3,11.6c-5.2,2.7-11.1,4.1-17.6,4.1c-6.4,0-12.3-1.4-17.6-4.2
		c-5.3-2.8-9.4-6.6-12.3-11.5c-2.9-4.9-4.4-10.3-4.4-16.2c0-5.7,1.5-11.1,4.4-16.1c2.9-5,7-8.9,12.2-11.7
		C573.7,290.6,579.6,289.2,586.3,289.2"/>
</g>
<polygon class="st1" points="62.8,289.3 40,331.5 20.7,331.5 37.7,289.3 "/>
<polygon class="st2" points="37.7,289.3 60.3,352.4 96.8,352.4 63.8,289.3 "/>
<polygon class="st3" points="134.9,265.2 96.8,352.4 60.3,352.4 92.2,265.2 "/>
<polygon class="st0" points="182.7,379.4 134.3,379.4 92.2,265.2 134.9,265.2 "/>
</svg>
