<svg xmlns="http://www.w3.org/2000/svg" xmlns:xlink="http://www.w3.org/1999/xlink" xml:space="preserve" style="enable-background:new 0 0 47.2 55.1" viewBox="0 0 47.2 55.1"><defs><path id="a" d="M41.6 21.9c-.1-1.2-1-5.6-6.1-5.8H16.6v29c0 3.4-2.8 6.2-6.2 6.2S4.1 48.5 4.1 45V11.4H0v33.7c0 5.5 4.9 10 10.6 10s10.3-4.5 10.3-10c0-.2 0-.9-.1-1.2V19.8l14.5.1c.1 0 2 0 2.1 2v.4c-.1 2-2.1 2-2.1 2l-10.5-.1 4 3.9h6.6c5.1-.2 5.9-4.6 6.1-5.8 0 0 .1-.1.1-.2v-.2z"/></defs><use xlink:href="#a" style="overflow:visible"/><path d="M47.2 5.8c-.1-1.2-1-5.6-6.1-5.8H.1l3.8 3.8h37.2c.3 0 2 .2 2 2v.4c-.1 2-2.1 2-2.1 2H8.3l.1 36.6c.1 1.1 1 1.9 2 1.9s2-.8 2-1.9V11.9l28.7.1c5.1-.2 5.9-4.6 6.1-5.8v-.4z"/></svg>