<?xml version="1.0" encoding="UTF-8"?>
<svg id="Layer_4" data-name="Layer 4" xmlns="http://www.w3.org/2000/svg" xmlns:xlink="http://www.w3.org/1999/xlink" viewBox="0 0 583.19 686.82">
  <defs>
    <style>
      .cls-1 {
        clip-path: url(#clippath-1);
      }

      .cls-2 {
        fill: url(#radial-gradient);
      }

      .cls-3 {
        clip-path: url(#clippath);
      }

      .cls-4 {
        fill: url(#radial-gradient-2);
      }

      .cls-5 {
        fill: none;
      }

      .cls-6 {
        fill: #442e60;
      }
    </style>
    <clipPath id="clippath">
      <path class="cls-5" d="M513.57,272.87c-1.62-15.07-12.59-69.27-75.77-72H205.05v357.06h.06c-.02,1.38-.04,2.56-.04,3.28,0,42.57-34.51,77.09-77.08,77.09s-77.09-34.52-77.09-77.09c0-.69-.02-2.03-.05-3.67h.03V142.07H.08v402.31c-.2,2.86,.02,14.9,.02,17.81,0,68.83,60.15,124.63,130.58,124.63s127.52-55.8,127.52-124.63c0-2.91-.52-11.82-.72-14.68V246.98l179.53,.79h.02c.84,.01,25.03,.44,25.99,25.1h-.03c.03,.66,.05,1.3,.05,1.93s-.02,1.27-.05,1.93h.03c-.98,25.09-26.01,25.09-26.01,25.09l-130.23-1.61,49.31,48.52h81.7c63.18-2.74,73.37-56.94,74.99-72h.29s.76-.69,.66-1.93c.1-1.24-.66-1.93-.66-1.93h.49Z"/>
    </clipPath>
    <radialGradient id="radial-gradient" cx="304.27" cy="299.13" fx="69.58" fy="72.74" r="395.48" gradientUnits="userSpaceOnUse">
      <stop offset=".4" stop-color="#4bafca"/>
      <stop offset="1" stop-color="#7650c0"/>
    </radialGradient>
    <clipPath id="clippath-1">
      <path class="cls-5" d="M582.89,72c-1.61-15.06-11.81-69.26-74.98-72H.78L48.26,46.96H507.91v-.02c4.25,.25,24.35,2.63,25.22,25.06h-.03c.03,.66,.05,1.3,.05,1.93s-.02,1.27-.05,1.93h.03c-.97,25.1-26.01,25.1-26.01,25.1H102.67l.76,456.5h.05c.69,13.32,11.71,23.91,25.21,23.91s24.51-10.59,25.21-23.91h-.12c.33-110.06-.25-410.33-.25-410.33l354.38,.73c63.17-2.73,73.37-56.93,74.98-72,.08-.75,.14-1.39,.18-1.93-.04-.54-.1-1.18-.18-1.93Z"/>
    </clipPath>
    <radialGradient id="radial-gradient-2" cx="290.04" cy="236.22" fx="55.35" fy="9.83" r="395.48" gradientUnits="userSpaceOnUse">
      <stop offset=".4" stop-color="#4bafca"/>
      <stop offset="1" stop-color="#7650c0"/>
    </radialGradient>
  </defs>
  <g class="cls-3">
    <rect class="cls-2" x="-82.35" y="-96.42" width="786.41" height="795.48"/>
  </g>
  <g>
    <path class="cls-6" d="M583.19,73.17s-.02,.69-.12,1.93c-.04-.54-.1-1.18-.18-1.93h.3Z"/>
    <path class="cls-6" d="M583.19,77.03h-.3c.08-.75,.14-1.39,.18-1.93,.1,1.24,.12,1.93,.12,1.93Z"/>
  </g>
  <g class="cls-1">
    <rect class="cls-4" x="-96.58" y="-159.33" width="786.41" height="795.48"/>
  </g>
</svg>