<svg xmlns="http://www.w3.org/2000/svg" viewBox="-0.03 -0.02 336.05 84"><g stroke-width=".084667" transform="matrix(2.0205074 0 0 2.0205074 -44.550001 -50.59432)"><path d="m39.59692 66.47798c-.2794-.061-.688975-.19888-.910167-.30648l-.402167-.19563.03267-2.00809c1.611756.70682 2.42849.95607 3.582595.59278.423322-.13325.793528-.52025.793528-1.04868 0-.93862-.830517-1.31813-1.600077-1.95462-.832443-.6885-1.613969-1.55117-1.584368-2.79031.07475-3.12901 3.207996-3.77126 5.633649-3.0015.576416.19543 1.069035.43372 1.069035.43372l-.817629 1.73426s-.359212-.14605-.702297-.26122c-1.208937-.40582-2.010485-.36419-2.504774.1301-.463679.46368-.428992 1.25362.07728 1.75989.13758.13758.546225.45769.9081.71135 1.225928.85933 1.697914 1.59372 1.778333 2.76701.148547 2.16725-1.465325 3.5716-4.083712 3.55352-.4191-.003-.990599-.0551-1.269999-.1161zm7.5601-4.05862c.355766-1.78533 1.456852-6.78142 1.456852-6.78142h2.251039l-1.514101 7.37808c-.150667.87263.181974 1.62674 1.38701 1.63892.932337 0 1.587405-.47475 1.934627-1.40211.609948-2.49029 1.669872-7.61489 1.669872-7.61489h2.328853s-.947322 4.3032-1.407189 6.50214c-.459866 2.19894-1.37111 4.43121-4.849768 4.43121s-3.534441-2.74379-3.257195-4.15193zm43.536233 4.12446c-2.40672-.40242-3.53513-2.61227-2.95325-5.78354.47749-2.60234 2.09615-4.5668 4.22325-5.12545 1.15813-.30416 2.96037-.14668 4.08205.3567.42501.19073.48583.2462.43821.39961-.0817.26303-.78932 1.6598-.84093 1.6598-.0244 0-.23411-.0962-.46611-.21375-1.91141-.96858-3.71235-.35607-4.63704 1.57708-.4743.99156-.63457 1.79748-.59228 2.97835.0274.7647.0697 1.0181.21701 1.29917.23513.44866.6134.7642 1.0621.88598.68369.18555 2.09313.005 3.15993-.40403.0954-.0366.11706.13434.11706.92548v.97039l-.61384.17923c-1.06734.31165-2.3748.43232-3.19616.29498zm21.260497-.0331c-.59709-.11726-1.41014-.54293-1.82014-.95294-.76112-.76112-1.07376-1.6992-1.07683-3.23115-.006-3.17502 1.57512-5.77996 4.002-6.59182.92862-.31065 2.70908-.33235 3.62714-.0442.46859.14708 1.27.5147 1.27.58258 0 .0592-.75575 1.69921-.8155 1.76964-.016.0188-.28667-.0844-.60159-.22943-2.26693-1.04376-4.11835-.11256-4.93323 2.48123-.26394.84012-.32904 2.36446-.13019 3.04846.18152.62441.61001 1.08242 1.14958 1.22879.7067.19172 2.09866.0175 3.18187-.39811.0954-.0366.11706.13433.11706.92547v.97039l-.61384.17923c-1.16097.339-2.45105.43965-3.35633.26186zm9.3465.004c-1.60947-.32993-2.64639-1.41925-2.92622-3.0741-.13901-.82209-.0511-2.18478.20628-3.19798.46518-1.83118 1.3297-3.14459 2.61915-3.97914 1.61976-1.04833 4.13171-1.04564 5.46195.006 1.02408.80949 1.40719 2.04962 1.27082 4.11374-.0806 1.21934-.31142 2.08924-.83795 3.15729-.79207 1.60669-2.01399 2.60506-3.5927 2.93537-.63722.13333-1.65329.15131-2.20133.039zm2.20133-2.07154c.90939-.43711 1.69692-1.66576 1.99568-3.11351.17925-.86858.2119-2.07904.0712-2.63792-.18957-.75284-.90866-1.31209-1.69195-1.31585-.68427-.003-1.16575.22415-1.77364.83782-.82356.8314-1.23814 1.79215-1.44225 3.34228-.27423 2.08267.38652 3.14742 1.90965 3.07727.36017-.0166.72552-.0912.93133-.19009zm-61.088357 1.99018-1.50689-4.10632h-.89616l-.85998 4.10632h-2.289349s1.546619-7.23244 2.302549-10.795l2.64055.005c2.13378-.004 3.92706.91077 3.48475 3.49482-.25663 1.59505-1.10665 2.23622-2.32564 2.7029l1.90562 4.45225c1.87223-3.54569 5.56313-10.65487 5.56313-10.65487h2.83352l1.05335 10.79504-2.21601-.00004-.14251-2.53996h-3.51637l-1.26246 2.53996zm9.11384-9.0527-2.14538 4.56538h2.45575zm-9.25459 2.75838c.51363-.30101.73478-.72103.73478-1.39555 0-.83833-.42645-1.20012-1.41461-1.20012h-.57634l-.6057 2.89804.73273-.035c.60753-.029.80047-.0747 1.12913-.26734zm-37.915553-4.50067 2.237131.004-2.279773 10.79142-2.26536.00001zm2.571723 10.79499 2.321437-10.795h2.602536l2.514798 7.8824 1.647067-7.8824h2.029298l-2.291946 10.795-2.530782.004-2.638159-8.04765-1.625671 8.04333zm50.97994-10.80393 2.65432.009 2.47736 7.83166 1.68399-7.83166 2.02104.00003-2.27362 10.79497h-2.55018l-2.63374-8.09605-1.61447 8.09608h-2.0527zm20.71757.009h6.051317l-.39915 1.86267-3.76048-.00004-.539177 2.40511 3.551857.00003-.4028 1.87056-3.523837-.00004-.59877 2.794 3.791257.00004-.39747 1.86267h-6.047977zm32.507107 0h2.98165l.53928 8.128 4.08735-8.128 3.09476.0192-2.2461 10.77574-2.09004.00001 1.78709-8.20113-4.14439 8.20112-2.1006.00001-.46086-8.17035-1.69269 8.17034h-2.02968zm13.31782.00003h2.93682c2.53936 0 3.70043 1.86263 3.08223 4.26774-.60257 2.29248-2.88795 2.73841-5.22674 2.74181l-.80038 3.78542h-2.25175zm1.79859 5.0735c1.12441-.0342 1.85232-.61337 2.00318-1.38019.26359-1.1328-.29562-1.78207-1.37306-1.78834h-.54854l-.61189 3.18352zm9.06275-5.0735h2.81887l1.07913 10.79498h-2.20302l-.20899-2.54-3.48067.00005-1.23106 2.53995h-2.3885zm1.09913 1.7822-2.13366 4.48221 2.42941.0433zm4.10692 9.0128 2.2706-10.79503 2.64506.00003 2.52534 7.8943 1.64486-7.8943h2.03058l-2.25708 10.795h-2.5664l-2.63835-8.08242-1.62809 8.08238zm13.30285 0 .86011-4.11291-1.74572-6.68209h2.3226l.99125 4.19556 2.71227-4.19564 2.54897.00008-4.59426 6.70887-.85907 4.08613z" fill="#2f313f"/><path d="m25.965587 47.930729c-1.189871-.16195-2.503711-.5802-3.313763-1.05492l-.369237-.21639v-2.1115-2.11149l.529167.28979c1.822166.99785 4.167685 1.53483 5.771752 1.32137 1.309198-.17422 2.133693-.60664 2.569186-1.34745.203397-.346.231506-.48144.231107-1.11358-.000847-1.30922-.407971-1.8619-2.587844-3.51286-2.462446-1.86498-3.474282-3.23621-3.809828-5.16306-.126344-.72553-.05576-2.27059.135482-2.96575.640492-2.32814 2.400434-3.97497 4.992644-4.67175.777717-.20905.981119-.22799 2.497667-.23255 1.778576-.005 2.482473.089 3.841665.51498.774504.24272 2.169668.86484 2.169668.96748 0 .037-.308928.72679-.686505 1.53289-.377578.80609-.738773 1.58641-.802655 1.73405l-.116148.26842-.700179-.28461c-1.340935-.54508-2.132333-.73255-3.294104-.78034-.859895-.0354-1.159062-.0159-1.524.099-1.272318.40062-1.975612 1.5144-1.766721 2.79788.17015 1.04544.652974 1.59955 2.502978 2.87249 1.468656 1.01055 2.658546 2.1992 3.146369 3.14308.451707.87402.689529 1.74185.753433 2.74935.228912 3.60901-1.954481 6.29973-5.770334 7.11114-.974629.20724-3.414944.29841-4.3998.16436zm17.864666-22.61044 3.598333.0338c3.977628.0373 4.216426.0635 5.566861.61022 1.309646.53022 2.298103 1.41098 2.847087 2.53687.885189 1.81542.924277 4.45697.09611 6.49511-.61261 1.50764-2.138359 3.01065-3.803951 3.74725-1.439914.6368-2.814832.90167-5.041582.97125l-1.647808.0515-1.650277 7.91632-4.683513.00001s3.143853-14.90861 4.71874-22.36228zm4.783666 10.37896c.302683-.0701.702733-.18733.889-.26048.561826-.22066 1.348789-.83932 1.676528-1.31798.493583-.7209.597469-1.08973.603841-2.1439.0052-.85483-.01385-.971-.231528-1.41428-.265406-.54047-.595906-.85782-1.159841-1.11372-.307396-.13948-.605901-.17964-1.545167-.20788-.640291-.0192-1.164166-.0131-1.164166.0136-.43674 2.29205-.912088 4.06975-1.354667 6.50389 0 .11986 1.703411.0757 2.286-.0592zm13.490844-10.37897h4.65605l-4.78014 22.36227h-4.664448zm10.06484.0103h5.47771l5.16217 16.29834 3.44427-16.256 4.20581-.0453-.0383.20046-4.67731 22.15454h-5.26391l-5.49284-16.91882-3.3491 16.91882h-4.21017zm23.70234 0h5.482027l5.21017 16.40711 3.39789-16.36477 4.18469.0197-4.69445 22.28998h-5.26597l-5.492437-16.91885-3.34046 16.91885h-4.21883zm27.918837-.0103h5.82914l2.24036 22.36229h-4.55899l-.39272-5.3358-7.21695.0441-2.61723 5.29166h-4.91083c3.90051-7.4612 7.73447-14.89689 11.62722-22.36229zm2.33545 3.3549-4.51759 9.69406h5.06792zm13.18403-3.34461 4.69457-.0103-2.23897 10.47461 8.56024-10.46433 5.5453-.0103-9.02544 10.71011 4.3802 11.65217h-5.18103l-3.29211-8.93233-1.84982 1.09978-1.65221 7.83255h-4.67974zm19.22436 0 12.58884-.0103-.84314 3.84145h-7.8592l-1.03125 4.94069 7.30214.016-.82972 3.86985-7.23952-.00001-1.2649 5.698 7.80768.10168-.0443.1905-.77297 3.70416h-12.51282c1.56579-7.45079 3.13266-14.90136 4.69916-22.352zm16.99726-.0103s1.36275-.0207 3.80139 0c3.75642.032 3.78053.0643 4.57895.28035 1.02839.27831 1.76971.61899 2.42186 1.11299 1.16719.88414 1.80371 2.15597 1.96963 3.9355.31671 3.39659-1.27768 6.07226-4.37997 7.3504-.26299.10835-.47151.22634-.46337.26219 1.34274 3.31922 3.94753 9.42085 3.94753 9.42085l-5.08875.00001-3.11428-8.49665-1.89763.00001-1.77558 8.49663h-4.70033c1.54961-7.42835 3.1426-14.9355 4.70055-22.36228zm5.2241 9.78252c.66882-.13815 1.30429-.41519 1.77478-.77374.63323-.48258 1.04182-1.50575 1.04182-2.60887 0-1.10005-.39155-1.79315-1.25056-2.21368-.44828-.21945-.82833-.31612-1.93263-.34479l-.92976.00001c-.48185 2.06723-1.32456 6.07289-1.32456 6.07289l.98695.002c.56927 0 1.26028-.0566 1.63401-.13377z" fill="#321e79"/></g></svg>