<svg viewBox="0 0 146 42" fill="none" xmlns="http://www.w3.org/2000/svg" class="w-36"><path fill-rule="evenodd" clip-rule="evenodd" d="M17.0258 0.75H16.9588C25.9671 0.75 33.2698 8.01997 33.2698 16.9884C33.2698 25.9344 26.0033 33.1908 17.0258 33.2269V25.2073L17.0953 25.207C21.5923 25.1342 25.2148 21.4823 25.2148 16.9884C25.2148 12.4712 21.5548 8.80501 17.0258 8.76927V0.75Z" fill="#00B7D1"></path><path fill-rule="evenodd" clip-rule="evenodd" d="M17.0408 8.77313V16.7921H8.75178V33.2311H17.0408V41.25H0.730164V8.77313H17.0408Z" fill="#00B7D1"></path><mask id="mask0_687_2396" style="mask-type:alpha" maskUnits="userSpaceOnUse" x="41" y="12" width="105" height="21"><path d="M41.6279 12.499H145.896V32.1809H41.6279V12.499Z" fill="white"></path></mask><g mask="url(#mask0_687_2396)"><path fill-rule="evenodd" clip-rule="evenodd" d="M45.8165 28.1946V23.2864H48.4932C52.5826 23.2864 54.962 21.3681 54.962 17.8804C54.962 14.4173 52.5826 12.499 48.4932 12.499H41.6279V28.1946H45.8165ZM48.2949 19.8983H45.8165V15.8871H48.2949C50.1784 15.8871 50.8974 16.5848 50.8974 17.9053C50.8974 19.2255 50.1784 19.8983 48.2949 19.8983ZM65.3711 28.4439C66.5114 28.4439 67.3043 28.12 67.8745 27.7212V25.5786C67.5523 25.7032 67.3043 25.7529 66.9825 25.7529C66.5608 25.7529 66.3132 25.5039 66.3132 24.9311V21.1439C66.3132 18.0546 64.1569 16.7841 61.2323 16.7841C57.9112 16.7841 56.102 18.4781 55.7549 20.9199L59.4728 21.1688C59.6461 20.3468 60.0923 19.7737 60.9847 19.7737C61.9509 19.7737 62.3726 20.3218 62.3726 21.2435V21.4181L59.2742 21.9412C56.8703 22.3647 55.3336 23.2864 55.3336 25.4293C55.3336 27.3226 56.7464 28.4439 58.9026 28.4439C60.6625 28.4439 61.9264 27.7711 62.5708 26.4753C62.9424 27.7461 64.0081 28.4439 65.3711 28.4439ZM60.3154 25.8528C59.6461 25.8528 59.2 25.479 59.2 24.9062C59.2 24.1834 59.7701 23.8845 60.7367 23.6853L62.3726 23.3864V23.5606C62.3726 25.0058 61.4554 25.8528 60.3154 25.8528ZM72.9305 28.4935C74.4424 28.4935 75.4087 28.12 76.2516 27.4972V24.8808C75.5824 25.1554 75.0374 25.2547 74.5412 25.2547C73.7238 25.2547 73.2776 24.8809 73.2776 23.9342V19.8733H76.1525V17.083H73.2776V14.0187H70.7494L70.3778 15.4636C70.105 16.4852 69.758 17.083 68.6428 17.2573L67.8251 17.3819V19.8733H69.3121V25.1051C69.3121 27.7212 71.0716 28.4935 72.9305 28.4935ZM81.8033 28.1946V22.7386C81.8033 21.0692 82.3486 19.9729 83.7116 19.9729C84.9262 19.9729 85.3475 20.7703 85.3475 22.2901V28.1946H89.3624V21.2188C89.3624 18.9017 88.3961 16.7841 85.372 16.7841C83.7116 16.7841 82.398 17.5315 81.8033 18.7521V12.499H77.7884V28.1946H81.8033ZM95.4347 32.1809V26.3013C95.9797 27.5965 97.2191 28.4935 99.078 28.4935C102.325 28.4935 103.985 25.9275 103.985 22.639C103.985 19.3752 102.325 16.7841 99.078 16.7841C97.2191 16.7841 95.9797 17.6811 95.4347 19.0016V17.083H91.4195V32.1809H95.4347ZM97.6653 25.3796C96.3022 25.3796 95.4347 24.333 95.4347 22.7136V22.564C95.4347 20.9696 96.3022 19.9233 97.6653 19.9233C99.2269 19.9233 99.9455 21.0445 99.9455 22.639C99.9455 24.2584 99.2269 25.3796 97.6653 25.3796ZM111.098 28.4935C114.692 28.4935 117.146 26.1021 117.146 22.639C117.146 19.2006 114.692 16.7841 111.098 16.7841C107.48 16.7841 105.051 19.2006 105.051 22.639C105.051 26.1021 107.48 28.4935 111.098 28.4935ZM111.098 25.454C109.686 25.454 109.091 24.308 109.091 22.639C109.091 20.9696 109.686 19.8237 111.098 19.8237C112.486 19.8237 113.106 20.9696 113.106 22.639C113.106 24.308 112.486 25.454 111.098 25.454ZM118.707 16.0367H122.772V12.499H118.707V16.0367ZM118.732 28.1946H122.747V17.083H118.732V28.1946ZM128.943 28.1946V22.7386C128.943 21.0692 129.488 19.9729 130.851 19.9729C132.066 19.9729 132.487 20.7703 132.487 22.2901V28.1946H136.502V21.2188C136.502 18.9017 135.536 16.7841 132.512 16.7841C130.851 16.7841 129.538 17.5315 128.943 18.7521V17.083H124.928V28.1946H128.943ZM142.574 28.4935C144.086 28.4935 145.053 28.12 145.896 27.4972V24.8808C145.226 25.1554 144.681 25.2547 144.185 25.2547C143.367 25.2547 142.921 24.8809 142.921 23.9342V19.8733H145.796V17.083H142.921V14.0187H140.393L140.022 15.4636C139.749 16.4852 139.402 17.083 138.287 17.2573L137.469 17.3819V19.8733H138.956V25.1051C138.956 27.7212 140.716 28.4935 142.574 28.4935Z" fill="#151547"></path></g></svg>