<?xml version="1.0" encoding="UTF-8"?> <svg xmlns="http://www.w3.org/2000/svg" xmlns:xlink="http://www.w3.org/1999/xlink" version="1.1" id="Layer_2" x="0px" y="0px" viewBox="0 0 273 73" style="enable-background:new 0 0 273 73;" xml:space="preserve"> <style type="text/css"> .st0{fill:#1C66DB;} .st1{fill:#41E6B2;} </style> <g> <g id="type_00000073000843025870145320000016655212487242286513_"> <path id="type_PathItem__00000117663238274407139210000008792238401276319909_" d="M199.7,36.6c-2-0.1-3.8,1-4.7,2.7V37h-2.6v15.6 h2.7v-7.3c0-3.5,1.1-5.9,4.6-5.9c0.5,0,1,0.1,1.6,0.2v-2.8C200.7,36.7,200.2,36.6,199.7,36.6z"></path> <path id="type_CompoundPathItem__00000031178943690697899020000002606947067283177130_" d="M182.2,36.6c-4.7,0-7.7,3.7-7.7,8.3 c0,4.9,3.2,8,7.9,8c2.4,0,4.7-1,6.2-2.8l-1.4-2.1c-1.2,1.5-3,2.4-5,2.4c-2.6,0-5-1.7-5.1-4.8v0h12.5v-0.8 C189.6,40.2,187.1,36.6,182.2,36.6z M177.3,43.5c0.4-2.6,2-4.3,4.9-4.3c2.8,0,4.3,1.7,4.5,4.3H177.3z"></path> <polygon id="type_PathItem_2_00000016753637548269451180000012355125857925722293_" points="171.8,37 167,47.4 162,37 158.7,37 165.5,50.5 161.7,58.8 164.6,58.8 174.6,37 "></polygon> <path id="type_CompoundPathItem_2_00000075841843112410954080000017711288712264915644_" d="M151.6,36.6c-3.8,0-5.7,1.6-6.3,3.9 l2.4,1.3c0.3-1.9,1.9-2.8,4-2.8c2.3,0,3.4,1,3.4,2.6V42c0,0.5-0.3,0.8-1,0.8l-4.4,0.4c-2.9,0.3-5,1.9-5,4.8c0,2.8,1.9,4.8,5.3,4.8 c2.2,0,4-0.9,5.1-2.5v2.2h2.7V42.5C157.8,38.8,155.9,36.6,151.6,36.6z M155.2,46.3c0,2-1.7,4.1-4.7,4.1c-1.9,0-2.9-0.9-2.9-2.3 c0-1.2,0.8-2.1,2.5-2.3l5.1-0.6L155.2,46.3z"></path> <polygon id="type_PathItem_3_00000080914818247756466860000000654045389143339695_" points="132.5,30.8 129.6,30.8 129.6,52.6 143.3,52.6 143.3,49.8 132.4,49.8 "></polygon> <path id="type_PathItem_4_00000126300152283027746870000008314385845207659174_" d="M122.2,48.4v-9h4.3V37h-4.3v-4.2h-2.7V37h-3.1 v2.3h3.1v8.9c0,3.3,1.5,4.5,4.3,4.5c0.9,0,1.8-0.1,2.7-0.4V50c-0.8,0.2-1.7,0.3-2.5,0.3C122.7,50.3,122.2,49.6,122.2,48.4z"></path> <path id="type_PathItem_5_00000158745975211188054240000015630253454100736397_" d="M108.5,39.1c2.1,0,3.4,1,4,2.3l2.2-1.4 c-1.2-2.1-3.1-3.4-6.2-3.4c-3.6,0-5.8,1.9-5.8,4.6c0,3.4,3.3,4.2,5.9,4.7c2.1,0.4,3.4,0.8,3.4,2.3c0,1.5-1.2,2.1-3.2,2.1 c-1.9,0-3.8-0.6-4.7-2.6l-2.2,1.4c1.2,2.6,4,3.6,6.9,3.6c3.4,0,6-1.5,6-4.8c0-3.6-3-4.1-5.6-4.7c-2.1-0.5-3.7-0.9-3.7-2.3 C105.4,39.8,106.8,39.1,108.5,39.1z"></path> <path id="type_PathItem_6_00000094603605923806066880000014672169692815857033_" d="M97.3,44.3c0,3.3-0.9,6.2-4.4,6.2 c-2.8,0-3.6-1.8-3.6-4.2V37h-2.8v9.2c0,3.9,1.5,6.7,5.8,6.7c2.3,0,3.8-0.9,5-2.6v2.2h2.6V37h-2.7V44.3z"></path> <path id="type_PathItem_7_00000150800632653072822520000005911091856228075142_" d="M77.4,39.3V37h-2.6v15.6h2.7v-7.3 c0-3.5,1.1-5.9,4.6-5.9c0.5,0,1,0.1,1.6,0.2v-2.8c-0.5-0.1-1-0.2-1.5-0.2C80.2,36.6,78.3,37.6,77.4,39.3z"></path> <polygon id="type_PathItem_8_00000053526818028713021470000016492407109510775186_" points="76.1,30.8 56.1,30.8 56.1,33.6 64.6,33.6 64.6,52.6 67.5,52.6 67.5,33.6 76.1,33.6 "></polygon> </g> <g id="logoMark_00000182500307249829735510000003338554353168160151_"> <path id="logoMark_PathItem__00000023960007412323382830000004248161651989575808_" class="st0" d="M45.4,30.7h-11 c-1.3,0-2.4,1.1-2.4,2.4v21.2l-2.3-1.7V38.2c0-1.1-0.5-2.1-1.4-2.8L18.8,28v-5.3c0-0.9,0.8-1.7,1.7-1.7c0,0,0,0,0,0h12.3 L45.4,30.7z"></path> <path id="logoMark_PathItem_2_00000052100914279695774120000011467204625289790106_" class="st1" d="M28.8,37.9L28.8,37.9 C28.8,38,28.8,37.9,28.8,37.9L28.8,37.9c-0.1-0.6-1.3-0.9-1.9-0.9H15.4L2,26.7h12.8c0.4,0,0.7,0.1,1,0.3l12,9.2 c0.1,0.1,0.1,0.1,0.2,0.2C28.4,36.8,28.7,37.3,28.8,37.9z"></path> <polygon id="logoMark_PathItem_3_00000034799985822952827860000000314097640302549171_" class="st1" points="28.8,38.1 28.8,59.9 15.4,49.7 15.4,38.1 "></polygon> </g> </g> </svg> 