<svg enable-background="new 0 0 300 80" viewBox="0 0 300 80" xmlns="http://www.w3.org/2000/svg"><g fill="#2d3a45"><path d="m77 41.5v6.4h14.9v5.7h-14.9v11.8h-6.4v-29.6h22.9v5.7z"/><path d="m107.7 41.5v5.9h14.9v5.7h-14.9v6.5h16.5v5.7h-22.9v-29.5h22.9v5.7z"/><path d="m139.5 41.5v5.9h14.9v5.7h-14.9v6.5h16.5v5.7h-22.9v-29.5h22.9v5.7z"/><path d="m162.4 61 3.7-4.4c2.8 2.4 6 3.9 9.8 3.9 3.2 0 4.8-1.5 4.8-3.3 0-2.1-1.7-2.8-6.3-3.8-6.3-1.4-10.7-3.2-10.7-8.9 0-5.5 4.5-9.2 11-9.2 4.8 0 8.6 1.5 11.6 4.1l-3.3 4.6c-2.6-2.1-5.6-3.3-8.5-3.3-2.7 0-4.4 1.4-4.4 3.2 0 2.2 1.8 2.9 6.4 3.9 6.4 1.4 10.6 3.3 10.6 8.8 0 5.7-4.3 9.4-11.5 9.4-5.1 0-9.7-1.8-13.2-5z"/><path d="m194.8 35.8h6.4v29.7h-6.4z"/><path d="m210 35.8h15c5.3 0 9 3.1 9 7.4 0 3-1.5 5.2-4.1 6.6 3.5 1.6 5.4 4.3 5.4 7.6 0 4.8-4.1 8-9.7 8h-15.6zm13.4 11.9c2.4 0 4.1-1.4 4.1-3.3s-1.7-3.2-4.1-3.2h-7.1v6.5zm1 12.3c2.5 0 4.4-1.5 4.4-3.6s-1.8-3.6-4.4-3.6h-8.1v7.2z"/><path d="m264.2 59.7v5.7h-21.2v-29.6h6.4v23.9z"/><path d="m278 41.5v5.9h14.9v5.7h-14.9v6.5h16.5v5.7h-22.9v-29.5h22.9v5.7z"/></g><path d="m13.9 33.7 16.7-11.7c1.1-.8 2.5-.8 3.6 0l24.7 17.3v-3.3c0-3-1.5-5.9-4-7.7l-17.2-12c-3.2-2.3-7.5-2.3-10.7 0l-17.2 12c-2.5 1.7-4 4.6-4 7.7v20l13.8-9.6c.5-.3 1.1-.3 1.5 0l5.9 4.1c3.2 2.3 7.5 2.3 10.7 0l5.9-4.1c.5-.3 1.1-.3 1.5 0l5.7 4c.8.6 1.3 1.5 1.3 2.6v6.3h-46.3v1.3c0 3 2.4 5.4 5.4 5.4h42.2c3 0 5.4-2.4 5.4-5.4v-10c0-1.7-.8-3.3-2.2-4.3l-23.6-16.6c-.4-.3-.8-.3-1.2 0l-5.2 3.7 8.3 5.8 3.7 2.6-4.4 3c-1.1.8-2.5.8-3.6 0l-9.6-6.7c-.4-.3-.8-.3-1.2 0l-7.2 5.1v-6.9c-.1-1.1.4-2.1 1.3-2.6z" fill="#63c"/></svg>