<?xml version="1.0" encoding="utf-8"?>
<!-- Generator: Adobe Illustrator 25.4.1, SVG Export Plug-In . SVG Version: 6.00 Build 0)  -->
<svg version="1.1" id="Layer_1" xmlns="http://www.w3.org/2000/svg" xmlns:xlink="http://www.w3.org/1999/xlink" x="0px" y="0px"
	 viewBox="0 0 300 80" style="enable-background:new 0 0 300 80;" xml:space="preserve">
<style type="text/css">
	.st0{fill:#2D3A45;}
	.st1{fill:#6633CC;}
</style>
<g>
	<path class="st0" d="M77,41.5v6.4h14.9v5.7H77v11.8h-6.4V35.8h22.9v5.7H77z"/>
	<path class="st0" d="M107.7,41.5v5.9h14.9v5.7h-14.9v6.5h16.5v5.7h-22.9V35.8h22.9v5.7H107.7z"/>
	<path class="st0" d="M139.5,41.5v5.9h14.9v5.7h-14.9v6.5h16.5v5.7h-22.9V35.8h22.9v5.7H139.5z"/>
	<path class="st0" d="M162.4,61l3.7-4.4c2.8,2.4,6,3.9,9.8,3.9c3.2,0,4.8-1.5,4.8-3.3c0-2.1-1.7-2.8-6.3-3.8
		c-6.3-1.4-10.7-3.2-10.7-8.9c0-5.5,4.5-9.2,11-9.2c4.8,0,8.6,1.5,11.6,4.1l-3.3,4.6c-2.6-2.1-5.6-3.3-8.5-3.3
		c-2.7,0-4.4,1.4-4.4,3.2c0,2.2,1.8,2.9,6.4,3.9c6.4,1.4,10.6,3.3,10.6,8.8c0,5.7-4.3,9.4-11.5,9.4C170.5,66,165.9,64.2,162.4,61z"
		/>
	<path class="st0" d="M194.8,35.8h6.4v29.7h-6.4V35.8z"/>
	<path class="st0" d="M210,35.8h15c5.3,0,9,3.1,9,7.4c0,3-1.5,5.2-4.1,6.6c3.5,1.6,5.4,4.3,5.4,7.6c0,4.8-4.1,8-9.7,8H210V35.8z
		 M223.4,47.7c2.4,0,4.1-1.4,4.1-3.3c0-1.9-1.7-3.2-4.1-3.2h-7.1v6.5H223.4z M224.4,60c2.5,0,4.4-1.5,4.4-3.6c0-2.1-1.8-3.6-4.4-3.6
		h-8.1V60H224.4z"/>
	<path class="st0" d="M264.2,59.7v5.7H243V35.8h6.4v23.9H264.2z"/>
	<path class="st0" d="M278,41.5v5.9h14.9v5.7H278v6.5h16.5v5.7h-22.9V35.8h22.9v5.7H278z"/>
</g>
<path class="st1" d="M13.9,33.7L30.6,22c1.1-0.8,2.5-0.8,3.6,0l24.7,17.3V36c0-3-1.5-5.9-4-7.7l-17.2-12c-3.2-2.3-7.5-2.3-10.7,0
	l-17.2,12c-2.5,1.7-4,4.6-4,7.7v20l13.8-9.6c0.5-0.3,1.1-0.3,1.5,0l5.9,4.1c3.2,2.3,7.5,2.3,10.7,0l5.9-4.1c0.5-0.3,1.1-0.3,1.5,0
	l5.7,4c0.8,0.6,1.3,1.5,1.3,2.6v6.3H5.8v1.3c0,3,2.4,5.4,5.4,5.4h42.2c3,0,5.4-2.4,5.4-5.4v-10c0-1.7-0.8-3.3-2.2-4.3L33,29.7
	c-0.4-0.3-0.8-0.3-1.2,0l-5.2,3.7l8.3,5.8l3.7,2.6l-4.4,3c-1.1,0.8-2.5,0.8-3.6,0L21,38.1c-0.4-0.3-0.8-0.3-1.2,0l-7.2,5.1v-6.9
	C12.5,35.2,13,34.2,13.9,33.7z"/>
</svg>
