<svg xmlns="http://www.w3.org/2000/svg" id="Layer_1" viewBox="0 0 140.71 60"><defs><style>.cls-1{fill:#ec6c24;}.cls-2{fill:#212945;}.cls-3{fill:#3ca1da;}</style></defs><g id="Group_23"><g id="safely"><g id="Group_20"><path id="Path_29" class="cls-2" d="m39.92,31.78c-.7-.91-1.8-1.42-2.95-1.39-.44,0-.87.11-1.25.3-.4.19-.64.61-.61,1.05,0,.4.25.76.63.9.51.22,1.05.39,1.59.51l2.07.48c.72.17,1.42.44,2.07.8.64.36,1.19.86,1.59,1.47.45.75.67,1.62.63,2.49.04.93-.2,1.84-.7,2.63-.46.68-1.07,1.25-1.78,1.66-.76.43-1.58.73-2.44.88-.88.17-1.78.25-2.68.25-1.18,0-2.36-.17-3.49-.49-1.13-.3-2.16-.91-2.98-1.74l3.08-3.42c.43.55.96,1,1.58,1.34.62.32,1.32.47,2.02.46.54,0,1.08-.08,1.59-.25.43-.11.72-.49.71-.93,0-.42-.24-.8-.63-.97-.51-.24-1.04-.43-1.59-.54-.64-.15-1.33-.31-2.07-.48-.72-.16-1.41-.42-2.07-.76-.64-.34-1.19-.83-1.59-1.44-.45-.75-.67-1.62-.63-2.49-.02-.87.18-1.74.59-2.51.38-.69.92-1.28,1.56-1.73.67-.46,1.43-.8,2.22-1,.83-.21,1.68-.32,2.54-.32,1.11,0,2.22.16,3.29.48,1.07.3,2.05.88,2.81,1.7l-3.12,3.08Z"></path><path id="Path_30" class="cls-2" d="m55.77,41.34h-.07c-.53.85-1.32,1.52-2.25,1.9-.94.38-1.95.58-2.97.58-.75,0-1.5-.11-2.22-.32-.68-.2-1.32-.53-1.88-.97-.54-.43-.98-.97-1.29-1.59-.33-.69-.49-1.44-.48-2.2-.03-.83.15-1.66.52-2.41.34-.65.83-1.2,1.42-1.63.62-.44,1.32-.78,2.05-1,.78-.24,1.58-.42,2.39-.52.82-.11,1.65-.18,2.47-.2.82-.02,1.59-.03,2.29-.03.03-.83-.32-1.63-.97-2.15-.64-.53-1.45-.82-2.29-.8-.79,0-1.58.17-2.29.52-.7.36-1.33.85-1.85,1.44l-2.71-2.78c.96-.89,2.09-1.56,3.32-1.98,1.26-.44,2.59-.66,3.93-.66,1.25-.04,2.5.15,3.68.56.9.33,1.69.9,2.3,1.64.6.78,1.01,1.69,1.2,2.66.24,1.2.35,2.42.34,3.64v8.37h-4.67v-2.07Zm-1.25-5.15c-.38,0-.86.02-1.44.05-.56.03-1.12.13-1.66.29-.5.14-.96.38-1.36.71-.38.33-.59.82-.56,1.32-.03.57.28,1.09.78,1.36.49.29,1.06.44,1.63.44.49,0,.97-.06,1.44-.2.44-.12.86-.32,1.24-.58.36-.24.65-.57.86-.95.22-.42.33-.88.32-1.36v-1.09h-1.25Z"></path></g><g id="Group_21"><path id="Path_31" class="cls-2" d="m64.54,31h-3.36v-4.07h3.36v-2.92c0-.86.07-1.72.24-2.56.14-.77.46-1.49.92-2.12.51-.65,1.18-1.15,1.95-1.44,1.07-.39,2.2-.57,3.34-.53.52,0,1.03.02,1.52.07.49.04.98.12,1.46.24l-.24,4.3c-.26-.1-.54-.19-.81-.25-.28-.06-.56-.09-.85-.08-.65-.05-1.3.14-1.83.53-.49.6-.71,1.38-.61,2.15v2.61h3.76v4.07h-3.76v12.4h-5.08v-12.4Z"></path><path id="Path_32" class="cls-2" d="m89.33,40.56c-.82,1.04-1.87,1.87-3.08,2.41-1.21.56-2.53.85-3.86.85-1.22,0-2.43-.2-3.58-.61-1.08-.38-2.07-.98-2.91-1.74-.83-.77-1.5-1.7-1.95-2.73-.95-2.28-.95-4.84,0-7.12.45-1.03,1.12-1.96,1.95-2.73.85-.77,1.84-1.36,2.91-1.74,1.15-.41,2.36-.62,3.58-.61,1.1-.01,2.19.19,3.2.61.94.39,1.77.99,2.44,1.74.69.8,1.21,1.73,1.54,2.73.37,1.15.56,2.35.54,3.56v1.59h-11.79c.16.9.63,1.72,1.32,2.32.7.58,1.59.89,2.51.86.75.02,1.48-.17,2.12-.56.59-.38,1.1-.87,1.51-1.44l3.56,2.61Zm-4.3-7.25c.04-.82-.27-1.62-.85-2.2-.59-.61-1.42-.95-2.27-.91-.51-.01-1.02.08-1.49.27-.4.17-.78.4-1.1.7-.3.28-.54.61-.71.98-.17.37-.27.76-.29,1.17h6.71Z"></path><path id="Path_33" class="cls-2" d="m91.04,17.79h5.08v25.62h-5.08v-25.62Z"></path><path id="Path_34" class="cls-2" d="m108.03,47.29c-.34.88-.67,1.66-.98,2.34-.29.64-.7,1.22-1.2,1.71-.53.49-1.16.85-1.85,1.05-.96.26-1.95.38-2.95.36-1.29,0-2.57-.2-3.8-.61l.68-4.17c.75.33,1.55.51,2.37.51.47.01.94-.05,1.39-.19.34-.11.65-.29.9-.54.25-.25.45-.54.59-.86.16-.34.33-.73.51-1.19l.37-.95-7.22-16.61h5.49l4.24,10.88h.07l3.63-10.88h5.22l-7.46,19.15Z"></path></g></g><g id="_"><g id="Group_22"><path id="Path_35" class="cls-2" d="m108.39,49.26c0-.27.05-.54.16-.79.1-.24.25-.45.43-.63.18-.18.4-.32.63-.42.49-.2,1.04-.2,1.53,0,.23.1.45.24.63.42.18.18.33.39.43.63.21.5.21,1.07,0,1.58-.1.24-.25.45-.43.63-.18.18-.4.32-.63.42-.49.2-1.04.2-1.53,0-.23-.1-.45-.24-.63-.42-.38-.37-.59-.88-.59-1.42Zm.35,0c0,.23.04.46.13.67.08.2.2.38.35.54.15.15.32.27.52.36.2.09.42.13.64.13.22,0,.44-.04.64-.13.19-.08.37-.21.52-.36.15-.15.27-.34.35-.54.17-.43.17-.91,0-1.34-.08-.2-.2-.38-.35-.54-.15-.15-.32-.27-.52-.36-.2-.09-.42-.13-.64-.13-.22,0-.44.04-.64.13-.19.08-.37.21-.52.36-.15.16-.27.34-.35.54-.09.21-.13.44-.13.67Zm.88-1.16h.88c.54,0,.81.22.81.66.01.17-.05.34-.18.46-.12.1-.28.16-.44.17l.67,1.02h-.38l-.63-1h-.38v1h-.35v-2.32Zm.35,1.04h.36c.08,0,.15,0,.23,0,.07,0,.14-.02.2-.05.06-.02.1-.07.14-.12.04-.07.06-.14.05-.22,0-.07-.01-.13-.05-.19-.03-.05-.07-.08-.12-.11-.05-.03-.11-.04-.17-.05-.06,0-.12-.01-.18-.01h-.46v.75Z"></path></g></g></g><g id="Group_24"><path id="Path_36" class="cls-1" d="m20.04,55c-.01-.2-.02-.4-.03-.6-.04.12-.11.23-.19.32-.06.14.09.19.22.28Z"></path><path id="Path_37" class="cls-1" d="m19.98,53.73s-.04-.06-.07-.08c.03.06.05.13.07.19,0-.04,0-.07,0-.11Z"></path><path id="Path_38" class="cls-1" d="m19.71,52.81c-.01.18.02.36.08.53.03-.18,0-.37-.08-.53Z"></path><path id="Path_39" class="cls-1" d="m19.91,53.64h0c-.04-.1-.08-.2-.12-.3-.03.12-.07.22-.15.32.09-.07.18-.12.26-.02Z"></path><path id="Path_40" class="cls-1" d="m19.44,53.88s.05-.05.07-.07c-.03.02-.04.05-.07.07Z"></path><path id="Path_41" class="cls-1" d="m19.51,53.8s.09-.09.13-.14c-.05.04-.09.09-.13.14Z"></path><path id="Path_42" class="cls-1" d="m17.79,53.3c-.27-.4-.47-.84-.6-1.31-.16-.19.5-.6.33-.79-.23-.47-1.2-1.63-1.09-.9.21,1.1.46,1.8.68,2.78.34.78.72,1.52,1.04,2.32.04.22.04.45,0,.67.07-.29.13-.59.19-.93.13-.44-.73-.87-.94-1.52-.08-.09.54-.13.38-.33Z"></path><path id="Path_43" class="cls-1" d="m20.14,59.44l-.24-.29c.4-.51.17-.98-.06-1.45-.1.08-.19.17-.29.25.07.27.24.29.35.03-.28.52-.35,1.12-.2,1.69.17-.05.37-.07.43-.23Z"></path><path id="Path_44" class="cls-1" d="m19.78,60h.01c-.03-.12-.06-.23-.09-.33-.02,0-.04.01-.05.02.04.1.08.21.12.31Z"></path><path id="Path_45" class="cls-1" d="m18.32,46.42c.09-.09.15-.2.19-.32,0-.19-.02-.37-.03-.56-.02-.06-.04-.13-.07-.19h0c-.08-.1-.18-.06-.26.01-.04.05-.09.1-.14.15.04-.05.09-.1.14-.15.07-.09.12-.2.14-.32-.03-.08-.05-.15-.06-.23.02.06.04.12.07.19,0,.01,0,.03,0,.04.03.08.06.16.1.24h0l.02.06s.04.06.07.08c-.02-.43-.03-.85-.05-1.28-.03-.1-.05-.19-.08-.26-.12-.3-.23-.59.05-.81v-.23s-.03.03-.05.05c.01-.03.03-.06.05-.09,0-.32-.02-.64-.02-.97-.01-.63-.03-1.27-.04-1.92-.05-4.2-.53-8.03-.7-12.38-.07-2.36-.04-4.63.08-6.88.26-4.47-1.01-8.39.09-13,.37-1.76-.27-4.89-.51-6.53-1.28-2.09-3.83-.66-3.97-.54-2.08,1.56-.83,2.47-1.72,5.19.57-1.44,1.48,1.55.17,3.4-2.11,2.82.19,6.28-.08,9.51,0,.87.07,1.73.18,2.59-.28,4.99,1.22,9.44,1.59,14.62.26,1.26.7,2.48,1.3,3.62.08.81.1,1.63.06,2.44.12.98.4,1.93.81,2.83-.22-.98-.47-1.68-.68-2.78-.12-.73.86.43,1.09.89.16.19-.5.6-.33.79.13.47.33.91.6,1.31.16.19-.47.24-.39.33.21.65,1.07,1.07.94,1.52-.06.33-.12.63-.19.93-.02.18-.02.37.02.55.07.11.13.23.2.34.47.88.9,1.79,1.27,2.71l.05-.02c-.15-.57-.08-1.17.2-1.69-.11.26-.29.25-.36-.03l.29-.25c.23.47.46.94.06,1.45,0,0,.16.19.24.29-.07.16-.27.18-.43.23.02.11.05.21.08.32.25-.31.46-.65.61-1.02-.17-1.38-.28-2.69-.36-3.97-.14-.09-.29-.14-.23-.27Zm-.24-6.79c.31.36.09.72-.2,1.04-.14-.36-.06-.76.2-1.04Z"></path><path id="Path_46" class="cls-1" d="m11.59,5.78c-.03.08-.06.15-.08.23.03-.08.05-.16.08-.23Z"></path></g><g id="Group_25"><path id="Path_47" class="cls-3" d="m129.73,8.62l-1.38-.47c.23.12.44.27.63.44.23.12.5.13.74.03Z"></path><path id="Path_48" class="cls-3" d="m126.83,7.66h-.23c.16.02.32.05.48.08l-.25-.08Z"></path><path id="Path_49" class="cls-3" d="m124.59,7.23c.41.14.83.24,1.25.31-.4-.16-.82-.26-1.25-.31Z"></path><path id="Path_50" class="cls-3" d="m126.59,7.66h.01c-.25-.04-.5-.07-.76-.11.23.09.45.21.65.36-.12-.13-.17-.24.1-.25Z"></path><path id="Path_51" class="cls-3" d="m126.49,7.9c.12.12.33.27.39.34-.12-.12-.25-.24-.39-.34Z"></path><path id="Path_52" class="cls-3" d="m127.47,9.96c-.73.04-1.47.01-2.19-.08-.26,0-.04-.59-.55-.58-1.1-.05-2.19-.18-3.26-.39-.31-.06-.59-.21-.81-.43-.22-.22-.51-.36-.82-.4-1.19-.08-4.27.12-2.55.45,1.29.24,2.38.38,3.41.57s2.04.4,3.2.65l2.87.35c.95.14,1.9.32,2.87.51.51.15,1.01.33,1.5.54-.62-.3-1.25-.6-1.96-.93-.54-.22-1.13-.31-1.71-.26Z"></path><path id="Path_53" class="cls-3" d="m139.7,12.52l-.79-.07c-.94-.72-2.05-1.18-3.23-1.32l.38.48c.64.2.78.07.26-.27,1.1.78,2.32,1.38,3.61,1.76-.01-.19.07-.36-.24-.58Z"></path><path id="Path_54" class="cls-3" d="m140.69,13.32l-.75-.23s0,.04,0,.06l.76.19-.02-.02Z"></path><path id="Path_55" class="cls-3" d="m13.45,21.05c.17-.03.36-.07.59-.13-.2.04-.4.09-.59.13Z"></path><path id="Path_56" class="cls-3" d="m120.56,7.55c-1.33-.19-2.61-.6-3.81-1.21.55.26.44.42-.23.31l-.44-.42c1.18-.03,2.34.25,3.37.83l.79-.05c.35.16.28.35.32.53.25.04.51.1.77.15-.16-.14-.33-.27-.51-.39-.21-.13-.46-.27-.69-.39-.46-.24-.86-.43-.86-.43-1.64-.34-3.23-.69-4.78-1.03l-4.61-.85c-.23.13-.49.15-.74.07-.21-.14-.44-.26-.68-.34-.44-.09-.89-.16-1.33-.22h-.48s-.01,0-.01,0c-.26.04-.2.15-.06.26.15.08.3.18.43.28-.08-.06-.3-.17-.43-.28-.22-.12-.45-.2-.7-.26-.19,0-.38-.01-.57-.03.15,0,.31,0,.47,0,.03,0,.07.01.1.02h.61s.16,0,.16,0l.23-.03-3.04-.46c-.24-.01-.46-.03-.65-.03-.66.08-1.33-.05-1.91-.36l-.55-.06s.07.04.1.06c-.07-.02-.13-.05-.2-.08l-2.31-.26c-1.51-.16-3.04-.38-4.61-.47l-3.75-.27-.93-.06c-.31-.02-.62-.02-.93-.03l-1.85-.04c-1.23-.02-2.46-.06-3.68-.06l-3.68.09-1.85.05c-.62.02-1.23.07-1.85.1l-3.73.22c-1.25.08-2.51.22-3.79.32s-2.57.2-3.88.37l-4.21.44-4.13.52c-1.37.15-2.72.37-4.07.56s-2.7.37-4.03.6c-5.16.87-10.25,2.09-15.24,3.66-4.95,1.46-9.89,2.99-15.25,4.3-1.2.32-2.39.7-3.54,1.16-.65.25-1.32.52-2,.8s-1.36.6-2.04.91c-2.72,1.25-5.36,2.64-7.16,3.61C-.11,21.38-.25,22.57.22,23.25c.42.49.99.82,1.63.94,1.75.18,3.52-.13,5.1-.9,2.1-.94,4.27-1.69,6.5-2.24-1.47.28-.84-.34.72-1.09,2.15-1.05,4.49-1.66,6.87-1.82.84,0,1.67-.07,2.5-.2.87-.13,1.73-.3,2.58-.53,1.73-.47,3.53-1.04,5.35-1.71,3.62-1.44,7.36-2.57,11.17-3.39.93-.16,1.86-.4,2.85-.64s2.01-.49,3.11-.72c5.76-.87,11.24-1.9,16.85-2.76,5.77-.91,11.59-1.42,17.42-1.54,3.22,0,6.07-.64,8.81-.81,1.01,0,2.01.06,3.01.17.98.12,1.91.29,2.71.35,1.27.1,2.46.14,3.59.13,1.13.03,2.21.05,3.27.04-1.18-.08-2.19-.15-3.24-.19-1.05-.01-2.14-.03-3.45-.09-1.75-.1,1.27-.71,2.45-.79.51-.1,1.22.65,1.73.58,1.09.06,2.18.04,3.26-.06.51-.08.37.54.63.5.73,0,1.46-.09,2.18-.23.57-.13,1.15-.12,1.71.01.74.22,1.41.43,2.07.64.42.11.85.2,1.28.25h.88c2.11.05,4.54.25,6.81.46v-.06Zm-27.63-4.96c.83-.18,1.7-.03,2.43.41-.83.06-1.67-.08-2.43-.41Z"></path></g></svg>