<svg fill="none" height="295" width="287" xmlns="http://www.w3.org/2000/svg" xmlns:xlink="http://www.w3.org/1999/xlink"><linearGradient id="a"><stop offset="0" stop-color="#7650c0"/><stop offset=".38" stop-color="#6771c4"/><stop offset="1" stop-color="#4bafca"/></linearGradient><linearGradient id="b" gradientUnits="userSpaceOnUse" x1="225.529" x2="233.211" xlink:href="#a" y1="9.238" y2="9.238"/><linearGradient id="c" gradientUnits="userSpaceOnUse" x1="180.572" x2="186.791" xlink:href="#a" y1="27.005" y2="27.005"/><linearGradient id="d" gradientUnits="userSpaceOnUse" x1="166.569" x2="169.904" xlink:href="#a" y1="62.129" y2="62.129"/><linearGradient id="e" gradientUnits="userSpaceOnUse" x1="173.356" x2="178.725" xlink:href="#a" y1="37.405" y2="37.405"/><linearGradient id="f" gradientUnits="userSpaceOnUse" x1="212.954" x2="220.612" xlink:href="#a" y1="9.531" y2="9.531"/><linearGradient id="g" gradientUnits="userSpaceOnUse" x1="168.603" x2="172.997" xlink:href="#a" y1="49.31" y2="49.31"/><linearGradient id="h" gradientUnits="userSpaceOnUse" x1="166.73" x2="170.259" xlink:href="#a" y1="75.216" y2="75.216"/><linearGradient id="i" gradientUnits="userSpaceOnUse" x1="189.894" x2="196.801" xlink:href="#a" y1="18.632" y2="18.632"/><linearGradient id="j" gradientUnits="userSpaceOnUse" x1="200.872" x2="208.27" xlink:href="#a" y1="12.714" y2="12.714"/><linearGradient id="k" gradientUnits="userSpaceOnUse" x1="169.242" x2="173.81" xlink:href="#a" y1="87.907" y2="87.907"/><linearGradient id="l" gradientUnits="userSpaceOnUse" x1="238.007" x2="243.114" xlink:href="#a" y1="11.463" y2="11.463"/><linearGradient id="m" gradientUnits="userSpaceOnUse" x1="212.642" x2="220.219" xlink:href="#a" y1="125.493" y2="125.493"/><linearGradient id="n" gradientUnits="userSpaceOnUse" x1="277.388" x2="281.333" xlink:href="#a" y1="43.471" y2="43.471"/><linearGradient id="o" gradientUnits="userSpaceOnUse" x1="283.851" x2="287.003" xlink:href="#a" y1="67.031" y2="67.031"/><linearGradient id="p" gradientUnits="userSpaceOnUse" x1="282.89" x2="286.571" xlink:href="#a" y1="79.897" y2="79.897"/><linearGradient id="q" gradientUnits="userSpaceOnUse" x1="272.614" x2="278.208" xlink:href="#a" y1="103.604" y2="103.604"/><linearGradient id="r" gradientUnits="userSpaceOnUse" x1="253.785" x2="260.78" xlink:href="#a" y1="120.913" y2="120.913"/><linearGradient id="s" gradientUnits="userSpaceOnUse" x1="264.08" x2="270.455" xlink:href="#a" y1="113.305" y2="113.305"/><linearGradient id="t" gradientUnits="userSpaceOnUse" x1="278.987" x2="283.673" xlink:href="#a" y1="92.286" y2="92.286"/><linearGradient id="u" gradientUnits="userSpaceOnUse" x1="229.959" x2="237.568" xlink:href="#a" y1="128.504" y2="128.504"/><linearGradient id="v" gradientUnits="userSpaceOnUse" x1="242.221" x2="249.633" xlink:href="#a" y1="126.054" y2="126.054"/><linearGradient id="w" gradientUnits="userSpaceOnUse" x1="281.314" x2="285.485" xlink:href="#a" y1="54.321" y2="54.321"/><linearGradient id="x" gradientUnits="userSpaceOnUse" x1="202.982" x2="208.055" xlink:href="#a" y1="122.752" y2="122.752"/><linearGradient id="y" gradientUnits="userSpaceOnUse" x1="202.023" x2="274.127" xlink:href="#a" y1="79.299" y2="79.299"/><linearGradient id="z" gradientUnits="userSpaceOnUse" x1="222.405" x2="240.394" xlink:href="#a" y1="75.276" y2="75.276"/><linearGradient id="A" gradientUnits="userSpaceOnUse" x1="229.657" x2="255.141" xlink:href="#a" y1="71.425" y2="71.425"/><linearGradient id="B" gradientUnits="userSpaceOnUse" x1="178.815" x2="250.92" xlink:href="#a" y1="53.535" y2="53.535"/><linearGradient id="C" gradientUnits="userSpaceOnUse" x1="212.384" x2="232.219" xlink:href="#a" y1="61.112" y2="61.112"/><linearGradient id="D" gradientUnits="userSpaceOnUse" x1="198.012" x2="236.604" xlink:href="#a" y1="59.098" y2="59.098"/><linearGradient id="E" gradientUnits="userSpaceOnUse" x1="81.959" x2="222.23" xlink:href="#a" y1="97.082" y2="97.082"/><linearGradient id="F"><stop offset="0" stop-color="#09005d"/><stop offset="1" stop-color="#1a0f91"/></linearGradient><linearGradient id="G" gradientUnits="userSpaceOnUse" x1="84.182" x2="10.605" xlink:href="#F" y1="276.31" y2="353.265"/><linearGradient id="H"><stop offset="0" stop-color="#febbba"/><stop offset="1" stop-color="#ff928e"/></linearGradient><linearGradient id="I" gradientUnits="userSpaceOnUse" x1="61.275" x2="67.544" xlink:href="#H" y1="282.238" y2="282.238"/><linearGradient id="J"><stop offset="0" stop-color="#020039"/><stop offset="1" stop-color="#090056"/></linearGradient><linearGradient id="K" gradientUnits="userSpaceOnUse" x1="-309.934" x2="-239.281" xlink:href="#J" y1="679.362" y2="599.738"/><linearGradient id="L" gradientUnits="userSpaceOnUse" x1="68.351" x2="-5.227" xlink:href="#F" y1="261.172" y2="338.128"/><linearGradient id="M" gradientUnits="userSpaceOnUse" x1="38.684" x2="44.096" xlink:href="#H" y1="281.904" y2="281.904"/><linearGradient id="N" gradientUnits="userSpaceOnUse" x1="-319.407" x2="-248.754" xlink:href="#J" y1="670.957" y2="591.332"/><linearGradient id="O" gradientUnits="userSpaceOnUse" x1="61.066" x2="127.941" xlink:href="#H" y1="87.174" y2="183.492"/><linearGradient id="P" gradientUnits="userSpaceOnUse" x1="71.168" x2="138.043" xlink:href="#H" y1="80.159" y2="176.476"/><linearGradient id="Q" gradientUnits="userSpaceOnUse" x1="58.221" x2="31.427" xlink:href="#H" y1="100.723" y2="149.077"/><linearGradient id="R" gradientUnits="userSpaceOnUse" x1="25.235" x2="74.346" xlink:href="#H" y1="94.373" y2="99.974"/><linearGradient id="S" gradientUnits="userSpaceOnUse" x1="48.884" x2="70.035" xlink:href="#F" y1="105.029" y2="92.458"/><linearGradient id="T" gradientUnits="userSpaceOnUse" x1="24.588" x2="73.7" xlink:href="#H" y1="100.04" y2="105.641"/><linearGradient id="U" gradientUnits="userSpaceOnUse" x1="52.131" x2="11.828" xlink:href="#H" y1="88.295" y2="114.596"/><linearGradient id="V" gradientUnits="userSpaceOnUse" x1="51.344" x2="9.418" xlink:href="#H" y1="87.471" y2="114.832"/><path d="m251.889 252.711c-5.851 6.328-11.386 10.409-15.76 13.633-51.41 37.897-112.242 26.85-125.171 24.153-19.092-3.986-55.995-11.685-82.676-43.92-40.365-48.764-34.075-125.602-2.769-176.32 5.727-9.279 35.98-60.77 97.467-69.03 37.211-4.999 80.589 5.081 112 32.12 65.938 56.757 61.249 171.413 16.909 219.364z" fill="#d9cef4"/><path d="m120.836 204.951-6.127 57.15h71.087l-9.258-57.15z" fill="#6242b2"/><path d="m1.422 64.145v130.889c0 5.177 1.944 10.15 5.419 13.858 3.474 3.708 8.204 5.858 13.181 5.991 45.968 1.233 206.745 4.222 250.503 3.552 3.62-.057 7.079-1.565 9.656-4.21 2.577-2.644 4.073-6.221 4.175-9.984.844-30.407 2.22-103.526-2.857-137.472-.516-3.464-2.179-6.632-4.703-8.955-2.523-2.324-5.748-3.657-9.117-3.77-38.517-1.282-208.95-5.35-252.688-4.33-3.627.084-7.078 1.642-9.614 4.339s-3.956 6.32-3.955 10.093z" fill="#7650c0"/><path d="m9.32 63.509v124.351c0 3.021 1.142 5.921 3.18 8.073 2.039 2.152 4.81 3.384 7.714 3.429l244.018 3.136c1.424.022 2.837-.25 4.16-.8a10.735 10.735 0 0 0 3.542-2.404 11.222 11.222 0 0 0 2.378-3.638c.554-1.365.841-2.83.847-4.311l.403-123.241a8.36 8.36 0 0 0 -2.228-5.738c-1.435-1.536-3.392-2.426-5.451-2.479l-249.827-5.244a8.239 8.239 0 0 0 -3.327.612 8.502 8.502 0 0 0 -2.837 1.907 8.893 8.893 0 0 0 -1.903 2.903 9.178 9.178 0 0 0 -.67 3.444z" fill="#d9cef4"/><path d="m276.994 207.601h-.005l-267.676-4.743a.339.339 0 0 1 -.24-.109.368.368 0 0 1 -.098-.254.378.378 0 0 1 .108-.248.352.352 0 0 1 .241-.104l267.676 4.743c.087.006.17.047.23.114s.093.155.092.247a.367.367 0 0 1 -.096.245.337.337 0 0 1 -.232.109zm-131.197 5.793a3.047 3.047 0 0 1 -1.738-.548 3.23 3.23 0 0 1 -1.151-1.46 3.367 3.367 0 0 1 -.178-1.879c.12-.631.418-1.21.856-1.665a3.084 3.084 0 0 1 1.601-.89 3.014 3.014 0 0 1 1.807.185 3.159 3.159 0 0 1 1.403 1.198c.344.535.527 1.163.527 1.807 0 .862-.33 1.689-.916 2.299a3.067 3.067 0 0 1 -2.211.953zm0-5.793c-.483 0-.955.149-1.357.428a2.521 2.521 0 0 0 -.9 1.14 2.634 2.634 0 0 0 -.138 1.467c.094.493.327.946.668 1.301.342.355.777.597 1.251.695s.965.047 1.411-.145a2.469 2.469 0 0 0 1.096-.936 2.617 2.617 0 0 0 -.305-3.206 2.396 2.396 0 0 0 -1.726-.744z" fill="#fff" opacity=".65"/><path d="m201.109 273.793h-104.041c-2.825 0-4.95-2.093-4.403-4.34l1.335-5.491c.404-1.651 2.148-2.864 4.223-2.931l100.3-3.252c2.167-.071 4.087 1.126 4.559 2.843l2.407 8.745c.624 2.269-1.508 4.426-4.38 4.426z" fill="#4e33a0"/><path d="m153.075 262.523a.342.342 0 0 1 -.232-.11.367.367 0 0 1 -.003-.492.339.339 0 0 1 .23-.113l4.298-.065a.339.339 0 0 1 .231.111.366.366 0 0 1 0 .492.33.33 0 0 1 -.231.111l-4.298.066zm-56.558 8.246a.247.247 0 0 1 -.054 0 .341.341 0 0 1 -.224-.143.367.367 0 0 1 -.062-.266l.613-3.993a4.51 4.51 0 0 1 1.43-2.674 4.198 4.198 0 0 1 2.749-1.089l45.587-.693a.343.343 0 0 1 .232.111.37.37 0 0 1 0 .492.339.339 0 0 1 -.232.111l-45.586.694a3.522 3.522 0 0 0 -2.31.914 3.787 3.787 0 0 0 -1.2 2.247l-.614 3.994a.36.36 0 0 1 -.113.209.334.334 0 0 1 -.216.086z" fill="#fff"/><path d="m226.907 10.514c1.555.077 3.127.226 4.665.44.377.045.755-.066 1.053-.308a1.545 1.545 0 0 0 .269-2.087 1.438 1.438 0 0 0 -.937-.586 55.33 55.33 0 0 0 -4.913-.463 1.417 1.417 0 0 0 -1.021.402 1.533 1.533 0 0 0 -.459 1.03c-.018.393.113.777.363 1.07.251.294.603.474.98.502z" fill="url(#b)"/><path d="m186.388 24.159a1.441 1.441 0 0 0 -.462-.337 1.399 1.399 0 0 0 -1.583.291 59.61 59.61 0 0 0 -3.411 3.703 1.542 1.542 0 0 0 -.376 1.097 1.541 1.541 0 0 0 .489 1.046 1.398 1.398 0 0 0 1.611.212 1.47 1.47 0 0 0 .448-.368 57.296 57.296 0 0 1 3.241-3.518 1.543 1.543 0 0 0 .445-1.054 1.557 1.557 0 0 0 -.098-.578 1.506 1.506 0 0 0 -.304-.494z" fill="url(#c)"/><path d="m168.653 58.15a1.406 1.406 0 0 0 -1.07.294 1.52 1.52 0 0 0 -.558.994 61.923 61.923 0 0 0 -.454 5.107 1.53 1.53 0 0 0 .362 1.102 1.407 1.407 0 0 0 2.063.106 1.513 1.513 0 0 0 .464-1.06c.076-1.614.221-3.246.431-4.849a1.563 1.563 0 0 0 -.281-1.114 1.469 1.469 0 0 0 -.423-.389 1.412 1.412 0 0 0 -.534-.191z" fill="url(#d)"/><path d="m178.074 34.006a1.392 1.392 0 0 0 -1.607.01c-.157.111-.292.253-.396.418a60.86 60.86 0 0 0 -2.538 4.396 1.55 1.55 0 0 0 .121 1.691c.12.157.269.287.439.383a1.407 1.407 0 0 0 1.119.116c.184-.059.356-.156.503-.285.148-.13.27-.288.358-.467a57.997 57.997 0 0 1 2.413-4.177c.211-.333.286-.74.209-1.131a1.513 1.513 0 0 0 -.621-.954z" fill="url(#e)"/><path d="m214.656 11.348a53.169 53.169 0 0 1 4.64-.655c.097-.01.192-.029.285-.058.343-.109.635-.345.819-.665.185-.319.249-.698.18-1.064a1.512 1.512 0 0 0 -.552-.914 1.408 1.408 0 0 0 -1-.295c-1.628.158-3.272.39-4.886.69a1.447 1.447 0 0 0 -.906.628 1.555 1.555 0 0 0 -.227 1.108c.065.386.273.73.579.958.306.23.686.325 1.058.267z" fill="url(#f)"/><path d="m172.061 45.526a1.397 1.397 0 0 0 -1.106.038 1.482 1.482 0 0 0 -.757.84 62.485 62.485 0 0 0 -1.541 4.873c-.051.19-.066.39-.044.586a1.541 1.541 0 0 0 .542 1.006 1.419 1.419 0 0 0 1.067.313 1.41 1.41 0 0 0 .537-.182 1.47 1.47 0 0 0 .43-.382c.118-.155.205-.333.257-.523a58.517 58.517 0 0 1 1.462-4.63 1.565 1.565 0 0 0 -.037-1.152 1.51 1.51 0 0 0 -.33-.477 1.438 1.438 0 0 0 -.48-.31z" fill="url(#g)"/><path d="m168.046 71.24a1.432 1.432 0 0 0 -.981.534 1.543 1.543 0 0 0 -.33 1.1c.147 1.691.367 3.4.652 5.08.067.394.281.743.596.971a1.402 1.402 0 0 0 1.248.207c.34-.106.63-.338.816-.652.186-.313.254-.687.193-1.05a60.26 60.26 0 0 1 -.62-4.826 1.54 1.54 0 0 0 -.515-1.022 1.427 1.427 0 0 0 -.497-.281 1.389 1.389 0 0 0 -.562-.062z" fill="url(#h)"/><path d="m191.758 21.446a1.42 1.42 0 0 0 .427-.222 55.217 55.217 0 0 1 3.911-2.676c.323-.208.554-.54.644-.923.089-.384.03-.789-.164-1.128a1.456 1.456 0 0 0 -.878-.684 1.397 1.397 0 0 0 -1.086.153 59.24 59.24 0 0 0 -4.118 2.82 1.509 1.509 0 0 0 -.558.856c-.083.346-.045.71.107 1.03.152.319.407.572.721.713.314.142.666.163.994.06z" fill="url(#i)"/><path d="m202.735 15.027c.048-.015.101-.033.146-.054a53.325 53.325 0 0 1 4.389-1.7c.362-.124.662-.39.836-.742.174-.351.208-.76.095-1.138a1.496 1.496 0 0 0 -.701-.879 1.398 1.398 0 0 0 -1.093-.113l-.029.01a55.61 55.61 0 0 0 -4.621 1.79c-.34.15-.612.43-.759.783-.148.352-.161.75-.035 1.11.125.362.378.66.708.833.329.174.71.21 1.064.1z" fill="url(#j)"/><path d="m172.067 85.093a1.51 1.51 0 0 0 -.705-.88 1.414 1.414 0 0 0 -1.095-.12l-.027.01c-.765.24-1.172 1.123-.926 1.913a62.976 62.976 0 0 0 1.725 4.856c.138.341.394.616.716.773.323.156.69.182 1.03.073.047-.024.092-.05.136-.078.175-.076.335-.187.468-.327.134-.14.24-.306.312-.488a1.548 1.548 0 0 0 -.004-1.15 59.517 59.517 0 0 1 -1.63-4.582z" fill="url(#k)"/><path d="m243.042 12.277c.118-.38.087-.792-.087-1.148a1.463 1.463 0 0 0 -.84-.748 58.93 58.93 0 0 0 -2.27-.715 1.392 1.392 0 0 0 -1.119.116c-.17.096-.319.226-.44.383a1.55 1.55 0 0 0 -.121 1.691c.097.175.226.327.38.448.154.12.33.209.517.258.723.21 1.448.44 2.157.68a1.394 1.394 0 0 0 1.104-.09c.169-.09.32-.213.443-.363.124-.15.217-.324.276-.512z" fill="url(#l)"/><path d="m218.914 124.34a52.817 52.817 0 0 1 -4.564-.669 1.403 1.403 0 0 0 -1.068.252c-.31.227-.523.571-.592.959-.068.388.012.788.224 1.115.213.327.54.554.911.632 1.585.304 3.202.541 4.807.705a1.41 1.41 0 0 0 1.047-.343c.292-.253.476-.616.513-1.009a1.545 1.545 0 0 0 -.315-1.093 1.43 1.43 0 0 0 -.963-.549z" fill="url(#m)"/><path d="m278.585 45.2c.151.32.406.575.72.719a1.395 1.395 0 0 0 1.21-.023c.171-.087.324-.207.45-.354a1.536 1.536 0 0 0 .363-1.088 1.545 1.545 0 0 0 -.143-.567 67.516 67.516 0 0 0 -1.079-2.203 1.505 1.505 0 0 0 -.356-.466 1.397 1.397 0 0 0 -1.617-.175 1.466 1.466 0 0 0 -.44.38 1.557 1.557 0 0 0 -.135 1.684c.358.693.703 1.395 1.027 2.093z" fill="url(#n)"/><path d="m285.157 63.079c-.381.039-.732.234-.976.542a1.553 1.553 0 0 0 -.323 1.1c.148 1.586.233 3.195.253 4.785.005.399.162.78.437 1.058.136.138.297.246.473.32a1.398 1.398 0 0 0 1.571-.348 1.514 1.514 0 0 0 .41-1.069 61.855 61.855 0 0 0 -.265-5.035 1.503 1.503 0 0 0 -.52-1.017 1.396 1.396 0 0 0 -1.06-.336z" fill="url(#o)"/><path d="m285.305 75.98c-.381-.05-.764.06-1.067.304a1.52 1.52 0 0 0 -.547 1 58.597 58.597 0 0 1 -.769 4.726c-.08.39-.008.798.2 1.133.209.335.537.57.912.653.375.084.767.009 1.089-.208a1.51 1.51 0 0 0 .629-.948c.335-1.64.605-3.316.807-4.978.024-.196.01-.395-.039-.586a1.52 1.52 0 0 0 -.679-.911 1.41 1.41 0 0 0 -.536-.186z" fill="url(#p)"/><path d="m275.541 100.778a58.36 58.36 0 0 1 -2.633 3.936 1.562 1.562 0 0 0 -.097 1.668c.096.17.223.319.374.439a1.39 1.39 0 0 0 1.604.101c.164-.1.307-.232.422-.389a60.322 60.322 0 0 0 2.771-4.142 1.552 1.552 0 0 0 -.016-1.691 1.47 1.47 0 0 0 -.412-.412 1.414 1.414 0 0 0 -1.106-.195 1.409 1.409 0 0 0 -.52.247 1.494 1.494 0 0 0 -.387.438z" fill="url(#q)"/><path d="m258.561 118.416a53.648 53.648 0 0 1 -3.996 2.386c-.32.173-.566.464-.69.815-.125.351-.119.739.017 1.086.135.347.39.629.715.791a1.39 1.39 0 0 0 1.291-.021 55.52 55.52 0 0 0 4.208-2.517c.317-.217.539-.554.619-.94.08-.385.012-.788-.191-1.121a1.446 1.446 0 0 0 -.892-.661 1.397 1.397 0 0 0 -1.081.179z" fill="url(#r)"/><path d="m267.983 110.577a55.719 55.719 0 0 1 -3.393 3.242 1.496 1.496 0 0 0 -.361.458 1.555 1.555 0 0 0 .172 1.676c.123.152.275.277.445.368a1.392 1.392 0 0 0 1.114.09c.182-.062.35-.162.495-.293a58.625 58.625 0 0 0 3.573-3.413c.139-.139.251-.305.327-.489a1.56 1.56 0 0 0 .013-1.166 1.519 1.519 0 0 0 -.317-.496 1.428 1.428 0 0 0 -1.038-.441 1.41 1.41 0 0 0 -1.03.464z" fill="url(#s)"/><path d="m282.717 88.596a1.392 1.392 0 0 0 -1.106.052 1.449 1.449 0 0 0 -.454.348 1.526 1.526 0 0 0 -.292.503 59.236 59.236 0 0 1 -1.746 4.437c-.16.363-.176.777-.043 1.152.133.374.404.678.753.845.348.167.747.183 1.107.045s.652-.42.813-.783a62.697 62.697 0 0 0 1.837-4.67 1.57 1.57 0 0 0 -.049-1.152 1.516 1.516 0 0 0 -.335-.474 1.445 1.445 0 0 0 -.485-.303z" fill="url(#t)"/><path d="m235.943 126.811a53.28 53.28 0 0 1 -4.595.391 1.39 1.39 0 0 0 -.559.127 1.46 1.46 0 0 0 -.468.343 1.503 1.503 0 0 0 -.303.505 1.558 1.558 0 0 0 .044 1.167 1.449 1.449 0 0 0 .833.782c.182.067.375.094.567.082a55.956 55.956 0 0 0 4.842-.413c.381-.049.727-.253.963-.568.235-.315.341-.714.294-1.11a1.52 1.52 0 0 0 -.547-1.001 1.402 1.402 0 0 0 -1.067-.305z" fill="url(#u)"/><path d="m247.701 123.91a56.57 56.57 0 0 1 -4.405 1.417 1.46 1.46 0 0 0 -.853.706 1.559 1.559 0 0 0 -.138 1.125c.097.379.332.704.656.906a1.4 1.4 0 0 0 1.078.172 58.62 58.62 0 0 0 4.633-1.493 1.442 1.442 0 0 0 .858-.765 1.548 1.548 0 0 0 .067-1.173 1.537 1.537 0 0 0 -.298-.514 1.408 1.408 0 0 0 -1.598-.38z" fill="url(#v)"/><path d="m284.137 51.49a1.508 1.508 0 0 0 -.273-.515 1.438 1.438 0 0 0 -.444-.366 1.384 1.384 0 0 0 -1.106-.083 1.436 1.436 0 0 0 -.493.287 1.498 1.498 0 0 0 -.349.461 1.557 1.557 0 0 0 -.086 1.148 60.564 60.564 0 0 1 1.246 4.617c.088.388.321.724.647.934a1.4 1.4 0 0 0 1.093.184l.085-.024c.352-.11.65-.357.834-.688s.239-.723.155-1.095a62.368 62.368 0 0 0 -1.309-4.86z" fill="url(#w)"/><path d="m207.063 121.725a50.425 50.425 0 0 1 -2.119-.782 1.391 1.391 0 0 0 -1.106.037 1.483 1.483 0 0 0 -.757.839 1.56 1.56 0 0 0 .035 1.15c.158.364.449.647.807.788.741.291 1.492.568 2.236.824.363.121.757.088 1.097-.092s.598-.492.718-.868a1.561 1.561 0 0 0 -.079-1.142 1.466 1.466 0 0 0 -.828-.754z" fill="url(#x)"/><path d="m271.662 55.045-8.141-1.194a37.404 37.404 0 0 0 -6.116-9.721l-10.505 2.1-8.03 9.056 7.089 15.964-17.943-.624-10.491 8.122 1.425 14.33-11.03-2.224-3.755 3.873-2.118 8.239a.727.727 0 0 0 .02.428.704.704 0 0 0 .255.337l8.181 5.738a.656.656 0 0 0 .784-.021l6.573-5.14a34.655 34.655 0 0 0 11.377 2.413l4.115 7.403c.07.127.177.227.305.288.128.06.271.078.409.05l9.684-1.959a.67.67 0 0 0 .361-.206.716.716 0 0 0 .179-.386l1.148-8.466a35.75 35.75 0 0 0 9.684-6.669l7.948 2.212c.136.037.28.03.411-.021a.683.683 0 0 0 .324-.266l5.518-8.508a.727.727 0 0 0 -.02-.816l-4.951-6.842a38.598 38.598 0 0 0 2.32-11.833l7.118-4.278a.69.69 0 0 0 .277-.317.723.723 0 0 0 .049-.426l-1.884-10.07a.711.711 0 0 0 -.197-.38.665.665 0 0 0 -.373-.186z" fill="url(#y)"/><path d="m233.875 76.4a7.34 7.34 0 0 1 -5.323.441c-1.767-.527-3.291-1.701-4.29-3.306l-1.857 1.44a9.999 9.999 0 0 0 4.486 3.815 9.554 9.554 0 0 0 5.771.551 9.8 9.8 0 0 0 5.08-2.899 10.454 10.454 0 0 0 2.652-5.359l-2.347-.086a8.05 8.05 0 0 1 -1.485 3.204 7.646 7.646 0 0 1 -2.687 2.2z" fill="url(#z)"/><path d="m254.083 61.677c-1.549-5.347-4.765-10.006-9.141-13.243l-.791.892c4.227 3.086 7.335 7.559 8.824 12.701.231.794.422 1.6.574 2.413a24.908 24.908 0 0 1 -1.184 13.429c-2.817 7.43-9.107 13.262-17.188 14.897-1.624.33-3.276.478-4.93.443a.567.567 0 0 0 -.399.176.616.616 0 0 0 -.016.836.568.568 0 0 0 .392.192c.1 0 .195-.053.293-.053.051 0 .101-.055.151-.055h.053c1.299 0 2.604-.053 3.894-.27.261-.043.522-.063.783-.116.82-.161 1.632-.365 2.433-.612 5.774-1.822 10.694-5.806 13.807-11.182s4.199-11.762 3.047-17.922a26.879 26.879 0 0 0 -.602-2.526z" fill="url(#A)"/><path d="m210.544 86.566-1.357-13.655 10.491-8.121 17.481.607a.276.276 0 0 0 .14-.032.291.291 0 0 0 .153-.24.308.308 0 0 0 -.025-.148l-6.896-15.526 8.031-9.056 10.508-2.098c-.101-.114-.195-.232-.295-.345l2.125-8.266a.736.736 0 0 0 -.02-.428.702.702 0 0 0 -.255-.337l-8.181-5.738a.658.658 0 0 0 -.785.02l-6.572 5.148a34.632 34.632 0 0 0 -11.377-2.413l-4.115-7.404a.683.683 0 0 0 -.305-.287.652.652 0 0 0 -.409-.05l-9.684 1.958a.664.664 0 0 0 -.361.206.718.718 0 0 0 -.18.386l-1.147 8.467a35.742 35.742 0 0 0 -9.684 6.668l-7.947-2.21a.65.65 0 0 0 -.411.02.682.682 0 0 0 -.324.265l-5.518 8.508a.718.718 0 0 0 -.115.411.72.72 0 0 0 .135.405l4.949 6.833a38.592 38.592 0 0 0 -2.32 11.832l-7.119 4.279a.694.694 0 0 0 -.276.317.728.728 0 0 0 -.048.424l1.883 10.072a.707.707 0 0 0 .198.376c.102.1.231.166.371.186l8.14 1.194a37.434 37.434 0 0 0 6.413 10.071l-.007.026 3.755-3.872 10.39 2.098a.467.467 0 0 0 .419-.126.507.507 0 0 0 .151-.425z" fill="url(#B)"/><path d="m215.924 67.699a8.078 8.078 0 0 1 -.505-.93 8.212 8.212 0 0 1 -.268-6.046c.684-1.972 2.093-3.582 3.917-4.476a7.31 7.31 0 0 1 4.97-.544 7.506 7.506 0 0 1 3.456 1.923 7.94 7.94 0 0 1 2.072 3.46 8.195 8.195 0 0 1 .138 4.073l2.349.087c.278-1.597.191-3.24-.256-4.796a10.43 10.43 0 0 0 -2.318-4.156 9.885 9.885 0 0 0 -3.876-2.613 9.561 9.561 0 0 0 -4.594-.504 9.695 9.695 0 0 0 -4.315 1.715 10.181 10.181 0 0 0 -3.099 3.562 10.615 10.615 0 0 0 -1.212 4.635 10.666 10.666 0 0 0 .938 4.704c.215.467.463.917.742 1.346z" fill="url(#C)"/><path d="m236.044 42.186a23.743 23.743 0 0 0 -8.775-3.842 23.322 23.322 0 0 0 -9.522-.028c-13.198 2.668-21.855 16.009-19.288 29.74.841 4.502 2.839 8.684 5.783 12.1a.56.56 0 0 0 .714.121.597.597 0 0 0 .253-.3.63.63 0 0 0 .018-.397.591.591 0 0 0 -.123-.228c-2.803-3.252-4.705-7.234-5.505-11.521-2.444-13.078 5.792-25.785 18.373-28.325a22.214 22.214 0 0 1 9.069.023 22.62 22.62 0 0 1 8.36 3.655c.141.105.278.203.416.305l.791-.892c-.19-.137-.374-.278-.564-.411z" fill="url(#D)"/><path d="m148.784 28.723-73.438 128.322c-1.614 2.817.496 6.264 3.848 6.295l145.571 1.246c3.364.028 5.535-3.404 3.951-6.249l-72.135-129.57c-1.658-2.98-6.102-3.004-7.797-.044z" fill="#4e33a0"/><path d="m149.152 36.389-66.69 116.541c-1.466 2.559.45 5.689 3.493 5.715l132.208 1.131c3.056.026 5.027-3.092 3.588-5.675l-65.513-117.672c-1.508-2.706-5.545-2.728-7.086-.04z" fill="url(#E)"/><path d="m61.874 282.256s-.73 4.301-1.089 8.562c-.032.395.014.793.134 1.169s.311.723.563 1.02.56.538.904.709c.344.17.718.266 1.098.282 5.455.236 17.121.696 21.307.502a.89.89 0 0 0 .415-.128.93.93 0 0 0 .313-.31.98.98 0 0 0 .08-.871 2.102 2.102 0 0 0 -1.052-1.154l-19.267-9.21z" fill="url(#G)"/><path d="m61.275 279.728.587 5.146s3.377 1.635 5.682-.209l-1.398-5.736-4.87.799z" fill="url(#I)"/><path d="m61.717 182.966c-.254 1.344-1.362 67.072 5.394 96.527.055.232.029.476-.075.69a.98.98 0 0 1 -.489.473c-1.036.44-3.068 1.077-5.502 1.162a1.609 1.609 0 0 1 -1.023-.324 1.723 1.723 0 0 1 -.619-.908c-1.932-6.834-11.185-41.074-12.392-73.783-1.348-36.549 0-1.244 0-1.244l.791-22.592z" fill="url(#K)"/><path d="m39.702 284.501s-1.163 2.173-2.29 7.945a1.857 1.857 0 0 0 .299 1.421c.142.203.324.371.533.496.21.124.441.202.681.227 1.8.184 4.574.42 6.794.405.242-.001.481-.054.702-.158.22-.103.418-.254.578-.442s.281-.41.353-.65c.073-.24.096-.493.067-.743-.246-2.107-1.009-5.56-3.38-8.258z" fill="url(#L)"/><path d="m38.684 277.881 1.372 7.783s1.357 1.049 4.035.289l-.654-8.374z" fill="url(#M)"/><path d="m34.978 184.983c-5.526 34.679 1.198 85.711 3.466 95.699.067.3.218.572.433.782.216.211.486.35.778.401 1.008.175 2.678.314 4.321-.18.276-.084.52-.256.697-.492s.278-.523.29-.822c.302-8.078-.243-57.649 4.904-77.24a4.453 4.453 0 0 1 1.652-2.456l9.991-7.388.767-11.942z" fill="url(#N)"/><path d="m84.17 135.551c-.84 6.212-1.727 7.639-2.421 7.677-2.192.117-1.75-13.889-9.77-20.975-5.066-4.474-11.985-4.843-17.413-4.321l7.598 28.341c1.11 2.822 5.928 14.238 16.84 17.704 2.22.705 5.527 1.755 8.603.379 6.07-2.713 8.915-13.831 6.202-27.752-1.271-.493-3.038-1.019-9.639-1.053z" fill="#4e33a0"/><path d="m82.236 111.324 1.009 5.904c1.614 7.221 1.766 13.241.929 18.323a75.32 75.32 0 0 1 4.357.314 74.44 74.44 0 0 1 5.287.735c-.873-7.344-5.572-19.54-5.572-19.54-2.838-4.251-3.175-1.481-6.01-5.736z" fill="url(#O)"/><path d="m93.716 98.884a3.62 3.62 0 0 0 -1.632.34c-.512.239-.967.595-1.329 1.042l-7.162 8.826s-1.303-.277-1.425-2.874c-.122-2.596-2.774-2.908-2.774-2.908s.382 3.62 1.11 8.979c.416 3.065 2.158 5.301 3.573 6.657l4.143-1.484c3.801-5.65 6.16-11.878 7.472-18.525z" fill="url(#P)"/><path d="m26.212 122.896c.477-.131 3.74-3.636 4.23-3.733 8.04-1.594 28.11-7.215 41.542 3.09.034.298.055.536.068.735.207.314.392.644.554.986a47.464 47.464 0 0 0 4.533 7.363 4.795 4.795 0 0 0 -.934 1.378c-3.228 7.19-15.462 35.906-13.316 53.466.058.434-.053.874-.306 1.224s-.63.581-1.047.644c-4.749.683-18.894 2.349-26.202-.79a1.123 1.123 0 0 1 -.507-.437 1.195 1.195 0 0 1 -.183-.657c.047-3.524-.096-18.815-5.485-37.243-.2-.687-.366-1.385-.497-2.09l-.192.42-2.258-24.356z" fill="#4e33a0"/><path d="m38.483 117.569c-14.995 1.143-18.129 10.051-28.49 4.605l1.834 16.687c3.842 4.414 9.644 7.419 16.954 8.545z" fill="#4e33a0"/><path d="m48.727 102.477c-2.569 5.326-3.641 10.751-3.963 15.802.553.21 7.927 5.534 12.864.384-1.056-3.534-.881-8.854-.613-14.311z" fill="url(#Q)"/><path d="m62.105 88.474c.142.238 3.827 18.313 3.827 18.313l-9.968 1.968-5.94-16.585s9.717-7.675 12.081-3.696z" fill="url(#R)"/><path d="m53.825 93.638c-.132.187-.22.403-.26.63-.038.228-.027.463.035.685l2.437 8.862c.036.134.09.262.161.38.393.653 1.805 2.628 3.71 1.007 1.621-1.383 3.127-2.629 4.485-2.938a1.422 1.422 0 0 1 1.102.214c.161.11.3.252.408.417.108.166.183.352.221.548.34 1.698.959 5.141 1.096 8.272.015.38-.108.751-.345 1.04a1.434 1.434 0 0 1 -.931.52c-1.981.254-5.865.63-9.115.21a1.421 1.421 0 0 1 -.718-.312 1.504 1.504 0 0 1 -.46-.651c-.854-2.297-3.27-8.726-4.22-10.432-.884-1.585-3.228-1.734-4.309-1.714a1.424 1.424 0 0 1 -.589-.116c-.186-.08-.355-.2-.495-.351-.853-.921-2.22-3.003.1-5.235.275-.272.437-.645.452-1.04a1.554 1.554 0 0 0 -.373-1.072c-.935-1.093-1.792-2.894-.01-4.93 1.805-2.059 3.982-1.68 5.38-1.095.619.26 1.357.091 1.762-.46a.97.97 0 0 1 .39-.317.929.929 0 0 1 .49-.075 1.43 1.43 0 0 0 1.537-1.364c.093-1.423.739-3.126 3.12-3.734 4.37-1.115 6.79 3.363 6.866 6.594s-4.727 4.161-7.496 3.768c-2.038-.288-3.692 1.64-4.431 2.69z" fill="url(#S)"/><path d="m52.925 105.446s-.928-5.722-3.144-6.137c-2.217-.416-4.502 1.354-2.467 4.627 2.532 4.075 5.61 1.51 5.61 1.51z" fill="url(#T)"/><path d="m49.27 84.86a4.91 4.91 0 0 1 1.268.125c1.053.231 2.457.795 2.091 1.85-.548 1.581-3.397.104-4.913 2.654-1.337 2.248-.242 4.69-.652 7.114-.202 1.18-.927 2.93-1.94 3.619-.453.307-4.029.896-4.224.236l-.995-3.358c-.894-3.017 2.542-8.045 4.313-10.078 1.37-1.566 3.224-2.084 5.051-2.161z" fill="url(#U)"/><path d="m45.879 96.971-3.421 2.962c-6.557 2.901-11.325 6.321-14.78 10.02a19.99 19.99 0 0 0 -6.502-7.481c6.613-3.388 11.534-4.794 11.534-4.794 13.347-5.583 13.169-.707 13.169-.707z" fill="url(#V)"/><path d="m27.679 109.953c-10.785 11.549-7.634 5.681-7.72 15.526-.03 3.672-3.094 17.686-3.094 17.686-32.981-14.817-5.458-35.04 4.311-40.692a19.988 19.988 0 0 1 6.503 7.48z" fill="#4e33a0"/><path d="m174.393 136.996c11.964-12.442 11.964-32.615 0-45.057s-31.361-12.442-43.324 0c-11.964 12.442-11.964 32.615 0 45.057 11.963 12.442 31.36 12.442 43.324 0z" fill="#fff"/><path d="m173.673 136.247c11.565-12.029 11.565-31.53 0-43.558-11.566-12.029-30.318-12.029-41.884 0-11.566 12.028-11.566 31.529 0 43.558 11.566 12.028 30.318 12.028 41.884 0z" fill="#4e33a0"/><path d="m177.153 101.999a.313.313 0 0 0 .266-.156.33.33 0 0 0 .013-.316c-4.735-9.757-14.2-15.817-24.7-15.817-1.673 0-3.342.156-4.988.466a.31.31 0 0 0 -.201.135.331.331 0 0 0 .079.453c.068.049.152.068.234.052a26.319 26.319 0 0 1 4.876-.455c10.263 0 19.513 5.923 24.142 15.458a.309.309 0 0 0 .279.18z" fill="#fff" opacity=".7"/><path d="m169.811 133.571c9.789-10.18 9.789-26.686 0-36.866s-25.66-10.18-35.45 0c-9.789 10.18-9.789 26.686 0 36.866 9.79 10.181 25.661 10.181 35.45 0z" fill="#fff"/><path d="m153.638 120.208-2.837-.071c-.791-.02-1.444-.722-1.486-1.55l-1.039-20.785a1.398 1.398 0 0 1 .41-1.072c.282-.29.674-.382 1.083-.352l4.886.353c.403.03.783.167 1.057.493a1.597 1.597 0 0 1 .4 1.135l-1.008 20.406a1.531 1.531 0 0 1 -.451 1.031c-.274.27-.638.417-1.015.412zm-4.378 5.077c.708-.704 1.704-1.045 2.987-1.023 1.321.022 2.324.384 3.008 1.085.684.702 1.025 1.724 1.025 3.067 0 1.296-.35 2.301-1.048 3.013-.699.712-1.694 1.069-2.985 1.071-1.267 0-2.258-.37-2.975-1.109s-1.076-1.754-1.078-3.043c0-1.335.355-2.355 1.066-3.061z" fill="#4e33a0"/></svg>