<svg xmlns="http://www.w3.org/2000/svg" xmlns:xlink="http://www.w3.org/1999/xlink" viewBox="-0.02 0 592.12 153.37"><clipPath id="a"><path d="m1457.1 761.7h87.3v-22.6h-87.3z"/></clipPath><g fill="#143861" transform="translate(-104.3378 -135.8517)"><path d="m157.90708 218.51549h-21.69896l11.52758-37.49853zm-31.87035 37.90538 6.78093-22.85173h27.8018l6.78092 22.85173h23.05515l-24.41133-86.72805c-1.35619-5.69599-4.06856-7.52684-10.17139-7.52684h-33.90463v7.79807h2.71237c4.06855 0 6.10283 1.28838 6.10283 4.40761 0 1.96647 0 3.25484-2.03428 7.93368l-24.41133 74.11553" fill-rule="evenodd"/><path d="m219.61351 256.42087v-87.33834c0-4.54322-2.71237-6.91655-7.45901-6.91655h-21.02088v7.79807h1.35619c4.06855 0 6.10283 1.69524 6.10283 5.35694v81.09988"/><path d="m257.5867 256.42087v-87.33834c0-4.54322-2.71237-6.91655-7.45902-6.91655h-21.02087v7.79807h1.35619c4.06855 0 6.10283 1.69524 6.10283 5.35694v81.09988"/><g fill-rule="evenodd"><path d="m296.23798 170.50653c0-6.23846-4.74665-9.90016-12.20567-9.90016-8.13711 0-12.20566 3.6617-12.20566 9.90016 0 6.37407 4.06855 10.10358 12.20566 10.10358 7.45902 0 12.20567-3.72951 12.20567-10.10358m-.67809 85.91434v-63.60509c0-4.40761-2.71237-6.98436-6.78093-6.98436h-21.02087v7.66245h1.35619c4.06855 0 5.42474 1.69523 5.42474 5.56036v57.36664"/><path d="m345.73874 222.17719v14.10432c-4.06855 4.06856-8.8152 6.37407-12.88376 6.37407-4.06855 0-6.10283-1.96646-6.10283-7.25559 0-5.83159 1.35619-8.0693 6.10283-9.90015 3.39047-1.42399 6.78093-2.30551 12.88376-3.32265m-29.83607-16.88451 2.03428-.81371c5.42474-2.1699 8.8152-2.98361 12.88376-3.72951 2.03427-.27124 4.74664-.54247 6.10283-.54247 6.78093 0 8.8152 2.2377 8.8152 8.47615v1.76304c-9.49329 1.55962-12.20566 2.10209-17.6304 3.25485-2.71238.67809-5.42475 1.55961-8.13712 2.71237-8.8152 3.52608-12.88376 10.30701-12.88376 20.95306 0 13.35843 5.42474 19.7325 17.63041 19.7325 4.74665 0 9.4933-1.08495 12.88376-3.25485 3.39047-1.55961 4.74665-2.37332 8.81521-6.10283v2.1699c0 4.4076 2.03427 6.50969 6.10283 6.50969h20.34278v-7.2556h-.67809c-4.06856 0-6.10284-1.83085-6.10284-5.49255v-34.65053c0-18.03726-6.10283-24.1401-23.73324-24.1401-6.10283 0-11.52757.6781-16.95232 1.96647-5.42474 1.28838-8.13711 2.23771-14.23994 5.42474"/><path d="m404.7328 256.42087v-47.87334c4.74665-4.40761 8.13711-6.10284 12.88376-6.10284s6.10284 2.03428 6.10284 9.22206v44.75412h21.02087v-48.14458c0-9.90015-1.35619-14.17214-4.06856-17.90165-3.39046-3.6617-7.45902-5.35693-13.56185-5.35693-8.13711 0-14.23995 2.98361-23.73324 11.18853v-3.79732c0-4.4076-2.03428-6.5775-6.10284-6.5775h-20.34278v7.66245h.6781c4.06855 0 6.10283 1.69523 6.10283 5.56036v57.36664"/><g clip-path="url(#a)" transform="matrix(6.780926 0 0 -6.780926 -9776.146 5300.883)"><path d="m1516.9 745.91h-4.6l4.4 6.28v2.14h-6.6c-.8 0-1.1-.32-1.1-1.09v-1.89h1.1v.21c0 .57.3.8.9.8h2.4l-4.5-6.28v-2.16h8" fill-rule="nonzero"/><path d="m1534.6 744.49v11.78c0 .95-.4 1.26-1.3 1.26h-2.7v-1.3h.3c.5 0 .7-.19.7-.77v-10.97zm1.6 0h2.9v8.89c0 .9-.4 1.26-1.3 1.26h-1.6zm-6.2 0v10.15h-1.6c-.9 0-1.3-.36-1.3-1.26v-8.89zm12.5 5.92c0-5.51-4-9.53-9.4-9.53s-9.4 4.02-9.4 9.53 4 9.53 9.4 9.53 9.4-4.02 9.4-9.53m1.9 0c0 6.45-4.8 11.29-11.3 11.29-6.4 0-11.3-4.84-11.3-11.29 0-6.47 4.9-11.31 11.3-11.31 6.5 0 11.3 4.84 11.3 11.31" fill-rule="evenodd"/></g></g></g></svg>