<svg height="251" viewBox="-10.6299372 -10.6299372 1530.5224744 375.5911144" width="1024" xmlns="http://www.w3.org/2000/svg"><g fill="#4a6f67"><path d="m265.91 124.35875h-177.17175v-37.30625h177.17175zm-1.5525 142.97637h-39.48375v-115.01512h39.48375zm-67.45125 0h-39.48v-115.01512h39.48zm-67.13875 0h-39.477v-115.01512h39.477zm47.4-267.33512c-97.84725 0-177.1675 79.3175-177.1675 177.1625 0 97.8475 79.32025 177.16875 177.1675 177.16875 97.8475 0 177.165-79.32125 177.165-177.16875 0-97.845-79.3175-177.1625-177.165-177.1625"/><path d="m1447.4126 160.865c18.75 0 22.3375 15.5525 23.15 30.7175h-44.2875c.3875-13.5725 4.3875-30.7175 21.1375-30.7175zm2.4 87.354c-19.9501 0-23.5375-17.15388-23.5375-33.89275h82.9875c0-40.30625-14.3625-76.20125-61.0375-76.20125-40.3 0-60.6375 32.70875-60.6375 69.81375 0 38.6865 23.125 63.02487 61.8125 63.02487 26.35 0 53.4625-11.15625 55.4625-40.6885h-33.5c-2.4125 11.9575-9.175 17.94388-21.55 17.94388m-153.2001-83.37775h-27.925v-49.4575h28.3125c15.975 0 29.1375 6.76625 29.1375 24.33375 0 17.94375-13.1625 25.12375-29.525 25.12375zm31.1125 13.16875c22.35-6.38 39.1125-19.94 39.1125-44.67375 0-34.7175-32.325-46.2775-62.25-46.2775h-74.5925v180.32137h38.6925v-73.00637h30.325c34.7125 0 26.325 48.2675 31.9 73.00637h42.3c-19.1625-33.9175 4-79.79512-45.4875-89.37012m-176.3275-3.1925h-33.5137c-.7975-9.18-9.18-13.9525-17.9438-13.9525-7.9837 0-19.5537 2.39-19.1562 12.76.4 7.98 9.18 10.37125 15.555 11.95875l14.3737 3.60875c21.9438 4.78 47.075 13.9525 47.075 40.28525 0 31.90962-32.7325 41.48587-59.0587 41.48587-25.9275 0-51.4575-11.5635-53.45-39.48975h34.71c1.195 11.16738 9.975 16.74513 20.7475 16.74513 9.5775 0 21.9275-3.984 21.9275-15.54788 0-23.93612-74.995-6.78862-74.995-55.45737 0-29.51875 29.53-39.08875 54.2625-39.08875 22.7412 0 45.4812 9.17125 49.0675 33.90625zm-123.2662 0h-33.51255c-.81375-9.18-9.18-13.9525-17.96-13.9525-7.98375 0-19.55375 2.39-19.15625 12.76.39875 7.98 9.18 10.37125 15.57 11.95875l14.35875 3.60875c21.94375 4.78 47.07505 13.9525 47.07505 40.28525 0 31.90962-32.7175 41.48587-59.04255 41.48587-25.92875 0-51.4575-11.5635-53.46625-39.48975h34.70875c1.195 11.16738 9.97625 16.74513 20.74875 16.74513 9.5775 0 21.94375-3.984 21.94375-15.54788 0-23.93612-75.01125-6.78862-75.01125-55.45737 0-29.51875 29.53-39.08875 54.2625-39.08875 22.7412 0 45.4813 9.17125 49.0675 33.90625zm-165.5763-56.645h39.90475v-31.11325h-39.90475zm1.195 149.20762h37.499v-125.67h-37.499zm-105.71875 0-17.94375-59.84387c-4-13.1625-6.39-26.33875-9.17875-39.50125-2.00875 9.58-3.58625 19.1675-6.39125 28.33375l-2.78875 9.97625-16.74875 61.03512h-44.28625l-41.09625-125.67012h42.29125l17.5625 65.82625 2.39 9.16625 1.99125 8.785c.7975 5.189 1.59375 10.37112 2.39125 15.55375 1.99125-15.15875 5.59375-29.51375 9.5775-43.87625l15.5525-55.455h43.0925l16.35 57.84625c3.99875 13.565 6.78875 27.12375 8.78125 41.09487l1.195-7.1885c1.5925-11.95887 4.78-23.52887 8.3825-35.50012l15.5525-56.2525h40.3025l-43.09 125.67012zm-152.80125-129.66012h-37.1c-.395-17.5625-13.16875-27.53125-30.31625-27.53125-14.76375 0-31.91 5.5775-31.91 23.1475 0 39.8875 104.515 13.5625 104.515 78.9875 0 40.3-34.70875 58.63987-71.41 58.63987-41.89625 0-76.5975-14.74462-76.19625-60.63362h39.49625c0 19.94512 10.7725 33.50862 31.91 33.50862 15.5625 0 36.31125-5.57725 36.31125-24.33612 0-41.8875-102.93-13.55875-102.93-80.98 0-39.90375 37.09875-55.4575 71.40875-55.4575 36.3025 0 63.83 17.555 66.22125 54.655"/></g></svg>