<svg height="190" viewBox="0 0 603.75 142.5" width="805" xmlns="http://www.w3.org/2000/svg"><g fill="#2b73c2" transform="translate(-63.981 -65.107)"><path d="m136.35 67.312c-38.133 0-69.051 30.91-69.059 69.051v.0352c.0039 15.742 5.2773 30.242 14.145 41.852l57.41-75.441-6.1797.0117-6.1289-.0117c-6.5508 0-12.691.46485-17.133 1.3281-2.6875.52734-5.082 1.4922-7.0352 2.875-2.2891 1.6055-5.1563 5.0117-7.0313 8.3594-.21484.39063-.53516.96094-.93359 1.793l-3.3555-.76562 5.6328-21.664h71.91l-57.145 76.402c3.7148-.32813 5.2031-.41406 8.2188-.41406 2.3164 0 5.8359.15234 10.539.42578l10.152.6289c3.6523.20703 6.7461.31641 9.0976.31641 5.2344 0 8.6367-.41016 12.023-1.4453 2.6172-.80469 5.1016-2.0117 7.3906-3.5586 4.0117-2.7812 7.9141-7.2226 10.246-11.684.22656-.44922.59766-1.1406 1.0195-2.0547l3.0586.77735c-.9961 3.7891-1.5195 5.2383-3.0352 8.6211-3.0703 6.8594-6.5391 11.453-11.301 14.973-4.8984 3.6289-10.316 5.4062-16.727 5.5117l-.97657.008c-4.7461 0-8.4141-.39453-19.781-2.1289-11.559-1.7812-17.445-2.3906-23.254-2.3906-3.8867 0-7.5039.29687-11.25.91406-4.9609.78125-6.9062 1.3633-11.406 3.418 12.609 13.75 30.75 22.395 50.887 22.395 38.137 0 69.062-30.926 69.062-69.07 0-38.148-30.926-69.066-69.062-69.066"/><path d="m491.93 115.27c.0156-4.4961.13282-5.7305.70313-7.5547.23437-.72656.5625-1.4336.96875-2.0938.6875-1.1406 1.1797-1.6875 2.5234-2.8086h-21.598c1.3984 1.2109 1.8594 1.7031 2.5039 2.6602.43359.70313.79687 1.4297 1.0391 2.1953.49609 1.625.66406 3.2461.70312 7.2422 0 2.0508.0117 3.4023.0117 4.0625v40.281c0 2.3672-.42187 4.8789-1.0586 6.5156-.26953.67969-.63672 1.3477-1.0742 1.9609-.50391.73828-.86719 1.1445-2.0547 2.3711h21.355c-1.0508-.90625-1.4297-1.3281-2.0703-2.3711-.44922-.66015-.8125-1.3672-1.0703-2.0547-.57422-1.5273-.90625-3.7812-.90625-5.9023v-40.555l.0234-3.9492"/><path d="m635.7 115.24c0-2.9883.23047-5.2656.74219-7.1289.23828-.85938.60547-1.6953 1.0664-2.4805.70312-1.1484 1.2266-1.6992 2.6562-2.8203h-21.953c1.2695 1.0625 1.7109 1.543 2.4609 2.7383.48047.77343.85156 1.5742 1.1133 2.3438.51563 1.5859.72266 3.5547.72266 7.0742v16.344h-30.148v-12.27c0-3.7226.0234-6.1523.17969-7.9844.0859-1.0898.26172-2.0703.54297-2.9219.45703-1.4453 1.6875-3.4531 2.7812-4.5976.14843-.16407.42578-.41797.74218-.72657h-21.562c1.293 1.3281 1.6406 1.7344 2.2148 2.5938.46875.6875.8789 1.4531 1.168 2.2774.55859 1.7031.66406 2.6367.72656 7.1211l.0742 4.2578v36.848c0 3.7305-.0742 5.3711-.27344 7.0859-.12109.86718-.35547 1.7578-.66797 2.6719-.55859 1.4492-1.3281 2.5859-2.5976 3.7617-.15625.15625-.39844.37109-.73829.67188h21.309c-.92969-.96094-1.25-1.3672-1.8086-2.2188-.39062-.64063-.76953-1.3359-1.082-2.0898-.67578-1.7812-.89062-3.0469-.98437-5.9023-.0195-1.4336-.0234-2.7578-.0234-4.0156v-16.305h30.148v16.422c0 3.625-.0391 4.9492-.3086 6.8359-.10546 1.0195-.33984 2.0039-.71875 2.9102-.48828 1.2578-1.2578 2.4062-2.418 3.5234-.20313.17578-.48438.47656-.92579.83985h21.496c-.88672-.87891-1.2227-1.2578-1.7969-2.082-.53515-.74218-.94531-1.4726-1.25-2.207-.65625-1.5938-.80859-2.7656-.88672-6.0898-.0391-1.9766-.0508-3.1289-.0508-3.4844l.0508-37.02v-3.9766"/><path d="m438.1 132.45c-2.3984 1.4102-4.8633 2.2109-8.4688 2.7266-1.3711.21094-2.5664.32032-3.5195.32032-.33984 0-.57422-.008-1.0898-.0508v-24.906c.85937-.0234 1.1797-.0234 1.7578-.0234 3.2969 0 6.5234.38672 9.0469 1.1094 1.6953.48438 3.2774 1.3281 4.5781 2.4336 2.2695 1.9414 3.4648 4.7578 3.4648 8.2656 0 3.0547-.88672 5.6445-2.6328 7.6016-.81641.9336-1.8828 1.7695-3.1367 2.5234zm25.695 32.988c-2.3672-2.2539-4.4844-4.3945-7.6211-7.8164-2-2.1445-3.6367-3.9922-4.9102-5.4727l-10.453-12.305c1.2891-.3789 1.8203-.5625 2.9805-1.0273 3.3984-1.3398 5.9766-2.832 8.3008-4.7969 2.6641-2.2422 4.3008-4.6406 5.293-7.6758.57422-1.7031.82812-3.4414.82812-5.1836 0-4.1367-1.5312-7.8906-4.543-11.035-2.7695-2.9023-6.6133-5.043-10.938-6.0703-3.0156-.69531-6.1445-1.0195-11.496-1.1641-2.0195-.0508-4.1133-.0781-6.2422-.0781h-17.363c1.168 1.0859 1.6016 1.5664 2.2461 2.5352.5039.77344.93359 1.6055 1.1914 2.4531.45313 1.5156.64063 3.6016.64063 7.168v44.152c0 3.1797-.20313 5.0273-.7461 6.5156-.30468.75391-.68359 1.4648-1.1602 2.125-.62891.79688-1.0195 1.2031-2.2734 2.3398h21.395c-.97266-1.0352-1.2656-1.3672-1.8594-2.1875-.47266-.64454-.86329-1.3438-1.1406-2.0547-.57812-1.4883-.84766-3.0977-.85156-6.2188-.0352-1.0078-.0508-2.1445-.0508-3.3672v-15.137l12.469 14.945c.58203.71094 1.5234 1.7891 2.7773 3.2617 1.4648 1.6328 2.5508 2.8555 3.3086 3.6172 2.4024 2.4766 4.6875 4.3008 6.9414 5.5234 1.9531 1.0352 3.7734 1.4726 6.6719 1.5742 1.1016.0312 2.2773.043 3.5078.043h8.4414c-1.1172-.89063-1.5938-1.2695-2.457-2.0234-.91406-.80078-1.8867-1.6641-2.8867-2.6406"/><path d="m556.49 160.38c-4.0469 1.707-7.75 2.4922-11.746 2.4922-6.9609 0-12.914-2.4805-17.328-7.2383-4.3672-4.7148-6.6992-11.25-6.6992-18.645 0-7.0469 2.1797-13.594 6.0703-18.156 1.6836-1.9922 3.7383-3.6641 6.0898-4.9844 3.8125-2.125 8.2344-3.2344 13.027-3.2344 4.1016 0 8.0742.80468 12.082 2.4297 2.4922 1.0156 3.3984 1.5195 5.5352 3.0391v-12.652c-1.6523-.53906-2.3125-.72265-4.082-1.1055-3.8945-.8164-7.6211-1.1914-11.852-1.1914-7.2305 0-13.48 1.1641-19.168 3.5742-3.4024 1.4297-6.5039 3.2773-9.2539 5.4844-8.293 6.6797-12.805 16.348-12.805 27.5 0 10.82 4.3516 20.168 12.289 26.449 6.5547 5.1719 14.996 7.7773 25.133 7.7773 6.332 0 12.25-.9414 18.887-3.0117.2539-.0742.61719-.19531 1.0976-.34765v-12.223c-1.6211 1.0703-2.168 1.418-3.1367 1.9883-1.3047.7461-2.668 1.4453-4.1406 2.0547"/><path d="m377.59 105.42c.42187.71875.77343 1.4883.99218 2.2891.47266 1.625.59375 3.2656.59375 7.043v25.582c0 5.4961-.15625 8.75-.57031 11.43-.25781 1.7891-.86328 3.4492-1.7266 4.9336-1.6367 2.7383-4.6758 4.8438-8.2695 5.7617-1.4609.35547-3.0547.54687-4.7812.54687-5.7695 0-10.727-2.1602-13.137-5.6992-1.8516-2.7461-2.3633-5.3594-2.4492-12.277l-.043-5.5469v-20.289c0-3.9297.0156-5.8008.16016-7.8047.0625-1.2031.23828-2.2461.49219-3.0898.46875-1.5469 1.6133-3.6094 2.6914-4.875.15235-.14062.3125-.32422.57031-.59765h-21.871c1.3477 1.1172 1.7773 1.6328 2.4375 2.7226.42578.73828.76172 1.5234.95313 2.3398.26562 1.0156.42578 2.0586.46093 3.1016.004.65625.0195 2.0547.0234 4.1719l.0312 3.8945v19.273c0 7.1562.0273 8.9688.26953 11.84.39063 4.918 1.8711 8.8438 4.7148 12.406 5.0938 6.4062 13.285 9.7617 23.73 9.7617 4.9922 0 9.8281-.75781 13.516-2.1289 3.8789-1.4414 7.457-3.8398 10.02-6.6797 3.1094-3.4883 4.8984-7.7773 5.4219-13.074.34375-3.0781.46875-6.7461.46875-12.016v-19.352l-.0547-3.8438v-.75781c0-2.8906.16015-4.5781.57422-6.1406.24218-.95703.6289-1.875 1.1641-2.7188.71094-1.1445 1.2188-1.6758 2.6367-2.8008h-21.453c1.3047 1.0312 1.7578 1.5156 2.4336 2.5938"/><path d="m303.81 160.64c-2.9883.54688-6.3711.85157-10.566.95313-1.4141.0391-3.1836.0391-5.3828.0391h-10.309l40.793-58.824h-52.918l-6.4961 14.363c2.1719-1.1562 3.0391-1.5625 4.9141-2.3203 3.0156-1.1914 6.3281-2.1406 9.5156-2.6914 2.7812-.47657 5.3398-.69532 9.4883-.82032 1.8633-.0586 3.6133-.0937 5.2266-.0937h7.8281l-41.168 58.852h58.191l6.7188-15.348c-2.3359 1.3438-3.1641 1.7734-4.9453 2.5859-3.3984 1.5508-7.0664 2.668-10.891 3.3047"/><path d="m657.93 91.574c-3.5664 0-6.3789-2.6328-6.3789-6.5039 0-3.9102 2.8125-6.5234 6.3789-6.5234 3.625 0 6.3594 2.6133 6.3594 6.5234 0 3.8711-2.7344 6.5039-6.3594 6.5039zm0-14.121c-4.2109 0-7.6172 3.1016-7.6172 7.6172 0 4.5391 3.4062 7.5977 7.6172 7.5977 4.1914 0 7.5977-3.0586 7.5977-7.5977 0-4.5156-3.4062-7.6172-7.5977-7.6172"/><path d="m658.07 84.562h-1.8203v-2.5703h1.7227c1.1914 0 2.043.24219 2.043 1.2773 0 .87109-.58594 1.293-1.9453 1.293zm3.2226-1.3164c0-2.0859-1.4375-2.4492-3.7891-2.4492h-2.4297v8.0625h1.1758v-3.1406h2.1055c.082 0 .16406 0 .22266-.01953l1.6836 3.1602h1.3555l-1.8438-3.4219c1.0352-.42578 1.5195-1.2773 1.5195-2.1914"/></g></svg>