<svg height="61.610001" width="315.24399" xmlns="http://www.w3.org/2000/svg"><g transform="translate(-171.47873 -579.25702)"><path d="m171.47873 579.25702h315.24399v61.610001h-315.24399z" fill="#01c1d6"/><path d="m459.18327 624.82273c5.52773 0 8.08776-2.42365 8.08776-6.53334 0-3.58278 0-3.58278 0-3.58278 0-1.15907-.30748-1.68612-1.12628-2.42373-3.6863-3.16134-3.6863-3.16134-3.6863-3.16134 3.6863-3.16136 3.6863-3.16136 3.6863-3.16136.8188-.73761 1.12628-1.26433 1.12628-2.42373 0-3.16098 0-3.16098 0-3.16098 0-4.10985-2.56003-6.53358-8.08776-6.53358-35.0078 0-35.0078 0-35.0078 0v30.98084z" fill="#fff"/><path d="m461.53601 619.55371c-31.62898 0-31.62898 0-31.62898 0 0-7.69228 0-7.69228 0-7.69228h31.62898z" fill="#01c1d6"/><path d="m429.90703 599.11078h31.62898v7.48175c-31.62898 0-31.62898 0-31.62898 0z" fill="#01c1d6"/><path d="m397.96712 624.82273c5.63137 0 8.19141-2.42365 8.19141-6.53334 0-3.58278 0-3.58278 0-3.58278 0-1.15907-.30749-1.68612-1.12629-2.42373-3.6863-3.16134-3.6863-3.16134-3.6863-3.16134 3.6863-3.16136 3.6863-3.16136 3.6863-3.16136.8188-.73761 1.12629-1.26433 1.12629-2.42373 0-3.16098 0-3.16098 0-3.16098 0-4.10985-2.56004-6.53358-8.19141-6.53358-34.90416 0-34.90416 0-34.90416 0v30.98084z" fill="#fff"/><path d="m400.42697 619.55371c-31.63245 0-31.63245 0-31.63245 0 0-7.69228 0-7.69228 0-7.69228h31.63245z" fill="#01c1d6"/><path d="m368.79452 599.11078h31.63245v7.48175c-31.63245 0-31.63245 0-31.63245 0z" fill="#01c1d6"/><g fill="#fff"><path d="m337.77705 593.84189v25.50128c-29.89121 0-29.89121 0-29.89121 0 0-25.50128 0-25.50128 0-25.50128-5.73156 0-5.73156 0-5.73156 0v23.92044c0 4.42599 2.66023 7.0604 7.78028 7.0604h25.79723c5.11661 0 7.77682-2.63441 7.77682-7.0604 0-23.92044 0-23.92044 0-23.92044z"/><path d="m246.56951 606.48725c0-12.64536 0-12.64536 0-12.64536-5.62793 0-5.62793 0-5.62793 0v30.98084h5.62793c0-12.85603 0-12.85603 0-12.85603h30.40252v12.85603h5.63136c0-30.98084 0-30.98084 0-30.98084-5.63136 0-5.63136 0-5.63136 0v12.64536z"/><path d="m224.35839 599.32168c0-5.47979 0-5.47979 0-5.47979-33.37262 0-33.37262 0-33.37262 0-5.11831 0-7.67744 2.63462-7.67744 7.06029v16.86015c0 4.42599 2.55913 7.0604 7.67744 7.0604h33.37262c0-5.47956 0-5.47956 0-5.47956-35.3177 0-35.3177 0-35.3177 0 0-20.02149 0-20.02149 0-20.02149z"/><path d="m480.66647 597.21405c-1.02259 1.05348-2.04521 1.4753-3.48237 1.4753-1.22986 0-2.45285-.42182-3.27507-1.4753-1.02261-.84292-1.4303-2.10769-1.4303-3.37241 0-1.4753.40769-2.52952 1.4303-3.58299.82222-.84293 2.04521-1.4753 3.27507-1.4753 1.43716 0 2.45978.63237 3.48237 1.4753.81534 1.05347 1.43026 2.10769 1.43026 3.58299 0 1.26472-.61492 2.52949-1.43026 3.37241zm-6.34979-6.32303c-.81534.63235-1.22299 1.68583-1.22299 2.95062 0 1.05347.40765 2.10767 1.22299 2.95059.82222.8429 1.84481 1.26473 2.86742 1.26473 1.22987 0 2.2525-.42183 3.07472-1.26473.8153-.84292 1.02261-1.89712 1.02261-2.95059 0-1.26479-.20745-2.31827-1.02261-2.95062-.82222-.84294-1.84485-1.26477-3.07472-1.26477-1.02261 0-2.0452.42183-2.86742 1.26477zm2.86742.21041c.61495 0 1.0226 0 1.43716.21041.61497.21121.81534.6324.81534 1.26473 0 .63239-.20049.84296-.61494 1.05421-.2005.21042-.40769.21042-.61496.42111.41456 0 .61496.21119.82221.42184.20748.21041.20748.63235.20748.84292v.42183c0 .21039.20049.21039.20049.42108v.21121.21041c-.81534 0-.81534 0-.81534 0 0-.21041 0-.21041 0-.21041-.20745-.21121-.20745-.21121-.20745-.21121 0-.42108 0-.42108 0-.42108 0-.6324 0-1.05422-.40765-1.26475-.20747 0-.61496-.21041-1.02261-.21041-.82222 0-.82222 0-.82222 0v2.31822c-.81534 0-.81534 0-.81534 0 0-5.48011 0-5.48011 0-5.48011h1.83795zm1.0226.84297c-.2005-.21042-.61495-.21042-1.22299-.21042-.82222 0-.82222 0-.82222 0v1.89712h1.02261.82222c.40765-.21121.40765-.42182.40765-.84292 0-.4218 0-.63237-.20747-.84362z"/></g></g></svg>