<?xml version="1.0" encoding="utf-8"?>
<!-- Generator: Adobe Illustrator 22.0.1, SVG Export Plug-In . SVG Version: 6.00 Build 0)  -->
<svg version="1.1" id="Layer_1" xmlns="http://www.w3.org/2000/svg" xmlns:xlink="http://www.w3.org/1999/xlink" x="0px" y="0px"
	 width="250.1px" height="54.18px" viewBox="0 0 250.1 54.18" enable-background="new 0 0 250.1 54.18" xml:space="preserve">
<g>
	<path fill="#002F6C" d="M239.44,54.13c5.78,0.04,11.91-5.26,10.36-12.25l-8.02-33.46c-1.03-4.8-5.08-8.33-10.18-8.37H18.39
		C13.54,0.09,9.28,3.62,8.22,8.42L0.28,41.88c-1.49,6.99,4.64,12.28,10.35,12.25H239.44"/>
	<path fill-rule="evenodd" clip-rule="evenodd" fill="#FFFFFF" d="M239.44,48.45c2.56,0,5.06-2.68,4.67-5.35l-8.02-33.21
		c-0.32-2.33-2.08-4-4.49-3.97H18.39c-2.16-0.02-4.13,1.64-4.49,3.97L5.96,43.1c-0.32,2.66,2.07,5.35,4.66,5.35H239.44
		 M239.44,51.04c4.13,0.01,8.59-3.82,7.17-8.73l-7.68-33.28c-0.88-3.44-3.78-5.83-7.33-5.87H18.39c-3.4,0.04-6.41,2.43-7.16,5.87
		L3.56,42.3c-1.34,4.91,3.01,8.75,7.07,8.73H239.44z M82.57,16.25c-3.74,0-6.44,1.91-7.84,4.81l-0.27-8.53h-1.01
		c-0.65,1.62-1.35,1.71-2.84,1.24c-0.69-0.23-1.53-0.55-2.53-0.82c-1.01-0.28-2.2-0.49-3.63-0.49c-8.36-0.02-14.22,6.24-14.2,14.67
		c-0.02,9.26,6.17,14.57,14.28,14.59c4.05-0.03,7.78-1.92,10.29-5.1l-0.8-1.01c-2.86,2.89-5.06,3.99-9.16,4.01
		c-6.67-0.01-9.66-6.28-9.64-12.15c-0.02-7.57,2.99-13.41,9.38-13.1c7.01,0.35,8.9,5.53,8.96,12.06c-0.02,5.15,3.63,9.72,9,9.68
		c5.8,0.04,9.33-4.99,9.33-10.54C91.9,20.09,88.1,16.29,82.57,16.25z M87.76,28.06c-0.32,3.62-2.09,6.92-5.19,6.64
		c-3.8-0.34-5.38-5.04-4.87-10.94c0.34-3.66,2.15-6.33,5.11-6.11C87.38,18.09,88.1,24.24,87.76,28.06z M123.27,34.97v0.8h-8.83v-0.8
		c1.85-0.19,2.56-0.76,2.56-2.67v-8.62c0.04-3.99-0.62-4.99-3.15-4.99c-1.82,0-3.35,0.97-4.25,2.51v11.1
		c-0.03,1.92,0.7,2.49,2.56,2.67v0.8h-8.92v-0.8c1.89-0.19,2.62-0.74,2.66-2.67l0.01-8.8c0-2.17-0.18-4.81-2.82-4.81
		c-1.66,0-3.68,0.97-4.69,2.42V32.3c0.03,1.93,0.77,2.49,2.66,2.67v0.8h-8.94v-0.8l0.1-0.02c1.93-0.18,2.5-0.89,2.47-2.65V22.03
		c0.15-2.27-0.4-2.67-2.57-2.66v-0.95l6.27-2.23v2.9c0.02,0.37,0.07,0.38,0.36,0.15c0.32-0.3,0.59-0.66,0.95-0.91
		c1.47-1.14,3.18-2.08,5.1-2.08c2.06,0,3.71,1.51,4.24,3.51c1.53-1.77,4.05-3.51,6.36-3.51c5.03,0,5.31,4.37,5.31,8.12v7.93
		C120.7,34.21,121.41,34.79,123.27,34.97z M139.01,28.65c-1.25,2.22-3.48,4.48-6.26,4.5c-4.51-0.02-6.47-5.06-6.56-9.02h12.83
		c-0.11-4.42-2.69-7.87-7.37-7.87c-5.16,0-8.49,4.36-8.49,10.35c0,5.06,3.11,9.55,7.96,9.51c4.34,0.04,7.48-3.5,8.78-7.25
		L139.01,28.65z M130.77,17.93c2.58-0.02,3.69,2.24,3.83,4.61h-8.24C126.72,19.98,127.99,17.93,130.77,17.93z M195.91,36.05
		l-10.02-23.61h-0.99l-6.7,16c-1.17,2.81-2.97,4.52-6.14,4.52c-4.18,0.09-6.33-4.22-6.33-8.08c0.02-3.46,1.74-7.21,5.22-7.24
		c2.15,0.02,3.09,1.2,3.06,2.82c0.03,0.99,0.98,1.96,1.98,1.92c1.02,0.04,1.97-0.86,1.98-1.92c-0.19-2.95-3.9-4.22-6.26-4.22
		c-6.22,0-9.35,4.86-9.32,10.35c-0.03,5.27,3.27,9.55,7.79,9.51c2.74,0.01,4.72-1.25,6.21-3.06c-0.65,1.59-1.35,3.43-2.23,4.87
		c-0.7,1.16-1.53,2.08-2.97,2.22v0.96h8.32v-0.97c-0.98-0.02-2.79-0.18-2.82-1.72c0.03-1.54,1.65-4.73,2.19-6.37h10.71l1.44,3.48
		c1.35,3.2,2.04,4.38-1.89,4.61v0.96h10.71l-0.11-0.97C197.51,40.23,196.66,37.7,195.91,36.05z M179.73,30.13l4.57-11.27l4.63,11.27
		H179.73z M163.28,34.97v0.8h-9.95v-0.8l0.08-0.02c2.47-0.18,3.04-0.91,3.08-2.65V22.03c0.09-2.82-1.24-2.59-3.17-1.54
		c-0.41,0.27-0.96,0.3-1.54,0.17c-0.43-0.06-0.67-0.27-0.92-0.58l-0.22-0.28c-0.28-0.36-0.64-0.72-1.59-0.78
		c-0.78,0-2.47,2.04-2.45,3.19V32.3c-0.01,2.17,1.06,2.51,3.07,2.67v0.8h-9.85v-0.8c2.49-0.2,3.06-0.93,3.08-2.67v-9.24
		c-0.01-2.96,0.09-4.61-3.08-3.66v-0.9l6.78-2.32v3.58c0.89-1.44,2.6-3.52,4.61-3.52c1.35,0,2.53,0.76,2.75,2.08l6.15-2.49
		l0.08,16.45C160.15,34.48,161.26,34.81,163.28,34.97z"/>
</g>
</svg>
