<svg xmlns="http://www.w3.org/2000/svg" fill="none" viewBox="0.03 0.3 162.95 34.98"><g clip-path="url(#a)"><path fill="#002F6C" d="M156.052 35.25c3.767.026 7.762-3.398 6.752-7.913l-5.227-21.615c-.671-3.101-3.311-5.381-6.635-5.407H11.985C8.824.34 6.048 2.62 5.357 5.722L.182 27.337c-.971 4.515 3.024 7.933 6.745 7.913h149.125Z"/><path fill="#fff" fill-rule="evenodd" d="M156.052 31.58c1.668 0 3.298-1.73 3.043-3.455L153.868 6.67c-.208-1.505-1.355-2.584-2.926-2.564H11.985c-1.408-.013-2.692 1.06-2.927 2.564L3.884 28.125c-.209 1.718 1.349 3.456 3.037 3.456h149.131Zm0 1.674c2.691.006 5.598-2.468 4.673-5.64l-5.006-21.498c-.573-2.222-2.463-3.766-4.777-3.792H11.985a4.838 4.838 0 0 0-4.667 3.792L2.32 27.608c-.873 3.172 1.962 5.652 4.608 5.64h149.125v.006ZM53.813 10.78c-2.437 0-4.197 1.234-5.11 3.107l-.175-5.51h-.658c-.424 1.046-.88 1.104-1.851.8-.45-.148-.998-.355-1.65-.529a8.796 8.796 0 0 0-2.365-.317c-5.449-.012-9.268 4.032-9.255 9.477-.013 5.982 4.021 9.412 9.307 9.425 2.64-.02 5.07-1.24 6.706-3.294l-.521-.653c-1.864 1.867-3.298 2.578-5.97 2.59-4.347-.006-6.296-4.056-6.283-7.848-.013-4.89 1.949-8.663 6.114-8.463 4.568.226 5.8 3.573 5.84 7.791-.014 3.327 2.365 6.28 5.865 6.253 3.78.026 6.08-3.223 6.08-6.809.007-3.54-2.47-5.994-6.074-6.02Zm3.383 7.629c-.209 2.338-1.362 4.47-3.383 4.29-2.476-.22-3.506-3.256-3.174-7.068.222-2.364 1.402-4.089 3.33-3.947 2.98.284 3.448 4.257 3.227 6.725Zm23.143 4.464v.517h-5.755v-.517c1.206-.123 1.669-.491 1.669-1.725v-5.569c.026-2.577-.404-3.223-2.053-3.223-1.186 0-2.184.627-2.77 1.621v7.171c-.02 1.24.456 1.608 1.668 1.725v.517h-5.813v-.517c1.232-.123 1.707-.478 1.734-1.725l.006-5.685c0-1.401-.117-3.107-1.838-3.107-1.082 0-2.398.627-3.057 1.563v7.229c.02 1.247.502 1.608 1.734 1.725v.517h-5.827v-.517l.066-.013c1.258-.116 1.629-.575 1.61-1.712v-6.634c.097-1.467-.261-1.725-1.675-1.719v-.613l4.086-1.441v1.873c.013.24.046.246.235.097.208-.194.384-.426.619-.588.958-.736 2.072-1.343 3.324-1.343 1.342 0 2.417.975 2.763 2.267.997-1.143 2.64-2.267 4.145-2.267 3.278 0 3.46 2.823 3.46 5.245v5.123c-.006 1.234.457 1.608 1.67 1.725Zm10.259-4.083c-.815 1.434-2.269 2.894-4.08 2.907-2.94-.013-4.217-3.269-4.276-5.827h8.362c-.072-2.855-1.753-5.084-4.803-5.084-3.363 0-5.534 2.817-5.534 6.686 0 3.269 2.027 6.17 5.188 6.144 2.829.026 4.875-2.261 5.723-4.684l-.58-.142Zm-5.37-6.925c1.68-.013 2.404 1.447 2.495 2.978h-5.37c.235-1.654 1.062-2.978 2.874-2.978Zm42.454 11.705L121.151 8.32h-.645l-4.367 10.335c-.762 1.816-1.935 2.92-4.001 2.92-2.725.058-4.126-2.726-4.126-5.22.013-2.234 1.134-4.657 3.402-4.676 1.401.013 2.014.775 1.994 1.821.02.64.639 1.267 1.291 1.24.665.027 1.284-.555 1.29-1.24-.123-1.905-2.541-2.726-4.08-2.726-4.053 0-6.093 3.14-6.074 6.686-.019 3.405 2.131 6.17 5.077 6.144 1.786.006 3.077-.808 4.048-1.977-.424 1.027-.88 2.216-1.454 3.146-.456.75-.997 1.344-1.935 1.434v.62h5.422V26.2c-.639-.013-1.818-.117-1.838-1.111.02-.995 1.075-3.056 1.427-4.115h6.981l.938 2.248c.88 2.067 1.33 2.83-1.232 2.978v.62h6.98l-.071-.627c-1.454.078-2.008-1.557-2.496-2.623Zm-10.546-3.824 2.979-7.28 3.017 7.28h-5.996Zm-10.721 3.127v.517H99.93v-.517l.053-.013c1.609-.116 1.981-.588 2.007-1.712v-6.634c.059-1.822-.808-1.673-2.066-.995-.267.174-.626.194-1.004.11-.28-.04-.436-.175-.6-.375l-.143-.18c-.182-.233-.417-.466-1.036-.505-.508 0-1.61 1.318-1.597 2.06v6.519c-.006 1.402.691 1.622 2.001 1.725v.517h-6.42v-.517c1.623-.13 1.995-.601 2.008-1.725v-5.969c-.007-1.912.059-2.978-2.007-2.364v-.582l4.418-1.498v2.312c.58-.93 1.695-2.274 3.005-2.274.88 0 1.649.491 1.792 1.344l4.008-1.609.052 10.627c-.026 1.421.698 1.634 2.014 1.738Z" clip-rule="evenodd"/></g><defs><clipPath id="a"><path fill="#fff" d="M0 .282h163v35H0z"/></clipPath></defs></svg>