<svg xmlns="http://www.w3.org/2000/svg" xmlns:xlink="http://www.w3.org/1999/xlink" xml:space="preserve" id="Layer_1" x="0" y="0" style="enable-background:new 0 0 169 33" version="1.1" viewBox="0 0 169 33"><style>.st1{fill:#01c1d6}.st2{fill:#fff}</style><defs><path id="SVGID_1_" d="M0 0h169v33H0z"/></defs><clipPath id="SVGID_2_"><use xlink:href="#SVGID_1_" style="overflow:visible"/></clipPath><g style="clip-path:url(#SVGID_2_)"><path d="M169 0H0v33h169V0z" class="st1"/><path d="M154.2 24.4c3 0 4.3-1.3 4.3-3.5V19c0-.6-.2-.9-.6-1.3l-2-1.7 2-1.7c.4-.4.6-.7.6-1.3v-1.7c0-2.2-1.4-3.5-4.3-3.5h-18.8v16.6h18.8z" class="st2"/><path d="M155.5 21.6h-17v-4.1h17v4.1zM138.5 10.6h17v4h-17v-4z" class="st1"/><path d="M121.4 24.4c3 0 4.4-1.3 4.4-3.5V19c0-.6-.2-.9-.6-1.3l-2-1.7 2-1.7c.4-.4.6-.7.6-1.3v-1.7c0-2.2-1.4-3.5-4.4-3.5h-18.7v16.6h18.7z" class="st2"/><path d="M122.7 21.6h-17v-4.1h17v4.1zM105.8 10.6h17v4h-17v-4z" class="st1"/><path d="M89.2 7.8v13.7h-16V7.8h-3.1v12.8c0 2.4 1.4 3.8 4.2 3.8h13.8c2.7 0 4.2-1.4 4.2-3.8V7.8h-3.1zM40.3 14.6V7.8h-3v16.6h3v-6.9h16.3v6.9h3V7.8h-3v6.8H40.3zM28.3 10.7V7.8H10.4c-2.7 0-4.1 1.4-4.1 3.8v9c0 2.4 1.4 3.8 4.1 3.8h17.9v-2.9H9.4V10.8h18.9zM165.8 9.6c-.5.6-1.1.8-1.9.8-.7 0-1.3-.2-1.8-.8-.5-.5-.8-1.1-.8-1.8 0-.8.2-1.4.8-1.9.4-.5 1.1-.8 1.8-.8.8 0 1.3.3 1.9.8.4.6.8 1.1.8 1.9-.1.7-.4 1.4-.8 1.8zm-3.4-3.4c-.4.3-.7.9-.7 1.6 0 .6.2 1.1.7 1.6.4.5 1 .7 1.5.7.7 0 1.2-.2 1.6-.7.4-.5.5-1 .5-1.6 0-.7-.1-1.2-.5-1.6-.4-.5-1-.7-1.6-.7-.6.1-1.1.3-1.5.7zm1.5.1c.3 0 .5 0 .8.1.3.1.4.3.4.7 0 .3-.1.5-.3.6-.1.1-.2.1-.3.2.2 0 .3.1.4.2.1.1.1.3.1.5v.2c0 .1.1.1.1.2v.2h-.4v-.1l-.1-.1v-.2c0-.3 0-.6-.2-.7-.1 0-.3-.1-.5-.1h-.4v1.2h-.4V6.3h.8zm.5.5c-.1-.1-.3-.1-.7-.1h-.4v1h.9c.2-.1.2-.2.2-.5.1-.2.1-.3 0-.4z" class="st2"/></g></svg>