<svg fill="none" xmlns="http://www.w3.org/2000/svg" xmlns:xlink="http://www.w3.org/1999/xlink" viewBox="0.1 0.75 155.02 38.03"><clipPath id="a"><path d="m.099.782h155v38h-155z"/></clipPath><g clip-path="url(#a)"><path d="m16.455 38.658a4.635 4.635 0 0 1 -.849-.28l-.374-.179.03-1.835c1.502.646 2.264.873 3.34.541.394-.121.739-.475.739-.958 0-.858-.774-1.205-1.492-1.787-.775-.63-1.504-1.418-1.476-2.55.07-2.86 2.99-3.447 5.25-2.744.538.179.997.397.997.397l-.762 1.585s-.335-.134-.655-.239c-1.126-.37-1.873-.333-2.334.12-.432.423-.4 1.145.072 1.608.128.125.509.418.846.65 1.143.785 1.583 1.457 1.658 2.529.138 1.981-1.366 3.265-3.806 3.248a7.287 7.287 0 0 1 -1.184-.106zm7.046-3.71c.332-1.632 1.358-6.198 1.358-6.198h2.098l-1.41 6.744c-.141.797.169 1.486 1.292 1.498.869 0 1.48-.434 1.803-1.282.569-2.276 1.557-6.96 1.557-6.96h2.17s-.883 3.933-1.311 5.943c-.429 2.01-1.278 4.05-4.52 4.05-3.243 0-3.295-2.508-3.037-3.795zm40.58 3.77c-2.244-.368-3.295-2.388-2.753-5.286.445-2.379 1.954-4.175 3.936-4.685 1.08-.278 2.76-.134 3.805.326.396.174.453.225.409.365-.077.24-.736 1.517-.784 1.517-.023 0-.218-.088-.435-.195-1.781-.885-3.46-.326-4.322 1.442-.442.906-.591 1.642-.552 2.722.026.699.065.93.202 1.187.22.41.572.699.99.81.638.17 1.951.005 2.946-.37.089-.033.109.124.109.847v.887l-.572.164c-.995.284-2.214.395-2.98.27zm19.816-.03c-.556-.107-1.314-.496-1.696-.871-.71-.696-1.001-1.553-1.004-2.953-.006-2.903 1.468-5.284 3.73-6.026.866-.284 2.525-.303 3.38-.04.438.134 1.185.47 1.185.532 0 .055-.705 1.554-.76 1.618-.016.017-.268-.077-.561-.21-2.113-.954-3.839-.103-4.598 2.268-.246.768-.307 2.161-.122 2.787.17.57.569.989 1.072 1.123.658.175 1.956.016 2.966-.364.088-.034.109.123.109.846v.887l-.573.164c-1.082.31-2.284.401-3.128.239zm8.712.004c-1.5-.302-2.467-1.298-2.728-2.81-.13-.752-.047-1.997.192-2.923.434-1.674 1.24-2.875 2.442-3.638 1.51-.958 3.85-.955 5.09.006.955.74 1.312 1.873 1.185 3.76-.075 1.115-.29 1.91-.78 2.886-.739 1.469-1.878 2.381-3.35 2.683-.593.122-1.54.138-2.051.036zm2.052-1.894c.847-.4 1.581-1.523 1.86-2.846.167-.794.197-1.9.066-2.41-.177-.69-.847-1.2-1.577-1.204-.638-.002-1.087.205-1.653.766-.768.76-1.154 1.638-1.344 3.055-.256 1.904.36 2.877 1.78 2.813.335-.015.676-.084.868-.174zm-56.94 1.82-1.404-3.754h-.836l-.801 3.753h-2.134s1.442-6.61 2.146-9.867l2.462.005c1.988-.004 3.66.832 3.247 3.194-.239 1.458-1.03 2.044-2.167 2.47l1.776 4.07c1.745-3.24 5.185-9.739 5.185-9.739h2.641l.982 9.867h-2.065l-.133-2.321h-3.278l-1.176 2.321h-4.446zm8.495-8.275-2 4.173h2.29zm-8.626 2.52c.479-.274.685-.658.685-1.275 0-.766-.397-1.097-1.319-1.097h-.537l-.564 2.65.683-.033c.566-.026.746-.068 1.052-.244zm-35.34-4.113 2.085.004-2.125 9.864h-2.11zm2.397 9.867 2.163-9.867h2.425l2.344 7.205 1.536-7.205h1.891l-2.136 9.867-2.36.004-2.458-7.356-1.515 7.352zm47.517-9.875 2.474.008 2.31 7.159 1.569-7.159h1.884l-2.12 9.867h-2.376l-2.455-7.4-1.505 7.4h-1.913zm19.31.008h5.641l-.372 1.703h-3.505l-.503 2.198h3.311l-.376 1.71h-3.284l-.558 2.554h3.534l-.37 1.702h-5.638zm30.3 0h2.779l.503 7.43 3.809-7.43 2.885.018-2.094 9.85h-1.948l1.666-7.497-3.863 7.496h-1.958l-.429-7.468-1.578 7.468h-1.892zm12.413 0h2.738c2.366 0 3.449 1.703 2.872 3.901-.561 2.095-2.691 2.503-4.871 2.506l-.746 3.46h-2.099zm1.677 4.638c1.048-.032 1.726-.561 1.867-1.262.245-1.035-.276-1.629-1.28-1.635h-.511l-.571 2.91zm8.447-4.638h2.627l1.006 9.867h-2.053l-.195-2.321h-3.244l-1.148 2.321h-2.226zm1.024 1.63-1.988 4.096 2.264.04-.276-4.137zm3.828 8.237 2.117-9.867h2.465l2.354 7.216 1.533-7.216h1.893l-2.104 9.867h-2.392l-2.459-7.387-1.518 7.387zm12.4 0 .801-3.76-1.627-6.107h2.165l.924 3.835 2.528-3.835h2.376l-4.282 6.132-.801 3.735z" fill="#2f313f"/><path d="m3.75 21.705c-1.11-.148-2.334-.53-3.09-.964l-.344-.198v-3.86l.494.265c1.698.912 3.884 1.403 5.38 1.208 1.22-.16 1.988-.555 2.394-1.232.19-.316.216-.44.215-1.018 0-1.197-.38-1.702-2.412-3.21-2.295-1.705-3.238-2.959-3.55-4.72-.118-.663-.053-2.075.126-2.71.597-2.13 2.237-3.635 4.653-4.271.725-.192.915-.21 2.328-.213 1.658-.005 2.314.08 3.58.47.723.222 2.023.79 2.023.885 0 .033-.288.664-.64 1.4-.352.737-.688 1.45-.748 1.586l-.108.245-.653-.26c-1.25-.498-1.987-.67-3.07-.713-.802-.033-1.08-.015-1.42.09-1.186.366-1.842 1.384-1.647 2.557.158.956.608 1.463 2.333 2.626 1.369.924 2.478 2.01 2.932 2.873.421.799.643 1.592.703 2.513.213 3.299-1.822 5.758-5.379 6.5-.908.19-3.183.273-4.1.15zm16.65-20.667 3.355.031c3.707.034 3.93.058 5.188.558 1.22.484 2.142 1.29 2.654 2.319.825 1.659.861 4.073.09 5.936-.572 1.379-1.994 2.752-3.546 3.426-1.342.582-2.624.824-4.7.887l-1.535.047-1.538 7.236h-4.366s2.93-13.627 4.399-20.44zm4.46 9.487c.281-.064.654-.171.828-.238.524-.202 1.257-.767 1.563-1.205.46-.659.556-.996.562-1.96.005-.78-.012-.887-.215-1.292-.248-.494-.556-.784-1.081-1.018-.287-.128-.565-.164-1.44-.19-.598-.018-1.086-.012-1.086.012-.407 2.095-.85 3.72-1.262 5.945 0 .11 1.587.07 2.13-.054zm12.574-9.487h4.34l-4.456 20.44h-4.347zm9.381.01h5.106l4.811 14.897 3.21-14.859 3.92-.041-.035.183-4.36 20.25h-4.906l-5.12-15.464-3.121 15.464h-3.925l4.42-20.43zm22.093 0h5.11l4.856 14.996 3.166-14.958 3.9.018-4.376 20.374h-4.908l-5.12-15.464-3.113 15.464h-3.932l4.415-20.43zm26.022-.01h5.433l2.089 20.44h-4.25l-.366-4.877-6.727.04-2.44 4.837h-4.576c3.635-6.82 7.209-13.616 10.837-20.44zm2.177 3.067-4.21 8.86h4.723zm12.288-3.057 4.376-.01-2.087 9.574 7.979-9.564 5.169-.01-8.413 9.79 4.083 10.65h-4.829l-3.069-8.164-1.724 1.005-1.54 7.16h-4.362l4.417-20.431zm17.919 0 11.734-.01-.786 3.511h-7.325l-.962 4.516 6.807.015-.774 3.537h-6.748l-1.179 5.208 7.278.093-.041.175-.721 3.385h-11.663l4.38-20.43zm15.843-.01s1.27-.019 3.543 0c3.501.03 3.524.059 4.268.256.959.255 1.65.566 2.257 1.018 1.088.808 1.682 1.97 1.836 3.597.295 3.105-1.191 5.55-4.082 6.718-.245.1-.44.207-.432.24 1.251 3.034 3.679 8.611 3.679 8.611h-4.743l-2.903-7.766h-1.768l-1.655 7.766h-4.381c1.444-6.79 2.929-13.651 4.381-20.44zm4.869 8.942c.624-.127 1.216-.38 1.654-.707.591-.442.971-1.377.971-2.385 0-1.006-.364-1.64-1.165-2.023-.418-.201-.772-.29-1.802-.316h-.866c-.449 1.89-1.235 5.551-1.235 5.551l.92.002c.531 0 1.175-.052 1.523-.122z" fill="#321e79"/></g></svg>