<svg xmlns="http://www.w3.org/2000/svg" xml:space="preserve" id="Layer_1" x="0" y="0" style="enable-background:new 0 0 87 44" version="1.1" viewBox="0 0 87 44"><style>.st0{fill:#233776}</style><path d="M0 0h81.4v44H0V0zm3.4 3.4v37.2H78V3.4H3.4z" class="st0"/><path d="M57.1 9.3c2.3-.3 4.7-.1 6.9.8 2.1.9 3.8 2.4 5.2 4.1-.9.9-1.8 1.7-2.7 2.6-1-1.4-2.3-2.6-3.9-3.3-1.7-.8-3.6-.9-5.3-.6-3.2.6-5.9 3.1-6.9 6.1-.5 1.6-.6 3.3-.3 5 .3 1.6 1.1 3.2 2.3 4.4 1.3 1.3 2.8 2.3 4.6 2.8 1.6.4 3.3.3 4.8-.3 1.2-.5 2.3-1.4 3.2-2.4.8-.9 1.2-2.1 1.4-3.3h-6.2v-3.5h10.2c0 1.8-.1 3.5-.5 5.3-.4 1.7-1.4 3.3-2.6 4.6-1.1 1.2-2.5 2.1-4 2.7-1.8.7-3.8.9-5.8.8-2-.2-4-.9-5.6-2-2.6-1.8-4.6-4.5-5.3-7.6-.6-2.5-.6-4.9 0-7.1.8-3 2.9-5.5 5.4-7.2 1.5-1 3.3-1.7 5.1-1.9zM8.9 34.4c3.8-8.2 7.7-16.5 11.5-24.7h1.4c3.7 8.2 7.4 16.5 11.1 24.7h-4.1c-.8-2-1.7-4-2.6-6H15.6l-2.7 6h-4zM21 16.5c-1.3 2.8-2.5 5.5-3.8 8.3h7.5c-1.2-2.7-2.4-5.5-3.6-8.2 0 0-.1 0-.1-.1zM36.8 34.4V9.7h3.7v24.7h-3.7zM84.8 40.6c.6-.2 1.3 0 1.7.5.7.7.6 1.9-.1 2.5-.6.5-1.5.6-2.1.2-.5-.3-.8-.9-.8-1.5 0-.9.6-1.6 1.3-1.7zm.1.2c-.8.2-1.2 1.2-.9 2 .3.6 1 1 1.7.8.8-.2 1.2-1.3.9-2-.3-.6-1.1-1-1.7-.8z" class="st0"/><path d="M84.6 41.2c.4 0 .8-.1 1.2.1.5.2.3 1.1-.2 1.1l.6.9h-.4c-.2-.3-.3-.5-.5-.8-.1-.1-.2-.1-.3-.1v.9h-.3c-.1-.7-.1-1.4-.1-2.1zm.3.3v.6h.6c.2-.1.2-.5 0-.5-.1-.1-.4-.1-.6-.1z" class="st0"/></svg>