<svg xmlns="http://www.w3.org/2000/svg" xml:space="preserve" id="Layer_1" x="0" y="0" style="enable-background:new 0 0 1920 391.4" version="1.1" viewBox="0 0 1920 391.4"><style>.st0{fill:#ec1c24}.st1{fill:#243c7f}</style><g id="cw_logo"><g id="Group_4"><g id="Group_1" transform="translate(1059.785)"><path id="Path_1" d="M0 103.4h47l39.2 149.3h.5l37.6-149.3h44.4l36 149.3h.5l40.7-149.3h44.9l-62.7 200h-45.4l-37.1-148.8h-.5l-36.6 148.8H62.1L0 103.4z" class="st0"/><path id="Path_2" d="M319.6 103.4h41.3V142h.5c1-5.2 3.7-10.4 7.3-15.7 3.8-5.3 8.4-10.1 13.6-14.1 5.3-4.4 11.3-7.9 17.8-10.4 6.3-2.5 13.1-3.8 19.8-3.7 5.2 0 8.9 0 10.4.5 2.1 0 4.2.5 5.7.5v42.3l-9.4-1.6c-3.1-.4-6.3-.6-9.4-.5-14.7.1-28.6 6.6-38.1 17.8-5.2 6.3-9.1 13.6-11.5 21.4-2.9 9.5-4.3 19.3-4.2 29.2v95.6h-43.9V103.4z" class="st0"/><path id="Path_3" d="M456.9 103.4h43.9v200h-43.9v-200zm-3.1-31.8c0 3.2 2.6 5.7 5.7 5.7H496c3.2 0 5.7-2.6 5.7-5.7V57c-28.2 9.9-48-35-53.8-56.9-.9-1.6 5.9 47.5 5.9 71.5" class="st0"/><path id="Path_4" d="M529 103.4h33.4v-60h43.9v60.1H646v32.9h-39.7v107c-.1 4 .1 8 .5 12 .5 3.1 1 6.3 2.6 8.4 1.6 2.3 3.7 4.1 6.3 5.2 2.6 1 6.8 1.6 11.5 1.6h9.4c3.2 0 6.4-.5 9.4-1.6v33.9c-4.7.5-9.9 1-14.1 1.6-4.7.4-9.4.6-14.1.5-11.5 0-20.9-1-28.2-3.1-7.3-2.1-12.5-5.2-16.7-9.9-4.2-4.2-6.8-9.4-8.4-16.2-1.6-6.3-2.1-13.6-2.6-21.9V136.3h-33.4v-32.9h.5z" class="st0"/><path id="Path_5" d="M712.3 214.7c0 7.6 1 15.2 3.1 22.5C719.3 251 729 262.6 742 269c6.8 3.1 14.6 4.7 24 4.7 13.1 0 23.5-2.6 31.3-8.4 7.8-5.7 13.6-14.1 17.8-25.1h41.8c-2 10.4-6.1 20.4-12 29.2-5.5 8.2-12.4 15.5-20.4 21.4-8.1 6.1-17.3 10.5-27.2 13.1-10.1 3.2-20.7 4.8-31.3 4.7-15.7 0-29.8-2.6-41.8-7.8-11.7-5-22.3-12.5-30.8-21.9-8.6-9.7-15-21.1-18.8-33.4-4.3-13.9-6.4-28.3-6.3-42.8 0-14.1 2.1-27.7 6.8-40.2 4.7-12.5 11-24 19.3-33.4 8.3-9.8 18.6-17.6 30.3-23 12-5.7 25.1-8.4 40.2-8.4 15.7 0 29.8 3.1 42.3 9.9 12.5 6.8 23 15.1 31.3 26.1 8.4 11 14.1 23.5 17.8 37.6 3.7 14.1 4.7 28.8 3.1 43.3l-147.1.1zm102.8-28.8c-.6-7-2.2-13.8-4.7-20.4-2.4-6.1-5.7-11.7-9.9-16.7-4.3-5-9.6-8.9-15.7-11.5-6.3-3.1-13.3-4.8-20.4-4.7-7.2 0-14.3 1.4-20.9 4.2-6.1 2.5-11.6 6.3-16.2 11-4.7 4.8-8.4 10.5-11 16.7-2.7 6.7-4.2 13.7-4.7 20.9H815v.5z" class="st0"/></g><g id="Group_2" transform="translate(0 26.668)"><path id="Path_6" d="M180.2 44.9C166.1 35 149.3 30.3 130 30.3c-16.7 0-30.8 3.1-42.3 9.4-11.4 6.2-21.4 14.7-29.2 25.1-7.8 10.4-13.1 22.5-16.7 36-3.6 13.6-5.4 27.7-5.2 41.8-.2 15.1 1.6 30.2 5.2 44.9 3.3 13.1 9 25.5 16.7 36.6 7.7 10.5 17.7 19.1 29.2 25.1 12 6.3 26.1 9.4 42.8 9.4 11.1.1 22-1.8 32.4-5.7 9.4-4.2 17.8-9.4 24.5-16.7 6.9-7.5 12.4-16.2 16.2-25.6 3.9-10.2 6.2-20.9 6.8-31.9H247c-3.7 35-15.7 62.1-36 81.5-20.4 19.3-48 29.2-83.5 29.2-21.4 0-40.2-3.7-55.9-11-16.3-7.4-29.3-17.3-39.8-30.4s-18.3-28.2-24-45.4C2.5 184.3-.1 165.3 0 146.2c0-19.8 2.6-39.2 8.4-56.9 5.4-16.9 13.9-32.7 25.1-46.5 11.3-13.4 25.4-24.1 41.3-31.3C90.9 3.7 109.7 0 131.1 0c13.9 0 27.8 1.9 41.3 5.7 12.5 3.4 24.2 9.2 34.5 17.2 10.2 7.6 18.7 17.2 25.1 28.2 6.8 11 11 24 13.1 38.6h-36.6c-5.4-20.3-14.2-35.4-28.3-44.8z" class="st1"/><path id="Path_7" d="M365.5 310.9c-3.1 8.5-7 16.7-11.5 24.5-3.3 6.2-7.5 11.8-12.5 16.7-4.4 4.1-9.5 7.3-15.1 9.4-6.2 2.2-12.7 3.2-19.3 3.1-3.8.1-7.7-.1-11.5-.5-3.7-.6-7.4-1.4-11-2.6v-30.3c3.2 1.4 6.5 2.5 9.9 3.1 3 .9 6.2 1.5 9.4 1.6 6.8 0 12.5-1.6 16.7-4.7 4.7-3.1 7.8-7.8 10.4-13.6l13.6-33.4-79.4-199h37.1l58.5 162.4h.5l55.9-164h35l-86.7 227.3z" class="st1"/><path id="Path_8" d="M514.9 5.7v103.4h.5c5.2-10.9 14.3-19.5 25.6-24 11.5-5.2 24.5-7.3 38.1-7.3 15.7 0 28.7 2.6 40.2 8.4 11.1 5.6 20.9 13.4 28.7 23 7.9 9.9 13.7 21.3 17.2 33.4 7.7 26.3 7.7 54.2 0 80.4-3.4 12-9.3 23.2-17.2 32.9-7.9 9.4-17.7 17.1-28.7 22.5-12.7 5.6-26.4 8.5-40.2 8.4-5.4-.1-10.8-.6-16.2-1.6-6.1-.9-12.1-2.7-17.8-5.2-6-2.2-11.7-5.4-16.7-9.4-5.4-4.1-10-9.3-13.6-15.1h-.5V282h-32.9V5.7h33.5zm118 147.3c-2.5-8.5-6.2-16.6-11-24a60.62 60.62 0 0 0-19.3-16.7c-7.8-4.2-17.2-6.3-27.7-6.3-11 0-20.4 2.1-28.2 6.8-7.7 4-14.1 10-18.8 17.2-4.8 7.3-8.4 15.5-10.4 24-2.1 9.1-3.1 18.4-3.1 27.7-.1 9.5 1.1 19 3.7 28.2 3.7 17.3 14.7 32.2 30.3 40.7 7.8 4.2 17.8 6.3 29.2 6.3s20.9-2.1 28.2-6.8c7.8-4.2 13.6-10.4 18.3-17.2 4.7-7.6 8-15.9 9.9-24.5 2.1-9.4 3.2-19.1 3.1-28.7-.4-9.1-1.8-18-4.2-26.7z" class="st1"/><path id="Path_9" d="M851.7 271c-15.1 11.6-33.9 17.4-56.4 17.4-16.2 0-29.8-2.6-41.8-7.9-11.4-5.2-21.5-12.8-29.8-22.2-8.3-9.9-14.3-21.4-17.8-33.8-4.2-13.2-6.3-27.5-6.8-42.8 0-15.3 2.1-29.6 6.8-42.2 4.7-12.7 11-23.8 19.3-33.3 17-19.4 41.6-30.4 67.4-30.1 17.8 0 32.4 3.7 44.4 11.1 11.5 7.4 21.4 16.9 28.2 28.5 7.2 11.4 12.2 24.2 14.6 37.5 2.5 12.7 3.6 25.6 3.1 38.5H733.1c0 9 .5 17.4 3.1 25.3 2.1 7.9 6.3 14.8 11 21.1 5.3 6.5 12.1 11.5 19.8 14.8 7.8 3.7 17.2 5.3 28.2 5.3 14.1 0 25.6-3.2 34.5-10 8.9-6.3 14.6-16.4 17.8-29.6h32.4c-3.7 23.9-13.1 41.4-28.2 52.4zm-7.9-129.8c-3.1-6.9-6.8-13.2-12-17.9-5.1-5.1-11.1-9.2-17.8-12.1-7.1-3.2-14.7-4.8-22.5-4.8-7.9-.1-15.8 1.5-23 4.8-6.6 2.9-12.6 7-17.7 12.1-4.7 5.3-8.9 11.1-11.5 17.9-2.8 7.1-4.6 14.6-5.2 22.2H849c-.4-7.7-2.2-15.2-5.2-22.2z" class="st1"/></g><g id="Group_3" transform="translate(923.737 103.598)"><path id="Path_10" d="M31.3 4.7v41.8h.5C39.7 30.3 49.6 18.3 61.1 11 72.6 3.2 87.2-.5 105 0v34.5c-13.1 0-24 1.6-33.4 5.2-8.7 3.2-16.4 8.6-22.5 15.7-6 7.3-10.3 15.9-12.5 25.1-2.6 9.9-3.7 21.4-3.7 33.9v88.2H0V4.2h31.3v.5z" class="st1"/></g></g></g></svg>