<svg xmlns="http://www.w3.org/2000/svg" xmlns:xlink="http://www.w3.org/1999/xlink" xml:space="preserve" style="enable-background:new 0 0 64 64" viewBox="0 0 64 64"><defs><path id="a" d="M0 0h64v64H0z"/></defs><clipPath id="b"><use xlink:href="#a" style="overflow:visible"/></clipPath><g style="clip-path:url(#b)"><path d="M64 0H0v64h64V0z" style="fill:#00008f"/><path d="M36 31.6h3.7L64 0h-3.6L36 31.6z" style="fill:#ff1721"/><path d="M48.9 45.7c1.1 3.1 3.4 11.2 4.3 11.9h-6c0-.7-.1-1.4-.3-2.1-.3-.9-2.4-8-2.4-8h-9.6l-1.5 2.1s1.8 5.7 1.9 5.9c.2.5 1.1 2 1.1 2h-5.8s-.1-.9-.2-1.2c0-.3-.5-1.9-.5-1.9s-1.3 1.4-1.7 2.1c-.4.7-.5 1-.5 1h-4.5s-.2-.9-.2-1.2c0-.3-.6-2-.6-2s-1.3 1.5-1.6 2.2c-.4.7-.5 1-.5 1h-4.5s1.3-1.2 1.7-1.7l3.5-4.5-1.1-3.9h-9.5S5 54.5 4.8 54.7c-.2.2-1.8 2.5-1.8 2.7H0v-1.8l.1-.1c.1-.1 4.1-5.1 7.8-10 3.3-4.3 6.4-8.5 6.7-8.9.7-1 1.6-3 1.6-3h4.9s.2 1.9.3 2.4c.1.4 3.1 10.2 3.2 10.3l1.7-2.1-2.8-8.7s-.7-1.6-.9-1.9h5.7c0 .5 0 1.1.2 1.6.2.7 1.5 5.2 1.5 5.2s3.9-4.9 4.1-5.3c.3-.4.4-.9.5-1.5h4.8s-.9.6-2.4 2.6c-.5.7-5.6 7.1-5.6 7.1s.4 1.5.7 2.3c.1.2.1.4.1.4s.1-.1.3-.4c1.3-1.7 7.2-9.4 7.6-10.1.3-.5.7-1.1 1-1.8h4.7s.1 1.4.3 1.8l2.8 10.2zm-7.1-7.4c-.7 1.5-4.7 6.4-4.7 6.4h6.4S42.3 40.9 42 40c-.1-.5-.1-1.1-.2-1.7.1 0 .1-.1 0 0zm-24.6 0c-.7 1.5-4.7 6.4-4.7 6.4h6.4s-1.2-3.8-1.5-4.7c-.1-.5-.1-1.1-.2-1.7.1 0 .1-.1 0 0zm9.7 14.9 1.8-2.4c-.2-.2-1.2-3.2-1.2-3.2l-1.7 2.2 1.1 3.4z" style="fill:#fff"/></g></svg>