<svg xmlns="http://www.w3.org/2000/svg" xml:space="preserve" id="Layer_1" x="0" y="0" style="enable-background:new 0 0 112.4 25.5" version="1.1" viewBox="0 0 112.4 25.5"><style>.st0{fill:#005dba}</style><path d="M0 2.8C0 1.3 1.3 0 3 0h21c1.7 0 3 1.3 3 2.8v19.9c0 1.6-1.3 2.8-3 2.8H3c-1.7 0-3-1.3-3-2.8V2.8z" class="st0"/><path d="M13.2 12.5H6.9c-1.5 0-2.7-1.1-2.7-2.6 0-1.4 1.2-2.6 2.7-2.6.4 0 .8.1 1.2.3-.2-.3-.3-.7-.3-1.1C7.8 5.1 9 4 10.5 4c1.5 0 2.7 1.1 2.7 2.6v5.9zm.6 0h6.3c1.5 0 2.7-1.1 2.7-2.6 0-1.4-1.2-2.6-2.7-2.6-.4 0-.8.1-1.2.3.2-.3.3-.7.3-1.1C19.2 5.1 18 4 16.5 4c-1.5 0-2.7 1.1-2.7 2.6v5.9zm-.6.6H6.9c-1.5 0-2.7 1.1-2.7 2.6 0 1.4 1.2 2.6 2.7 2.6.4 0 .8-.1 1.2-.3-.2.3-.3.7-.3 1.1 0 1.4 1.2 2.6 2.7 2.6 1.5 0 2.7-1.1 2.7-2.6v-6zm.6 5.9c0 1.4 1.2 2.6 2.7 2.6 1.5 0 2.7-1.1 2.7-2.6 0-.4-.1-.8-.3-1.1.4.2.8.3 1.2.3 1.5 0 2.7-1.1 2.7-2.6 0-1.4-1.2-2.6-2.7-2.6h-6.3v6z" style="fill:#fff"/><path d="M38.2 5.4h2.2l4.9 12.1h-2.6l-1.2-3H37l-1.2 3h-2.6l5-12.1zm2.8 7.4L39.2 8l-1.8 4.8H41zm11.1 4.9c-.7 0-1.4-.2-1.9-.5-.6-.3-1-.7-1.3-1.3v5.2h-2.4V8.6h2.1v1.5c.3-.5.8-.9 1.4-1.2.6-.3 1.2-.4 1.9-.4.6 0 1.2.1 1.8.4.5.2 1 .6 1.4 1 .4.4.7.9.9 1.5.2.6.3 1.2.3 1.8 0 .6-.1 1.3-.3 1.8-.2.6-.5 1.1-.9 1.5-.4.4-.8.7-1.3 1-.6.1-1.1.2-1.7.2zm-.8-2c.4 0 .7-.1 1-.2.3-.1.6-.3.8-.6.2-.3.4-.5.5-.9.1-.3.2-.7.2-1 0-.4-.1-.7-.2-1-.1-.3-.3-.6-.6-.8-.2-.2-.5-.4-.8-.6-.3-.1-.7-.2-1-.2-.2 0-.5 0-.7.1-.2.1-.5.2-.7.3-.2.1-.4.3-.6.5-.2.2-.3.4-.4.6V14c.2.5.5.9 1 1.3.5.3.9.4 1.5.4zm12.2 2c-.7 0-1.4-.2-1.9-.5-.6-.3-1-.7-1.3-1.3v5.2h-2.4V8.6H60v1.5c.3-.5.8-.9 1.4-1.2.6-.3 1.2-.4 1.9-.4.6 0 1.2.1 1.8.4.5.2 1 .6 1.4 1 .4.4.7.9.9 1.5.2.6.3 1.2.3 1.8 0 .6-.1 1.3-.3 1.8-.2.6-.5 1.1-.9 1.5s-.8.7-1.3 1c-.5.1-1.1.2-1.7.2zm-.8-2c.4 0 .7-.1 1-.2.3-.1.6-.3.8-.6.2-.3.4-.5.5-.9.1-.3.2-.7.2-1 0-.4-.1-.7-.2-1-.1-.3-.3-.6-.6-.8-.2-.2-.5-.4-.8-.6-.3-.1-.7-.2-1-.2-.2 0-.5 0-.7.1-.2.1-.5.2-.7.3-.2.1-.4.3-.6.5-.2.2-.3.4-.4.6V14c.2.5.5.9 1 1.3.5.3 1 .4 1.5.4zm9.5 2c-1 0-1.7-.3-2.2-.9-.5-.6-.8-1.5-.8-2.6V8.6h2.4v5.1c0 1.4.5 2.1 1.6 2.1.5 0 .9-.1 1.4-.4.4-.3.8-.7 1.1-1.2V8.6H78v6.3c0 .2 0 .4.1.5.1.1.2.2.4.2v1.9c-.2 0-.4.1-.6.1h-.4c-.4 0-.8-.1-1.1-.3-.3-.2-.4-.4-.5-.8l.1-.7c-.4.6-1 1.1-1.6 1.4-.7.3-1.4.5-2.2.5zm8.2-12.6h2.4v9.6c0 .3.1.6.3.8.2.2.4.3.7.3.1 0 .3 0 .5-.1.2 0 .3-.1.5-.2l.3 1.7c-.3.1-.7.3-1.1.3-.4.1-.8.1-1.2.1-.8 0-1.3-.2-1.8-.6-.4-.4-.6-.9-.6-1.6V5.1zm8.3 12.6c-.5 0-.9-.1-1.3-.2s-.7-.3-1-.6c-.3-.3-.5-.6-.7-.9-.2-.3-.2-.7-.2-1.1 0-.4.1-.8.3-1.2.2-.4.5-.7.8-.9.4-.3.8-.4 1.3-.6.5-.1 1-.2 1.6-.2.4 0 .8 0 1.2.1.4.1.8.2 1.1.3v-.5c0-.6-.2-1-.5-1.4-.4-.3-.9-.5-1.6-.5-.5 0-1 .1-1.5.3s-1 .4-1.5.7L86 9.6c1.2-.8 2.5-1.1 3.9-1.1s2.4.3 3.2.9c.8.6 1.1 1.5 1.1 2.7v2.8c0 .2 0 .4.1.5.1.1.2.2.4.2v1.9c-.4.1-.8.1-1.1.1-.5 0-.8-.1-1.1-.3-.2-.2-.4-.4-.5-.8l-.1-.5c-.4.5-.9.9-1.5 1.2-.4.3-1 .5-1.7.5zm.7-1.7c.4 0 .8-.1 1.2-.2.4-.1.6-.3.9-.5.3-.2.4-.4.4-.6v-1c-.3-.1-.6-.2-.9-.2-.3-.1-.7-.1-1-.1-.6 0-1.1.1-1.5.4-.4.3-.6.6-.6 1s.2.7.5 1c.2.1.5.2 1 .2zm12.7 1.1c-.3.1-.7.3-1.2.4-.5.1-1 .2-1.5.2-.3 0-.7 0-.9-.1-.3-.1-.6-.2-.8-.4-.2-.2-.4-.4-.5-.7-.1-.3-.2-.6-.2-1v-5.1h-1.2V8.6H97V5.7h2.4v2.9h2v1.8h-2v4.4c0 .3.1.5.3.7.2.1.4.2.6.2.2 0 .5 0 .7-.1.2-.1.4-.1.6-.2l.5 1.7zm5.4.6c-.8 0-1.4-.1-2.1-.4-.6-.2-1.1-.6-1.6-1-.4-.4-.8-.9-1-1.5-.2-.6-.3-1.1-.3-1.8 0-.6.1-1.2.3-1.8.2-.6.6-1.1 1-1.5.4-.4 1-.8 1.6-1 .6-.3 1.3-.4 2.1-.4s1.5.1 2.1.4c.6.2 1.1.6 1.6 1 .4.4.8.9 1 1.5s.3 1.1.3 1.7v.7h-7.3c0 .4.1.7.3.9.1.3.3.5.6.7.2.2.5.3.8.4.3.1.6.2.9.2.5 0 .9-.1 1.4-.3.4-.2.7-.5.9-.9l2.1.5c-.3.7-.9 1.2-1.7 1.7-1.1.7-2 .9-3 .9zm2.4-5.4c-.1-.7-.3-1.2-.8-1.6-.5-.4-1-.6-1.7-.6-.3 0-.6.1-.9.2-.3.1-.5.3-.8.4-.2.2-.4.4-.5.7-.1.3-.2.6-.2.9h4.9z" class="st0"/></svg>