<svg xmlns="http://www.w3.org/2000/svg" xml:space="preserve" style="enable-background:new 0 0 207 40" viewBox="0 0 207 40"><path d="M52 29.7h3.1v-8.9h9.7v-2.6h-9.7v-5.7h10.3V9.9H52v19.8zM74.8 15H74c-1.9 0-3.3 1-4.1 2.6V15h-2.8v14.7H70V22c0-3.1 1.2-4.2 3.4-4.2.5 0 1 0 1.5.1V15zM78.6 22.4c0-3.7 2-5.3 4.1-5.3 2.2 0 4.2 1.6 4.2 5.3 0 3.6-2 5.2-4.2 5.2-2.1.1-4.1-1.6-4.1-5.2zm4.1-7.7c-3.5 0-7.2 2.3-7.2 7.7 0 5.3 3.7 7.6 7.2 7.6s7.2-2.3 7.2-7.6-3.6-7.7-7.2-7.7zM95.4 15h-2.9v14.7h2.9v-7.9c0-2.9 1.2-4.7 3.7-4.7 2.7 0 3 2 3 4.1v8.5h2.9v-9.3c0-3.4-1.4-5.7-4.9-5.7-2.3 0-3.8 1-4.6 2.4V15zM108.8 15h-2.3v2.2h2.3V26c0 3 .7 3.8 3.7 3.8h2.1v-2.3h-1.2c-1.4 0-1.7-.4-1.7-1.9v-8.4h2.9V15h-2.9v-3.8h-2.9V15zM117.4 15v14.7h2.9V15h-2.9zm0-5.1V13h2.9V9.9h-2.9zM130 27.6c-2.3 0-4-1.7-4.3-4.4H137c.3-4.8-2.4-8.5-6.9-8.5-4.2 0-7.3 3-7.3 7.6 0 4.3 2.6 7.7 7.4 7.7 3.7 0 6-2.2 6.6-4.7h-2.9c-.6 1.5-1.8 2.3-3.9 2.3zm0-10.5c2.3 0 3.9 1.8 4 3.9h-8.2c.4-2.8 2-3.9 4.2-3.9zM147.2 15h-.8c-1.9 0-3.3 1-4.1 2.6V15h-2.8v14.7h2.9V22c0-3.1 1.2-4.2 3.4-4.2.5 0 1 0 1.5.1V15zM167.7 29.7h3.5l-4.6-8.9c2.5-.8 3.8-2.4 3.8-5.2 0-4.6-3.2-5.7-8.6-5.7h-6.3v19.8h3.1v-8.3h4.7l4.4 8.3zm-5.4-17.2c2.8 0 5 .4 5 3.2 0 2.7-2 3.2-4.9 3.2h-3.6v-6.4h3.5zM173.7 15v14.7h2.9V15h-2.9zm0-5.1V13h2.9V9.9h-2.9zM191.4 19.1c-.6-2.8-2.9-4.4-5.9-4.4-3.2 0-6 1.6-6 4.2 0 2.8 2.1 3.7 4.3 4.2l2.2.4c1.5.3 2.8.9 2.8 2.2 0 1.3-1.4 2.1-3.3 2.1-2.1 0-3.1-1-3.5-2.6h-2.9c.4 2.8 2.6 4.9 6.4 4.9 3.4 0 6.2-1.7 6.2-4.7 0-2.9-2.5-3.8-5.2-4.4l-2.1-.4c-1.3-.3-2.1-.7-2.1-1.8 0-1.2 1.5-1.8 2.9-1.8 1.7 0 2.9.6 3.4 2.1h2.8zM194.3 9.9v19.8h2.9v-4.8l1.7-1.8 4.7 6.6h3.4l-6.2-8.6 5.7-6.1H203l-5.9 6.3V9.9h-2.8z"/><path d="M20 0c11 0 20 9 20 20s-9 20-20 20S0 31 0 20 9 0 20 0z" style="fill:#2d31fa"/><path d="m20.1 9.8 13.4 13.4-2.5 2.5-10.9-10.9-2.8 2.8 5.7 5.7-2.5 2.5-5.7-5.7-5.5 5.5-2.5-2.5L20.1 9.8z" style="fill:#fff"/></svg>