<svg enable-background="new 0 0 242.3 55.1" xmlns="http://www.w3.org/2000/svg" xmlns:xlink="http://www.w3.org/1999/xlink" viewBox="-7.82 -12.82 250.13 68.92"><clipPath id="a"><path d="m41.6 21.9c-.1-1.2-1-5.6-6.1-5.8h-18.9v29c0 3.4-2.8 6.2-6.2 6.2s-6.3-2.8-6.3-6.3v-33.6h-4.1v33.7c0 5.5 4.9 10 10.6 10s10.3-4.5 10.3-10c0-.2 0-.9-.1-1.2v-24.1l14.5.1c.1 0 2 0 2.1 2v.4c-.1 2-2.1 2-2.1 2l-10.5-.1 4 3.9h6.6c5.1-.2 5.9-4.6 6.1-5.8 0 0 .1-.1.1-.2z"/></clipPath><linearGradient id="b"><stop offset=".4" stop-color="#4bafca"/><stop offset="1" stop-color="#7650c0"/></linearGradient><radialGradient id="c" cx="24.649" cy="41.01" fx="5.639" fy="22.67" gradientTransform="matrix(1 0 0 -1 0 65.51)" gradientUnits="userSpaceOnUse" r="32.04" xlink:href="#b"/><clipPath id="d"><path d="m47.2 5.8c-.1-1.2-1-5.6-6.1-5.8h-41l3.8 3.8h37.2c.3 0 2 .2 2 2v.4c-.1 2-2.1 2-2.1 2h-32.7l.1 36.6c.1 1.1 1 1.9 2 1.9s2-.8 2-1.9v-32.9l28.7.1c5.1-.2 5.9-4.6 6.1-5.8z"/></clipPath><radialGradient id="e" cx="23.499" cy="46.11" fx="4.489" fy="27.77" gradientTransform="matrix(1 0 0 -1 0 67.5)" gradientUnits="userSpaceOnUse" r="32.04" xlink:href="#b"/><path d="m61.7 30.9v8.9c0 .5-.2 1-.5 1.3s-.8.5-1.3.5-.9-.2-1.3-.5-.6-.8-.6-1.4v-21.4c0-.5.2-1 .6-1.3s.8-.5 1.3-.5h12.7c.5 0 .9.2 1.3.5s.5.8.5 1.3-.2.9-.5 1.3c-.4.4-.8.6-1.3.6h-10.9v7h7.8c.5 0 .9.2 1.3.6.3.4.5.8.5 1.3s-.2 1-.5 1.3-.8.5-1.3.5zm27.3 10.7c-.5 0-1-.2-1.3-.5s-.5-.8-.5-1.3v-21.5c0-.5.2-1 .5-1.3s.8-.5 1.3-.5.9.2 1.3.5.6.8.6 1.3v21.4c0 .5-.2 1-.6 1.3-.3.4-.8.6-1.3.6zm31.5-25.1c.5 0 1 .2 1.3.5.4.4.5.8.5 1.3v21.3c0 .4-.1.8-.4 1.1s-.6.6-1 .7h-.4c-.6 0-1.1-.3-1.5-.8l-11.1-16.4v15.4c0 .5-.2.9-.5 1.3s-.8.6-1.3.6-.9-.2-1.3-.6-.6-.8-.6-1.3v-21.3c0-.4.1-.8.4-1.1.2-.3.6-.5 1-.7.4-.1.8-.1 1.1 0 .4.1.6.4.9.7l11.1 16.5v-15.4c0-.5.2-1 .6-1.3s.7-.5 1.2-.5zm21.4 4.1c-.4.2-.8.4-1.1.7s-.6.6-.8 1-.4.7-.4 1.1c-.1.6 0 1.1.3 1.6s.8.9 1.5 1.2l6.1 2.4.1.1c.7.3 1.3.7 1.9 1.2s1 1 1.3 1.6c.4.8.7 1.7.7 2.7 0 .4 0 .8-.1 1.3-.2.8-.4 1.6-.9 2.3-.4.7-.9 1.4-1.6 2s-1.5 1.1-2.4 1.5c-.9.3-1.8.5-2.8.5-1.7 0-3.2-.4-4.5-1.3s-2.3-2-2.9-3.3c-.2-.5-.2-.9-.1-1.4s.4-.8.8-.9c.5-.2 1-.3 1.6-.1s.9.4 1.1.9c.4.8.9 1.4 1.6 1.8s1.6.6 2.5.6c.4 0 .9-.1 1.3-.2.4-.2.9-.4 1.2-.7s.7-.6 1-1 .4-.8.5-1.3c.1-.6 0-1.2-.3-1.6-.3-.5-.8-.9-1.4-1.2l-6-2.3c-1.5-.7-2.7-1.6-3.4-2.9-.4-.8-.7-1.7-.7-2.7v-.6c0-.2.1-.4.1-.6.2-.8.4-1.6.9-2.3.4-.7.9-1.4 1.6-2s1.4-1.1 2.3-1.4 1.7-.5 2.6-.5h.3c1.6 0 3.2.4 4.5 1.3.6.4 1.1.9 1.6 1.4s.9 1.2 1.2 1.9c.2.5.2.9.1 1.4-.1.4-.4.8-.7.9-.5.2-1.1.3-1.6.1s-.9-.4-1.1-.8c-.4-.8-.9-1.4-1.6-1.8s-1.5-.6-2.5-.6h-.2c-.7-.3-1.2-.2-1.6 0zm37.6-4.1c.5 0 .9.2 1.3.6s.6.8.6 1.3v14.9c0 1.1-.2 2.2-.6 3.2s-1 1.9-1.8 2.7-1.7 1.4-2.7 1.8-2 .6-3.1.6-2.2-.2-3.2-.6-1.9-1-2.7-1.8-1.4-1.7-1.8-2.7-.6-2.1-.6-3.2v-14.9c0-.5.2-.9.6-1.3.4-.3.8-.5 1.3-.5s.9.2 1.3.5.5.8.5 1.3v14.9c0 .7.1 1.3.4 1.8.3.6.6 1 1 1.5s.9.7 1.5 1c.6.2 1.2.3 1.8.3s1.2-.1 1.8-.3 1-.6 1.5-1c.4-.4.8-.9 1-1.5s.4-1.2.4-1.8v-14.9c0-.5.2-1 .5-1.3s.5-.6 1-.6zm62.8 23.2c0 .5-.2 1-.5 1.3-.4.3-.8.5-1.3.5h-12.7c-.5 0-1-.2-1.3-.5s-.6-.8-.6-1.3v-21.4c0-.5.2-1 .6-1.3s.8-.5 1.3-.5h12.7c.5 0 1 .2 1.3.5.4.3.5.8.5 1.3s-.2.9-.5 1.3c-.4.4-.8.6-1.3.6h-10.9v7h7.8c.5 0 .9.2 1.3.6s.5.8.5 1.3-.2 1-.5 1.3c-.4.3-.8.5-1.3.5h-7.8v7h10.9c.5 0 1 .2 1.3.6.4.3.5.7.5 1.2zm-29.5.1c-.1.5-.3.9-.7 1.2-.2.1-.3.2-.5.3s-.4.1-.6.1c-.6 0-1.1-.2-1.5-.7l-6.6-8.6-2.5-3.7h4.1c.5 0 1-.1 1.3-.4s.6-.6.8-.9c.2-.4.4-.8.5-1.3s.2-1 .2-1.5-.1-1-.2-1.5-.3-.9-.5-1.4c-.2-.3-.4-.6-.8-.9-.3-.3-.8-.4-1.3-.4h-7.9c-.6 0-1-.2-1.3-.5s-.5-.8-.5-1.3c0-.2 0-.4.1-.6s.1-.4.3-.5c.4-.5.8-.7 1.4-.7h7.9c1.1 0 2.1.3 3 .8s1.6 1.3 2.3 2.3c.4.7.7 1.4.9 2.2s.3 1.6.3 2.5-.1 1.7-.3 2.5-.5 1.5-.9 2.2c-.3.6-.7 1.1-1.2 1.5s-1 .8-1.5 1l5.3 6.9c.4.5.5 1 .4 1.4z" fill="#474960"/><g clip-path="url(#a)"><path d="m-6.7-7.7h63.7v63.8h-63.7z" fill="url(#c)"/></g><g clip-path="url(#d)"><path d="m-7.8-12.8h63.7v63.8h-63.7z" fill="url(#e)"/></g></svg>