<svg xmlns="http://www.w3.org/2000/svg" viewBox="0 0 141.16 18.84"><defs><style>.cls-1{fill:#6673ff}</style></defs><g id="layer-logo" data-name="layer-logo 2"><g id="layer-logo-2" data-name="layer-logo 1"><g id="Embroker-wordmark"><path id="Fill-1" d="m25.72 14.62-4.1-5.17v9.1h-5.65V.3h5.35l4.46 6.21L30.27.3h5.34v18.25h-5.64v-9.1l-4.13 5.17h-.12z" class="cls-1"/><path id="Fill-2" d="M52.53 13.49c0 3.24-2.2 5.05-6 5.05h-9.19V.3H46c3.8 0 6 1.69 6 5a4 4 0 0 1-2.47 3.86 4.48 4.48 0 0 1 3 4.37zm-7.34-6.21c1 0 1.49-.42 1.49-1.19s-.54-1.16-1.49-1.16h-2.41v2.35zm-2.41 6.6h2.79c.92 0 1.46-.51 1.46-1.22s-.53-1.25-1.46-1.25h-2.79z" class="cls-1"/><path id="Fill-4" d="M59.3 13.31v5.23h-5.68V.3h8.89c4 0 6.87 2.44 6.87 6.66a5.87 5.87 0 0 1-3.12 5.5L70 18.55h-6.3l-3.06-5.23zm0-4.52h2.44c1.49 0 2.05-.74 2.05-1.84s-.56-1.87-2.05-1.87H59.3z" class="cls-1"/><path id="Fill-7" d="m96.83 7.93 4.9-7.63h6.6l-5.83 8.74 6.1 9.51h-6.69l-5.08-8.06v8.06h-5.77V.3h5.77v7.63z" class="cls-1"/><path id="Fill-8" d="M130.43 13.31v5.23h-5.68V.3h8.89c4 0 6.87 2.44 6.87 6.66a5.87 5.87 0 0 1-3.12 5.5l3.77 6.09h-6.33l-3.06-5.23zm0-4.52h2.44c1.49 0 2.05-.74 2.05-1.84s-.56-1.87-2.05-1.87h-2.44z" class="cls-1"/><path id="Fill-11" d="M80.06 0c-5.2 0-9.86 3.49-9.86 9.42s4.65 9.42 9.86 9.42 9.86-3.46 9.86-9.42S85.26 0 80.06 0m0 13.82A4 4 0 0 1 76 9.42a4.07 4.07 0 1 1 8.12 0 4.06 4.06 0 0 1-4.06 4.4" class="cls-1"/><path id="Fill-15" d="M0 .3v18.25h5.68V.3H0z" class="cls-1"/><path id="Fill-16" d="M4.25 11.68h10V6.92h-10v4.76z" class="cls-1"/><path id="Fill-17" d="M5 5.2h9.25V.3H5v4.9z" class="cls-1"/><path id="Fill-18" d="M3.99 18.55h10.26v-4.94H3.99v4.94z" class="cls-1"/><path id="Fill-19" d="M123.03 5.2V.3h-13.55v18.25h13.55v-4.94h-7.87v-1.93h7.87V6.92h-7.87V5.2h7.87z" class="cls-1"/></g></g></g></svg>