<svg enable-background="new 0 0 53 42" xmlns="http://www.w3.org/2000/svg" viewBox="-0.03 0 52.97 42"><path d="m47.6 0h-42.2c-3 0-5.4 2.4-5.4 5.3v31.4c0 2.9 2.4 5.3 5.4 5.3h42.1c3 0 5.4-2.4 5.4-5.3v-31.4c.1-2.9-2.3-5.3-5.3-5.3z" fill="#fff"/><path d="m9.1 29.2c1.6 0 2.6.8 2.6 2.1s-1 2.1-2.6 2.1h-.4v1.9h-1.9v-6.1zm.1 2.6h.2c.1 0 .1-.1.2-.1 0-.1.1-.1.1-.2v-.2c0-.1-.1-.3-.2-.4s-.2-.2-.4-.2h-.4v1.1zm8 2s.1 0 0 0c.1 0 .1 0 0 0 .1 0 .1 0 .1.1v1.5h-4.4c-.1 0-.1-.1-.1-.1v-5.9h4.3s0 .1.1.1v1.5h-2.5v.7h1.9l-.1 1.3s0 .1-.1.1h-1.9v.8h2.7zm6.6-4.6h.1v6.1h-1.8s-.1 0-.1-.1l-1.6-2.8v2.9h-1.7v-5.9h1.7l.1.1 1.6 2.8v-2.9h1.7zm6.8 2.4.1.1v3s0 .1-.1.1c-.5.5-1.4.7-2.3.7-2 0-3.3-1.3-3.3-3.2s1.3-3.2 3.3-3.2c.7 0 1.3.2 1.9.5 0 0 .1 0 .1.1v.1l-.4 1.2s0 .1-.1.1h-.1c-.4-.2-.9-.3-1.3-.3-.8 0-1.4.6-1.4 1.5s.6 1.5 1.4 1.5c.3 0 .6-.1.7-.2v-.5h-.9l-.1-.1-.1-1.2v-.2zm6.1-2.4c.1 0 .1 0 0 0h.1v3.8c0 1.6-.9 2.4-2.5 2.4-1.7 0-2.5-.8-2.5-2.4v-3.7s0-.1.1-.1h1.8s0 .1.1.1v3.9c0 .4.2.6.6.6s.7-.2.7-.6v-4zm3.1 0 .1.1v6h-1.8v-6.1zm6.5 0c.1 0 .1 0 0 0 .1 0 .1.1.1.1v6.1h-1.8s-.1 0-.1-.1l-1.6-2.8v2.9h-1.8v-6h1.8l.1.1 1.6 2.8v-2.9h1.7z" fill="#f78f22"/><path d="m15.6 23c0 .6-.1 1.1-.3 1.6s-.5 1-.9 1.3c-.4.4-.9.7-1.4.9s-1.1.3-1.7.3h-4.5v-20.2h4.4c.6 0 1.2.1 1.7.3 1 .4 1.9 1.2 2.3 2.2.2.5.3 1.1.3 1.6v3.1c0 .4-.1.7-.2 1s-.2.6-.4.8-.3.4-.5.6c-.2.1-.4.3-.6.4.2.1.4.2.6.4s.4.4.5.6c.2.3.3.5.4.8s.2.7.2 1v3.3zm-2.8-11.9c0-.4-.2-.8-.5-1.1s-.7-.4-1.1-.5h-1.6v6.2h1.6c.2 0 .4 0 .6-.1s.4-.2.5-.3.3-.3.3-.5c.1-.2.1-.4.1-.6v-3.1zm-3.2 7.2v6.2h1.6c.2 0 .4 0 .6-.1s.4-.2.5-.3.3-.3.3-.5c.1-.2.1-.4.1-.6v-3.3c0-.4-.2-.8-.5-1.1s-.7-.4-1.1-.5h-1.5zm7.8-7.3c0-.6.1-1.2.3-1.7s.6-1 1-1.5c.9-.8 2-1.3 3.2-1.3.6 0 1.2.1 1.8.4.5.2 1 .5 1.5.9.4.4.8.9 1 1.5.2.5.3 1.1.3 1.7v12c0 .6-.1 1.2-.4 1.7-.2.5-.6 1-1 1.4s-.9.7-1.5 1c-.6.2-1.2.3-1.8.3s-1.2-.1-1.8-.3c-1.1-.5-2-1.3-2.4-2.4-.2-.6-.4-1.1-.4-1.7v-12zm2.7 12.1c0 .5.2.9.5 1.2s.8.5 1.3.5c.2 0 .5 0 .7-.1s.4-.2.6-.4.3-.4.4-.6.1-.4.1-.7v-12c0-.2 0-.5-.1-.7s-.2-.4-.4-.6-.4-.3-.6-.4-.4-.1-.7-.1c-.2 0-.5 0-.7.1s-.4.2-.6.4-.3.4-.4.6-.1.4-.1.7zm8.6-16.2h2.8v17.6h4.4v2.7h-7.2zm17.4 5.3c-.2-.5-.5-1-.9-1.3-.4-.4-.9-.7-1.4-.9s-1-.3-1.5-.3h-1.1v-2.8h-1.2c-.4 0-.7.1-1 .2s-.6.3-.8.6c-.2.2-.4.5-.6.8-.1.3-.2.7-.2 1v17.8h4.7c.6 0 1.2-.1 1.7-.3s1-.5 1.4-.9.7-.8.9-1.3.3-1.1.3-1.6v-9.2c.1-.8-.1-1.3-.3-1.8zm-2.4 10.8c0 .2 0 .4-.1.6s-.2.3-.3.5c-.1.1-.3.3-.5.3s-.4.1-.6.1h-2v-12.2h2c.2 0 .4 0 .6.1s.4.2.5.3.3.3.3.5c.1.2.1.4.1.6z"/><path d="m41.3 9.6h5c.1 0 .1 0 .1-.1l.1-.1v-.1c-.8-1.5-2.2-2.4-4.5-2.4h-.6z" fill="#f78f22"/><path d="m39.9 8.9c.4 0 .6-.3.6-.6s-.3-.6-.6-.6c-.4 0-.6.3-.6.6-.1.3.2.6.6.6z" fill="#fff"/><path d="m47.7 34.3c.1 0 .2 0 .3.1s.2.1.2.2c.1.1.1.2.1.3s0 .2-.1.3-.1.2-.2.2c-.1.1-.2.1-.3.1s-.2 0-.3-.1-.2-.1-.2-.2c-.1-.1-.1-.2-.1-.3s0-.2.1-.3.1-.2.2-.2c.1-.1.2-.1.3-.1zm0 .1c-.1 0-.2 0-.2.1-.1 0-.1.1-.2.2 0 .1-.1.2-.1.2 0 .1 0 .2.1.2 0 .1.1.1.2.2.1 0 .2.1.3.1s.2 0 .3-.1c.1 0 .1-.1.2-.2 0-.1.1-.2.1-.2 0-.1 0-.2-.1-.2 0-.1-.1-.1-.2-.2-.2-.1-.3-.1-.4-.1zm-.2.8v-.6h.5v.2h-.2v.2l.1.1h-.2v-.1c0-.1-.1-.1-.1-.1v.3zm.1-.4h.2z"/></svg>