<svg xmlns="http://www.w3.org/2000/svg" xml:space="preserve" id="Layer_1" x="0" y="0" style="enable-background:new 0 0 151 39" version="1.1" viewBox="0 0 151 39"><style>.st0{fill:#143861}</style><path d="M13.7 21H8.1l2.9-9.5 2.7 9.5zm-8.2 9.7 1.7-5.8h7.1l1.7 5.8h6L15.7 8.6c-.3-1.4-1-1.9-2.6-1.9H4.5v2h.7c1 0 1.6.3 1.6 1.1 0 .5 0 .8-.5 2L0 30.7M29.4 30.7V8.5c0-1.2-.7-1.8-1.9-1.8h-5.4v2h.3c1 0 1.6.4 1.6 1.4v20.6M39.1 30.7V8.5c0-1.2-.7-1.8-1.9-1.8h-5.4v2h.3c1 0 1.6.4 1.6 1.4v20.6M48.9 8.8c0-1.6-1.2-2.5-3.1-2.5-2.1 0-3.1.9-3.1 2.5s1 2.6 3.1 2.6c1.9 0 3.1-1 3.1-2.6zm-.1 21.9V14.5c0-1.1-.7-1.8-1.7-1.8h-5.4v1.9h.3c1 0 1.4.4 1.4 1.4v14.6M61.6 22v3.6c-1 1-2.2 1.6-3.3 1.6s-1.6-.5-1.6-1.8c0-1.5.3-2.1 1.6-2.5.9-.4 1.7-.7 3.3-.9zM54 17.7l.5-.2c1.4-.6 2.2-.8 3.3-.9.5-.1 1.2-.1 1.6-.1 1.7 0 2.2.6 2.2 2.2v.3c-2.4.4-3.1.5-4.5.8-.7.2-1.4.4-2.1.7-2.2.9-3.3 2.6-3.3 5.3 0 3.4 1.4 5 4.5 5 1.2 0 2.4-.3 3.3-.8.9-.4 1.2-.6 2.2-1.6v.6c0 1.1.5 1.7 1.6 1.7h5.2v-1.8h-.2c-1 0-1.6-.5-1.6-1.4v-8.8c0-4.6-1.6-6.1-6.1-6.1-1.6 0-2.9.2-4.3.5s-2.1.6-3.6 1.4M76.6 30.7V18.5c1.2-1.1 2.1-1.6 3.3-1.6 1.2 0 1.6.5 1.6 2.3v11.4h5.4V18.4c0-2.5-.3-3.6-1-4.6-.9-.9-1.9-1.4-3.5-1.4-2.1 0-3.6.8-6.1 2.8v-1c0-1.1-.5-1.7-1.6-1.7h-5.2v1.9h.2c1 0 1.6.4 1.6 1.4v14.6" class="st0"/><defs><filter id="Adobe_OpacityMaskFilter" width="61.4" height="39" x="89.6" y="0" filterUnits="userSpaceOnUse"><feColorMatrix values="1 0 0 0 0 0 1 0 0 0 0 0 1 0 0 0 0 0 1 0"/></filter></defs><mask id="mask0_1130_3434_1_" width="61.4" height="39" x="89.6" y="0" maskUnits="userSpaceOnUse"><path d="M0 0h151v39H0V0z" style="fill:#fff;filter:url(#Adobe_OpacityMaskFilter)"/></mask><g style="mask:url(#mask0_1130_3434_1_)"><path d="M103.4 27.2h-8l7.6-10.8v-3.7H91.7c-1.4 0-1.9.6-1.9 1.9v3.3h1.9v-.4c0-1 .5-1.4 1.6-1.4h4.2L89.6 27v3.7h13.8M134.1 29.7V9.4c0-1.6-.7-2.2-2.2-2.2h-4.7v2.2h.5c.9 0 1.2.3 1.2 1.3v18.9h5.2zm2.7 0h5V14.4c0-1.6-.7-2.2-2.2-2.2h-2.8v17.5zm-10.7 0V12.2h-2.8c-1.6 0-2.2.6-2.2 2.2v15.3h5zm21.6-10.2c0 9.5-6.9 16.4-16.3 16.4s-16.3-6.9-16.3-16.4S122.1 3 131.5 3s16.2 7 16.2 16.5zm3.3 0C151 8.4 142.7 0 131.5 0 120.4 0 112 8.4 112 19.5c0 11.2 8.5 19.5 19.5 19.5 11.2 0 19.5-8.4 19.5-19.5z" class="st0"/></g></svg>