<svg xmlns="http://www.w3.org/2000/svg" xmlns:xlink="http://www.w3.org/1999/xlink" xml:space="preserve" id="Layer_2_1_" x="0" y="0" style="enable-background:new 0 0 242.3 55.1" version="1.1" viewBox="0 0 242.3 55.1"><style>.st0{fill:#474960}</style><path d="M61.7 30.9v8.9c0 .5-.2 1-.5 1.3-.3.3-.8.5-1.3.5s-.9-.2-1.3-.5-.6-.8-.6-1.4V18.3c0-.5.2-1 .6-1.3.4-.3.8-.5 1.3-.5h12.7c.5 0 .9.2 1.3.5s.5.8.5 1.3-.2.9-.5 1.3c-.4.4-.8.6-1.3.6H61.7v7h7.8c.5 0 .9.2 1.3.6.3.4.5.8.5 1.3s-.2 1-.5 1.3c-.3.3-.8.5-1.3.5h-7.8zM89 41.6c-.5 0-1-.2-1.3-.5-.3-.3-.5-.8-.5-1.3V18.3c0-.5.2-1 .5-1.3.3-.3.8-.5 1.3-.5s.9.2 1.3.5.6.8.6 1.3v21.4c0 .5-.2 1-.6 1.3-.3.4-.8.6-1.3.6zM120.5 16.5c.5 0 1 .2 1.3.5.4.4.5.8.5 1.3v21.3c0 .4-.1.8-.4 1.1-.3.3-.6.6-1 .7h-.4c-.6 0-1.1-.3-1.5-.8l-11.1-16.4v15.4c0 .5-.2.9-.5 1.3s-.8.6-1.3.6-.9-.2-1.3-.6c-.4-.4-.6-.8-.6-1.3V18.3c0-.4.1-.8.4-1.1.2-.3.6-.5 1-.7.4-.1.8-.1 1.1 0 .4.1.6.4.9.7l11.1 16.5V18.3c0-.5.2-1 .6-1.3s.7-.5 1.2-.5zM141.9 20.6c-.4.2-.8.4-1.1.7-.3.3-.6.6-.8 1s-.4.7-.4 1.1c-.1.6 0 1.1.3 1.6s.8.9 1.5 1.2l6.1 2.4.1.1c.7.3 1.3.7 1.9 1.2.6.5 1 1 1.3 1.6.4.8.7 1.7.7 2.7 0 .4 0 .8-.1 1.3-.2.8-.4 1.6-.9 2.3-.4.7-.9 1.4-1.6 2-.7.6-1.5 1.1-2.4 1.5-.9.3-1.8.5-2.8.5-1.7 0-3.2-.4-4.5-1.3-1.3-.9-2.3-2-2.9-3.3-.2-.5-.2-.9-.1-1.4s.4-.8.8-.9c.5-.2 1-.3 1.6-.1s.9.4 1.1.9c.4.8.9 1.4 1.6 1.8.7.4 1.6.6 2.5.6.4 0 .9-.1 1.3-.2.4-.2.9-.4 1.2-.7s.7-.6 1-1c.3-.4.4-.8.5-1.3.1-.6 0-1.2-.3-1.6-.3-.5-.8-.9-1.4-1.2l-6-2.3c-1.5-.7-2.7-1.6-3.4-2.9-.4-.8-.7-1.7-.7-2.7v-.6c0-.2.1-.4.1-.6.2-.8.4-1.6.9-2.3.4-.7.9-1.4 1.6-2 .7-.6 1.4-1.1 2.3-1.4s1.7-.5 2.6-.5h.3c1.6 0 3.2.4 4.5 1.3.6.4 1.1.9 1.6 1.4s.9 1.2 1.2 1.9c.2.5.2.9.1 1.4-.1.4-.4.8-.7.9-.5.2-1.1.3-1.6.1s-.9-.4-1.1-.8c-.4-.8-.9-1.4-1.6-1.8-.7-.4-1.5-.6-2.5-.6h-.2c-.7-.3-1.2-.2-1.6 0zM179.5 16.5c.5 0 .9.2 1.3.6.4.4.6.8.6 1.3v14.9c0 1.1-.2 2.2-.6 3.2s-1 1.9-1.8 2.7c-.8.8-1.7 1.4-2.7 1.8-1 .4-2 .6-3.1.6s-2.2-.2-3.2-.6-1.9-1-2.7-1.8c-.8-.8-1.4-1.7-1.8-2.7-.4-1-.6-2.1-.6-3.2V18.4c0-.5.2-.9.6-1.3.4-.3.8-.5 1.3-.5s.9.2 1.3.5.5.8.5 1.3v14.9c0 .7.1 1.3.4 1.8.3.6.6 1 1 1.5s.9.7 1.5 1c.6.2 1.2.3 1.8.3s1.2-.1 1.8-.3 1-.6 1.5-1c.4-.4.8-.9 1-1.5.2-.6.4-1.2.4-1.8V18.4c0-.5.2-1 .5-1.3s.5-.6 1-.6zM242.3 39.7c0 .5-.2 1-.5 1.3-.4.3-.8.5-1.3.5h-12.7c-.5 0-1-.2-1.3-.5s-.6-.8-.6-1.3V18.3c0-.5.2-1 .6-1.3.4-.3.8-.5 1.3-.5h12.7c.5 0 1 .2 1.3.5.4.3.5.8.5 1.3s-.2.9-.5 1.3c-.4.4-.8.6-1.3.6h-10.9v7h7.8c.5 0 .9.2 1.3.6.4.4.5.8.5 1.3s-.2 1-.5 1.3c-.4.3-.8.5-1.3.5h-7.8v7h10.9c.5 0 1 .2 1.3.6.4.3.5.7.5 1.2zM212.8 39.8c-.1.5-.3.9-.7 1.2-.2.1-.3.2-.5.3-.2.1-.4.1-.6.1-.6 0-1.1-.2-1.5-.7l-6.6-8.6-2.5-3.7h4.1c.5 0 1-.1 1.3-.4.3-.3.6-.6.8-.9.2-.4.4-.8.5-1.3.1-.5.2-1 .2-1.5s-.1-1-.2-1.5-.3-.9-.5-1.4c-.2-.3-.4-.6-.8-.9-.3-.3-.8-.4-1.3-.4h-7.9c-.6 0-1-.2-1.3-.5s-.5-.8-.5-1.3c0-.2 0-.4.1-.6.1-.2.1-.4.3-.5.4-.5.8-.7 1.4-.7h7.9c1.1 0 2.1.3 3 .8.9.5 1.6 1.3 2.3 2.3.4.7.7 1.4.9 2.2.2.8.3 1.6.3 2.5s-.1 1.7-.3 2.5c-.2.8-.5 1.5-.9 2.2-.3.6-.7 1.1-1.2 1.5-.5.4-1 .8-1.5 1l5.3 6.9c.4.5.5 1 .4 1.4z" class="st0"/><defs><path id="SVGID_1_" d="M41.6 21.9c-.1-1.2-1-5.6-6.1-5.8H16.6v29c0 3.4-2.8 6.2-6.2 6.2S4.1 48.5 4.1 45V11.4H0V45.1c0 5.5 4.9 10 10.6 10s10.3-4.5 10.3-10c0-.2 0-.9-.1-1.2V19.8l14.5.1c.1 0 2 0 2.1 2v.4c-.1 2-2.1 2-2.1 2l-10.5-.1 4 3.9h6.6c5.1-.2 5.9-4.6 6.1-5.8 0 0 .1-.1.1-.2v-.2z"/></defs><clipPath id="SVGID_2_"><use xlink:href="#SVGID_1_" style="overflow:visible"/></clipPath><g style="clip-path:url(#SVGID_2_)"><radialGradient id="SVGID_3_" cx="24.649" cy="41.01" r="32.04" fx="5.639" fy="22.67" gradientTransform="matrix(1 0 0 -1 0 65.51)" gradientUnits="userSpaceOnUse"><stop offset=".4" style="stop-color:#4bafca"/><stop offset="1" style="stop-color:#7650c0"/></radialGradient><path d="M-6.7-7.7H57v63.8H-6.7z" style="fill:url(#SVGID_3_)"/></g><defs><path id="SVGID_4_" d="M47.2 5.8c-.1-1.2-1-5.6-6.1-5.8H.1l3.8 3.8h37.2c.3 0 2 .2 2 2v.4c-.1 2-2.1 2-2.1 2H8.3l.1 36.6c.1 1.1 1 1.9 2 1.9s2-.8 2-1.9V11.9l28.7.1c5.1-.2 5.9-4.6 6.1-5.8v-.4z"/></defs><clipPath id="SVGID_5_"><use xlink:href="#SVGID_4_" style="overflow:visible"/></clipPath><g style="clip-path:url(#SVGID_5_)"><radialGradient id="SVGID_6_" cx="23.499" cy="46.11" r="32.04" fx="4.489" fy="27.77" gradientTransform="matrix(1 0 0 -1 0 67.5)" gradientUnits="userSpaceOnUse"><stop offset=".4" style="stop-color:#4bafca"/><stop offset="1" style="stop-color:#7650c0"/></radialGradient><path d="M-7.8-12.8h63.7V51H-7.8z" style="fill:url(#SVGID_6_)"/></g></svg>