<svg xmlns="http://www.w3.org/2000/svg" xml:space="preserve" id="Layer_1" x="0" y="0" style="enable-background:new 0 0 53 42" version="1.1" viewBox="0 0 53 42"><style>.st0{fill:#fff}.st1{fill:#f78f22}</style><path d="M47.6 0H5.4C2.4 0 0 2.4 0 5.3v31.4C0 39.6 2.4 42 5.4 42h42.1c3 0 5.4-2.4 5.4-5.3V5.3C53 2.4 50.6 0 47.6 0z" class="st0"/><path d="M9.1 29.2c1.6 0 2.6.8 2.6 2.1s-1 2.1-2.6 2.1h-.4V35.3H6.8v-6.1H9.1zm.1 2.6h.2c.1 0 .1-.1.2-.1 0-.1.1-.1.1-.2v-.2c0-.1-.1-.3-.2-.4-.1-.1-.2-.2-.4-.2h-.4v1.1h.5zM17.2 33.8s.1 0 0 0c.1 0 .1 0 0 0 .1 0 .1 0 .1.1v1.5H12.9c-.1 0-.1-.1-.1-.1v-5.9h4.3s0 .1.1.1V31h-2.5v.7h1.9l-.1 1.3s0 .1-.1.1H14.5v.8h2.7zM23.8 29.2h.1v6.1H22.1s-.1 0-.1-.1l-1.6-2.8v2.9H18.7v-5.9H20.4l.1.1 1.6 2.8v-2.9H23.8zM30.6 31.6l.1.1v3s0 .1-.1.1c-.5.5-1.4.7-2.3.7-2 0-3.3-1.3-3.3-3.2s1.3-3.2 3.3-3.2c.7 0 1.3.2 1.9.5 0 0 .1 0 .1.1v.1l-.4 1.2s0 .1-.1.1h-.1c-.4-.2-.9-.3-1.3-.3-.8 0-1.4.6-1.4 1.5s.6 1.5 1.4 1.5c.3 0 .6-.1.7-.2v-.5h-.9l-.1-.1-.1-1.2v-.2h2.6zM36.7 29.2c.1 0 .1 0 0 0h.1V33c0 1.6-.9 2.4-2.5 2.4-1.7 0-2.5-.8-2.5-2.4v-3.7s0-.1.1-.1H33.7s0 .1.1.1v3.9c0 .4.2.6.6.6.4 0 .7-.2.7-.6v-4h1.6zM39.8 29.2l.1.1v6H38.1v-6.1H39.8zM46.3 29.2c.1 0 .1 0 0 0 .1 0 .1.1.1.1v6.1H44.6s-.1 0-.1-.1l-1.6-2.8v2.9H41.1v-6H42.9l.1.1 1.6 2.8v-2.9H46.3z" class="st1"/><path d="M15.6 23c0 .6-.1 1.1-.3 1.6-.2.5-.5 1-.9 1.3-.4.4-.9.7-1.4.9-.5.2-1.1.3-1.7.3H6.8V6.9h4.4c.6 0 1.2.1 1.7.3 1 .4 1.9 1.2 2.3 2.2.2.5.3 1.1.3 1.6v3.1c0 .4-.1.7-.2 1-.1.3-.2.6-.4.8-.2.2-.3.4-.5.6-.2.1-.4.3-.6.4.2.1.4.2.6.4.2.2.4.4.5.6.2.3.3.5.4.8.1.3.2.7.2 1V23zm-2.8-11.9c0-.4-.2-.8-.5-1.1-.3-.3-.7-.4-1.1-.5H9.6v6.2h1.6c.2 0 .4 0 .6-.1.2-.1.4-.2.5-.3.1-.1.3-.3.3-.5.1-.2.1-.4.1-.6v-3.1zm-3.2 7.2v6.2h1.6c.2 0 .4 0 .6-.1.2-.1.4-.2.5-.3.1-.1.3-.3.3-.5.1-.2.1-.4.1-.6v-3.3c0-.4-.2-.8-.5-1.1-.3-.3-.7-.4-1.1-.5H9.6zM17.4 11c0-.6.1-1.2.3-1.7.2-.5.6-1 1-1.5.9-.8 2-1.3 3.2-1.3.6 0 1.2.1 1.8.4.5.2 1 .5 1.5.9.4.4.8.9 1 1.5.2.5.3 1.1.3 1.7v12c0 .6-.1 1.2-.4 1.7-.2.5-.6 1-1 1.4-.4.4-.9.7-1.5 1-.6.2-1.2.3-1.8.3-.6 0-1.2-.1-1.8-.3-1.1-.5-2-1.3-2.4-2.4-.2-.6-.4-1.1-.4-1.7V11zm2.7 12.1c0 .5.2.9.5 1.2.3.3.8.5 1.3.5.2 0 .5 0 .7-.1.2-.1.4-.2.6-.4.2-.2.3-.4.4-.6.1-.2.1-.4.1-.7V11c0-.2 0-.5-.1-.7-.1-.2-.2-.4-.4-.6-.2-.2-.4-.3-.6-.4s-.4-.1-.7-.1c-.2 0-.5 0-.7.1-.2.1-.4.2-.6.4-.2.2-.3.4-.4.6-.1.2-.1.4-.1.7v12.1zM28.7 6.9h2.8v17.6h4.4v2.7h-7.2V6.9zM46.1 12.2c-.2-.5-.5-1-.9-1.3-.4-.4-.9-.7-1.4-.9-.5-.2-1-.3-1.5-.3h-1.1V6.9H40c-.4 0-.7.1-1 .2-.3.1-.6.3-.8.6-.2.2-.4.5-.6.8-.1.3-.2.7-.2 1v17.8h4.7c.6 0 1.2-.1 1.7-.3.5-.2 1-.5 1.4-.9.4-.4.7-.8.9-1.3.2-.5.3-1.1.3-1.6V14c.1-.8-.1-1.3-.3-1.8zM43.7 23c0 .2 0 .4-.1.6-.1.2-.2.3-.3.5-.1.1-.3.3-.5.3s-.4.1-.6.1h-2V12.3h2c.2 0 .4 0 .6.1.2.1.4.2.5.3.1.1.3.3.3.5.1.2.1.4.1.6V23z"/><path d="M41.3 9.6h5c.1 0 .1 0 .1-.1l.1-.1v-.1c-.8-1.5-2.2-2.4-4.5-2.4h-.6l-.1 2.7z" class="st1"/><path d="M39.9 8.9c.4 0 .6-.3.6-.6s-.3-.6-.6-.6c-.4 0-.6.3-.6.6-.1.3.2.6.6.6z" class="st0"/><path d="M47.7 34.3c.1 0 .2 0 .3.1.1.1.2.1.2.2.1.1.1.2.1.3 0 .1 0 .2-.1.3-.1.1-.1.2-.2.2-.1.1-.2.1-.3.1-.1 0-.2 0-.3-.1-.1-.1-.2-.1-.2-.2-.1-.1-.1-.2-.1-.3 0-.1 0-.2.1-.3.1-.1.1-.2.2-.2.1-.1.2-.1.3-.1zm0 .1c-.1 0-.2 0-.2.1-.1 0-.1.1-.2.2 0 .1-.1.2-.1.2 0 .1 0 .2.1.2 0 .1.1.1.2.2.1 0 .2.1.3.1.1 0 .2 0 .3-.1.1 0 .1-.1.2-.2 0-.1.1-.2.1-.2 0-.1 0-.2-.1-.2 0-.1-.1-.1-.2-.2-.2-.1-.3-.1-.4-.1zm-.2.8v-.6h.5v.2h-.2v.2l.1.1h-.2V35c0-.1-.1-.1-.1-.1v.3h-.1zm.1-.4h.2-.2z"/></svg>