<svg xmlns="http://www.w3.org/2000/svg" width="168" height="40" fill="none"><g fill="#2B73C2" clip-path="url(#a)"><path d="M20.137 1.386C9.527 1.386.923 9.846.921 20.285v.01a18.611 18.611 0 0 0 3.936 11.453l15.975-20.646-1.72.003-1.705-.004c-1.823 0-3.532.128-4.768.364-.747.144-1.414.408-1.957.787-.637.44-1.435 1.371-1.957 2.288-.06.107-.149.263-.26.49l-.933-.21 1.567-5.928h20.01l-15.901 20.91c1.033-.09 1.447-.114 2.287-.114.644 0 1.624.042 2.932.117l2.825.172c1.016.057 1.877.087 2.532.087 1.456 0 2.403-.113 3.345-.396a7.79 7.79 0 0 0 2.057-.974c1.116-.761 2.202-1.976 2.85-3.197.064-.123.167-.313.284-.563l.852.213c-.278 1.037-.423 1.434-.845 2.36-.854 1.877-1.82 3.134-3.145 4.097-1.363.993-2.87 1.48-4.654 1.509l-.272.002c-1.32 0-2.341-.108-5.504-.583-3.217-.487-4.854-.654-6.47-.654-1.082 0-2.089.081-3.131.25-1.38.214-1.922.373-3.174.936a19.313 19.313 0 0 0 14.16 6.129c10.612 0 19.217-8.464 19.217-18.904S30.749 1.387 20.137 1.387M119.082 14.512c.004-1.23.037-1.569.195-2.068.066-.199.157-.392.27-.573.191-.312.328-.462.702-.769h-6.01c.389.332.518.467.697.729.121.192.222.39.289.6.138.445.185.889.196 1.983 0 .56.003.93.003 1.111V26.55c0 .648-.117 1.335-.295 1.783a2.57 2.57 0 0 1-.298.537c-.141.201-.242.313-.572.648h5.942c-.292-.248-.398-.363-.576-.649a2.692 2.692 0 0 1-.298-.562c-.16-.418-.252-1.035-.252-1.615v-11.1l.007-1.08M159.087 14.504c0-.818.064-1.441.206-1.951a2.87 2.87 0 0 1 .297-.68c.196-.314.341-.464.739-.771h-6.109c.354.29.476.422.685.75.134.211.237.43.31.64.143.435.201.974.201 1.937v4.473h-8.389v-3.358c0-1.019.007-1.684.05-2.185.024-.299.073-.567.151-.8.127-.396.47-.945.774-1.258.041-.045.119-.115.207-.2h-6c.359.364.456.475.616.71.13.189.245.398.325.624.155.466.185.722.202 1.949l.021 1.165v10.085c0 1.02-.021 1.47-.076 1.94a3.945 3.945 0 0 1-.186.73 2.62 2.62 0 0 1-.723 1.03c-.043.043-.111.102-.205.184h5.929a3.384 3.384 0 0 1-.503-.607 4.11 4.11 0 0 1-.301-.572c-.188-.488-.248-.834-.274-1.616a70.64 70.64 0 0 1-.007-1.099v-4.462h8.389v4.494c0 .992-.011 1.355-.086 1.871a2.75 2.75 0 0 1-.2.797c-.135.344-.35.658-.672.964-.057.048-.135.13-.258.23h5.982a3.452 3.452 0 0 1-.501-.57 2.977 2.977 0 0 1-.347-.604c-.183-.436-.225-.757-.247-1.667-.011-.54-.014-.856-.014-.953l.014-10.132v-1.088ZM104.102 19.214c-.667.386-1.353.605-2.356.746a6.798 6.798 0 0 1-.98.088c-.094 0-.159-.002-.303-.014v-6.817c.239-.006.328-.006.489-.006.918 0 1.816.106 2.518.304.471.132.912.363 1.274.666.631.531.964 1.302.964 2.262 0 .836-.247 1.545-.733 2.08a3.629 3.629 0 0 1-.873.69Zm7.15 9.028a41.05 41.05 0 0 1-2.12-2.14 50.944 50.944 0 0 1-1.367-1.497l-2.908-3.368c.358-.103.506-.154.829-.28.946-.367 1.663-.776 2.31-1.314.741-.613 1.196-1.27 1.473-2.1.159-.466.23-.942.23-1.419 0-1.132-.426-2.16-1.264-3.02-.771-.794-1.84-1.38-3.044-1.661-.839-.19-1.71-.28-3.199-.32a70.426 70.426 0 0 0-1.737-.02h-4.831c.325.297.446.428.625.693.14.212.26.44.332.672.126.415.178.986.178 1.962v12.083c0 .87-.057 1.376-.208 1.784-.085.206-.19.4-.323.581-.175.218-.283.33-.632.64h5.953a4.94 4.94 0 0 1-.517-.598 2.46 2.46 0 0 1-.318-.563c-.161-.407-.236-.847-.237-1.702a28.559 28.559 0 0 1-.014-.921V21.59l3.47 4.09c.162.195.424.49.773.893.407.447.709.781.92.99.669.678 1.305 1.177 1.932 1.512.543.283 1.05.403 1.856.43.307.009.634.012.976.012h2.349a19.06 19.06 0 0 1-1.487-1.276ZM137.046 26.858c-1.126.467-2.157.682-3.269.682-1.937 0-3.593-.679-4.821-1.981-1.216-1.29-1.864-3.08-1.864-5.103 0-1.929.606-3.72 1.689-4.969a6.116 6.116 0 0 1 1.694-1.364c1.061-.582 2.292-.885 3.625-.885 1.141 0 2.247.22 3.362.665.694.277.946.415 1.54.831v-3.462a9.219 9.219 0 0 0-1.136-.303 15.84 15.84 0 0 0-3.297-.326c-2.012 0-3.751.319-5.334.978-.947.392-1.81.897-2.575 1.501-2.308 1.828-3.563 4.474-3.563 7.527 0 2.96 1.211 5.52 3.419 7.238 1.824 1.416 4.173 2.129 6.994 2.129 1.762 0 3.408-.258 5.255-.824.071-.02.172-.054.306-.096v-3.345c-.451.293-.604.388-.873.544a10.11 10.11 0 0 1-1.152.563ZM87.265 11.816c.117.197.215.407.276.627.132.444.165.893.165 1.927v7.002c0 1.504-.043 2.394-.159 3.128-.071.49-.24.944-.48 1.35-.455.75-1.301 1.326-2.301 1.577-.407.097-.85.15-1.33.15-1.606 0-2.985-.592-3.656-1.56-.515-.752-.658-1.467-.681-3.36l-.012-1.518v-5.553c0-1.076.004-1.588.044-2.136a3.57 3.57 0 0 1 .137-.846 4.24 4.24 0 0 1 .749-1.334c.042-.038.087-.089.159-.164H74.09c.375.306.494.447.678.746.119.202.212.416.265.64.074.278.119.563.129.849 0 .18.005.562.006 1.142l.009 1.065v5.275c0 1.959.007 2.455.075 3.24.109 1.347.52 2.421 1.312 3.396 1.417 1.753 3.696 2.672 6.603 2.672 1.389 0 2.735-.208 3.76-.583 1.08-.395 2.076-1.051 2.789-1.828.865-.955 1.363-2.129 1.509-3.578.095-.843.13-1.847.13-3.289v-5.296l-.015-1.052v-.208c0-.79.044-1.253.16-1.68.067-.262.175-.514.324-.744.197-.314.339-.459.733-.767h-5.97c.364.282.49.415.678.71ZM66.734 26.929c-.831.15-1.772.233-2.94.26-.393.011-.885.011-1.497.011h-2.869l11.351-16.099H56.054l-1.808 3.931c.605-.316.846-.428 1.368-.635.839-.326 1.76-.586 2.648-.736.774-.13 1.486-.19 2.64-.225a47.7 47.7 0 0 1 1.454-.026h2.178L53.08 29.517h16.192l1.87-4.2c-.65.367-.88.485-1.376.707-.946.425-1.966.73-3.03.905ZM165.273 8.027c-.993 0-1.775-.721-1.775-1.78 0-1.07.782-1.786 1.775-1.786 1.009 0 1.769.715 1.769 1.786 0 1.059-.76 1.78-1.769 1.78Zm0-3.865c-1.172 0-2.12.849-2.12 2.085 0 1.242.948 2.079 2.12 2.079 1.166 0 2.114-.837 2.114-2.08 0-1.235-.948-2.084-2.114-2.084Z"/><path d="M165.311 6.107h-.506v-.703h.479c.332 0 .569.066.569.35 0 .238-.163.353-.542.353Zm.897-.36c0-.57-.4-.67-1.054-.67h-.676v2.206h.327v-.86h.586c.022 0 .045 0 .062-.004l.468.865h.377l-.513-.937c.288-.117.423-.35.423-.6Z"/></g><defs><clipPath id="a"><path fill="#fff" d="M0 .783h168v39H0z"/></clipPath></defs></svg>