<svg xmlns="http://www.w3.org/2000/svg" width="235" height="51" fill="none"><path fill="#175788" d="M146.96 40.93h-7.823V16.973h15.31v3.483H143.442v6.85h10.294v3.518h-10.294v6.551h11.305v3.557h-7.787Z"/><path fill="#175788" fill-rule="evenodd" d="M122.141 27.866v-7.86h4.417c1.086 0 2.246.261 2.995.823.824.636 1.385 1.61 1.385 3.07 0 1.497-.524 2.507-1.347 3.106-.787.637-1.91.899-3.182.899H122.141v-.038Zm8.947 13.065h4.791l-2.695-5.241-2.658-5.24c1.086-.375 2.321-.974 3.22-2.022.936-1.048 1.609-2.546 1.609-4.567 0-1.572-.411-2.733-1.048-3.744-.674-.973-1.572-1.722-2.658-2.246-.711-.3-1.497-.561-2.283-.71-.824-.15-1.61-.226-2.433-.226h-9.134v23.958h4.305v-9.621h4.305l2.321 4.83 2.358 4.829ZM102.938 40.93h4.117V29.702c0-2.022-.449-3.482-1.347-4.455-.936-.936-2.321-1.385-4.193-1.385-1.348 0-2.508.374-3.369.936a5.046 5.046 0 0 0-1.872 2.134h-.037V16.187h-4.118v24.744h4.118v-9.808c0-1.31.3-2.32.936-3.07.636-.71 1.61-1.122 2.845-1.122.524 0 .973.037 1.385.224.374.15.674.412.936.786.262.375.411.824.449 1.31.037.525.112 1.086.112 1.723v9.956h.038ZM89.013 29.776c-.113-2.022-.936-3.52-2.246-4.53-1.31-.973-3.07-1.46-5.091-1.46-2.546 0-4.567.898-5.952 2.433-1.348 1.498-2.134 3.744-2.134 6.364 0 2.695.711 4.867 2.059 6.364 1.347 1.497 3.369 2.32 5.952 2.32 2.021 0 3.855-.523 5.203-1.609 1.31-1.048 2.134-2.583 2.284-4.68H85.044c0 .712-.225 1.573-.787 2.247-.523.674-1.347 1.123-2.657 1.123-1.498 0-2.433-.674-2.995-1.76-.561-1.085-.786-2.582-.786-4.155 0-1.647.262-3.107.898-4.192.637-1.048 1.61-1.722 2.958-1.722 1.048 0 1.834.374 2.32.936.525.561.824 1.385.899 2.246h4.118v.075ZM66.664 40.93h4.193V24.236h-4.193v16.696ZM66.664 20.904H70.931v-3.819H66.665v3.819ZM58.69 40.93h4.193V29.702c0-2.022-.45-3.482-1.385-4.455-.936-.936-2.283-1.385-4.193-1.385-1.347 0-2.508.374-3.369.936-.935.561-1.572 1.385-2.021 2.246h-.038v-2.77h-4.005v16.695h4.118V31.123c0-1.31.3-2.32.973-3.07.636-.71 1.572-1.123 2.845-1.123.524 0 .936.038 1.348.225.412.15.711.412.973.786.262.375.374.824.45 1.31.037.524.037 1.086.037 1.722v9.957h.075ZM33.086 24.235h-4.118v11.343c0 1.984.449 3.406 1.385 4.342.936.936 2.32 1.348 4.192 1.348 1.348 0 2.434-.375 3.332-.936.898-.562 1.497-1.348 1.91-2.171h.037v2.732h4.005V24.198h-4.118v9.171c0 1.572-.3 2.808-.935 3.631-.637.824-1.573 1.31-2.808 1.31-.524 0-.973-.112-1.348-.262a1.758 1.758 0 0 1-.935-.786c-.263-.374-.412-.823-.525-1.347-.037-.524-.037-1.086-.037-1.722v-9.958h-.037ZM25.075 40.93V16.3h-6.514l-.786 2.246-.786 2.246-1.497 4.193-1.46 4.193c-.374 1.048-.636 1.871-.786 2.508-.15.561-.262.898-.262.898h-.038s-.112-.3-.262-.936c-.224-.561-.449-1.385-.823-2.433l-1.46-4.192-1.498-4.268-.786-2.171-.786-2.246H.78v24.631h3.968V20.754h.075s.262.823.45 1.61l.523 1.572 2.509 7.262 2.508 7.225h3.856l2.582-7.562 2.62-7.599c.038-.225.263-.823.45-1.46.15-.561.374-1.085.374-1.085h.038V40.93H25.075ZM168.822 47.374v3.557H194.689l1.685-1.76 1.647-1.797H168.822ZM168.822 26.898v3.482h44.771l1.61-1.685 1.61-1.797h-47.991ZM212.957 19.86l-1.909-1.759-1.872-1.722h-40.354v3.482h44.135ZM168.822 37.305v3.519h35.226l1.609-1.76 1.61-1.76h-38.445ZM201.914 9.641l-1.872-1.76-1.909-1.759h-29.311v3.52h33.092ZM218.683 45.915v-3.557h-33.204l1.91 1.797 1.909 1.76H218.683ZM218.684 11.213h-35.225l-1.61 1.76-1.61 1.76h38.445v-3.52ZM218.684 35.62V32.14h-44.209l1.871 1.722 1.872 1.76H218.684ZM173.913 21.62l-1.61 1.722-1.61 1.722h47.991V21.62h-44.771ZM189.448 4.662h29.236V1.068H192.78l-1.647 1.76-1.685 1.834ZM229.465.507c1.385 0 2.583.524 3.406 1.385.824.824 1.348 2.059 1.348 3.407 0 1.347-.524 2.545-1.348 3.369-.823.898-2.021 1.385-3.406 1.385-1.348 0-2.546-.524-3.369-1.385-.824-.824-1.348-2.022-1.348-3.37 0-1.347.524-2.582 1.348-3.406.823-.86 2.021-1.385 3.369-1.385Zm0 8.872c1.123 0 2.059-.45 2.807-1.198.674-.674 1.086-1.722 1.086-2.845 0-1.198-.412-2.171-1.086-2.92-.711-.711-1.647-1.198-2.807-1.198-1.086 0-2.059.45-2.733 1.198-.674.711-1.086 1.722-1.086 2.92 0 1.123.412 2.171 1.086 2.845.636.749 1.647 1.198 2.733 1.198Zm-1.685-6.7h1.872c.449 0 .898.112 1.198.299.299.224.524.561.524 1.085 0 .45-.15.824-.374 1.048-.225.225-.525.3-.712.375l.562 1.085.561 1.049h-.898l-.562-.974-.524-1.048h-.786V7.62h-.823V2.678h-.038Zm.861 2.17H229.614c.263 0 .45-.037.637-.15a.902.902 0 0 0 .262-.636.756.756 0 0 0-.225-.524c-.149-.15-.374-.224-.636-.224h-1.048v1.534h.037Z" clip-rule="evenodd"/></svg>