<svg enable-background="new 0 0 100 40.9" xmlns="http://www.w3.org/2000/svg" xmlns:xlink="http://www.w3.org/1999/xlink" viewBox="11.18 13.3 17.1 15.7"><filter id="a" filterUnits="userSpaceOnUse" height="40.9" width="100" x="0" y="0"><feColorMatrix values="1 0 0 0 0 0 1 0 0 0 0 0 1 0 0 0 0 0 1 0"/></filter><mask id="b" height="40.9" maskUnits="userSpaceOnUse" width="100" x="0" y="0"><path d="m100 0h-100v40.9h100z" fill="#fff" filter="url(#a)"/></mask><g mask="url(#b)"><path d="m51.4 15.7c0-.6.3-.9.9-.9h1c.6 0 .9.3.9.9v9.5c0 .6-.3.9-.9.9h-1c-.6 0-.9-.3-.9-.9zm7 0c0-.6.3-.9.9-.9h1.2c.5 0 .8.2 1 .6l2.8 4.7c.4.7.9 1.9.9 1.9s-.1-1.2-.1-1.9v-4.4c0-.6.3-.9.9-.9h1c.6 0 .9.3.9.9v9.5c0 .6-.3.9-.9.9h-1.2c-.5 0-.8-.2-1-.6l-2.8-4.7c-.4-.7-.9-1.9-.9-1.9s.1 1.2.1 1.9v4.4c0 .6-.3.9-.9.9h-1c-.6 0-.9-.3-.9-.9zm13.4 8.2.5-.7c.3-.5.7-.5 1.2-.2.4.2 1.1.7 2 .7.8 0 1.2-.3 1.2-.8 0-1.6-5-1.3-5-4.8 0-2.1 1.7-3.4 4-3.4 1.3 0 2.5.5 3 .8s.5.7.3 1.2l-.4.7c-.3.6-.7.5-1.2.3-.5-.3-1-.5-1.8-.5-.9 0-1.2.3-1.2.8 0 1.6 4.9 1.2 4.9 4.8 0 1.9-1.4 3.5-3.9 3.5-1.6 0-3-.6-3.6-1.1-.2-.3-.4-.7 0-1.3zm11.1-8.2c0-.6.3-.9.9-.9h1c.6 0 .9.3.9.9v8h3.7c.6 0 .9.3.9.9v.6c0 .6-.3.9-.9.9h-5.6c-.6 0-.9-.3-.9-.9zm11.1 5.8-3.1-5.6c-.3-.6-.1-1 .6-1h1.2c.5 0 .8.2 1 .6l1 2.1c.4.8.7 1.6.7 1.6s.3-.8.7-1.6l1-2.1c.2-.4.5-.6 1-.6h1.2c.7 0 .9.4.6 1l-3.1 5.6v3.7c0 .6-.3.9-.9.9h-1c-.6 0-.9-.3-.9-.9z" fill="#575757"/><path d="m2.4 18.1a3.32 3.32 0 0 0 0 4.7l15.7 15.7c1.3 1.3 3.4 1.3 4.7 0l15.7-15.7c1.3-1.3 1.3-3.4 0-4.7l-15.7-15.7a3.32 3.32 0 0 0 -4.7 0zm37.1 5.7-15.7 15.7c-1.9 1.9-4.9 1.9-6.7 0l-15.7-15.7c-1.9-1.9-1.9-4.9 0-6.7l15.7-15.7c1.9-1.9 4.9-1.9 6.7 0l15.7 15.7c1.9 1.8 1.9 4.9 0 6.7z" fill="#ff7d00"/><path d="m7 7c-.6.6-1 1.5-1 2.4v22.2c0 1.8 1.5 3.3 3.3 3.3h22.2c1.8 0 3.3-1.6 3.3-3.3v-22.2c0-1.8-1.5-3.3-3.3-3.3h-22.2c-.8-.1-1.7.3-2.3.9zm27.9 27.9c-.9.9-2.1 1.4-3.4 1.4h-22.2c-2.6 0-4.7-2.1-4.7-4.8v-22.1c0-2.5 2.2-4.8 4.8-4.8h22.2c2.6 0 4.7 2.1 4.7 4.8v22.2c0 1.2-.5 2.4-1.4 3.3z" fill="#ff7d00"/><g fill="#575757"><path d="m11.5 22.1c-.4-.4-.4-.8 0-1.2l.7-.7c.4-.4.8-.4 1.2 0l5.6 5.6 2.6-2.6c.4-.4.8-.4 1.2 0l.4.4c.4.4.4.8 0 1.2l-3.9 3.9c-.4.4-.8.4-1.2 0z"/><path d="m25.3 24.4c.1-.1.3-.1.4-.3.3-.3.4-.9.2-1.4l-.2-.4-7-2.8c-.6-.2-.7-.7-.2-1.2l.9-.9c.4-.4.8-.4 1.2-.2l2.8 1.4c.4.2 1.1.7 1.1.7s-.4-.7-.7-1l-1.6-2.7c-.3-.4-.2-.8.2-1.2l.8-.8c.4-.4.9-.4 1.2.2l3.5 7.7c.8 1.7.2 3.2-.7 4.1-.3.3-.6.5-.9.7-.5.2-.9 0-1.1-.5l-.2-.5c-.2-.5 0-.8.3-.9z"/></g></g></svg>