<svg enable-background="new 0 0 83 32" xmlns="http://www.w3.org/2000/svg" viewBox="-0.03 -0.03 83.03 32.03"><path d="m45.7 25.1c-3.3 0-4.7-2.1-4.7-4.8v-2.4c0-2.6 1.4-4.8 4.7-4.8 3.4 0 4.7 2.1 4.7 4.8v2.4c0 2.6-1.3 4.8-4.7 4.8zm2.7-7.2c0-1.8-.8-3-2.7-3s-2.7 1.1-2.7 3v2.4c0 1.8.8 3 2.7 3s2.7-1.1 2.7-3zm9.3 7.2c-3.3 0-4.7-2.1-4.7-4.8v-2.4c0-2.6 1.4-4.8 4.7-4.8 3.4 0 4.7 2.1 4.7 4.8v2.4c.1 2.6-1.3 4.8-4.7 4.8zm2.8-7.2c0-1.8-.8-3-2.7-3s-2.7 1.1-2.7 3v2.4c0 1.8.8 3 2.7 3s2.7-1.1 2.7-3zm8.2 7.2c-1.6 0-2.5-.2-3.3-.5-.5-.2-.7-.7-.5-1.1.2-.5.7-.7 1.2-.5.7.3 1.4.4 2.7.4 1.7 0 2.5-.7 2.5-1.8 0-1.5-1.7-1.5-3.3-1.9s-3-1-3-3.2 1.8-3.4 4.1-3.4c1.3 0 2.2.2 3.1.5.5.2.7.7.5 1.1s-.7.7-1.1.5c-.8-.3-1.4-.5-2.4-.5-1.4 0-2.2.7-2.2 1.7 0 1.3 1.5 1.5 3 1.8 1.6.3 3.4.8 3.4 3.3-.1 2.4-2.1 3.6-4.7 3.6zm11.2-11c0-.5.4-.9.9-.9h1.3c.5 0 .9.4.9.9s-.4.8-.9.8h-1.3c-.5.1-.9-.4-.9-.8zm-1.4.9v4.9c0 2.3.4 3.2 2.2 3.2h.5c.5 0 .9.4.9 1s-.4 1-.9 1h-.7c-3.3 0-4.1-2-4.1-5.1v-5h-.7c-.5 0-.9-.4-.9-.8 0-.5.4-.9.9-.9h.7v-2.4c0-.5.4-1 1-1 .5 0 1 .5 1 1v2.4m-44.1-.3c-1 0-2.1.4-3 1.1v-5c0-.4-.2-.9-.7-1-.7-.2-1.3.3-1.3 1v14.9c0 .5.5 1 1 1s1-.5 1-1v-7.9c.7-.8 1.7-1.2 2.5-1.2 1.8 0 2.4 1.1 2.4 3v2.6c0 1.8-.7 2.9-2.6 2.9h-.3c-.5-.1-.9.4-.9.9 0 .4.3.8.7.8.2.1.5.1.8.1 3 0 4.4-1.8 4.4-4.8v-2.2c0-3.2-.9-5.2-4-5.2z" fill="#414042"/><path d="m12.1 2.6 1-.4v1.4c0 .7.7 1.1 1.2.8.2-.1.3-.2.4-.3s.2-.3.2-.5v-2.7c0-.3-.1-.6-.4-.7-.3-.2-.6-.2-.9-.2l-2.3.9c-.1.1-.3.2-.4.4s-.2.3-.2.5c.2.6.8 1 1.4.8z" fill="#0297a8"/><path d="m14.9 6.7c0-.6-.7-1.1-1.2-.8-.2.1-.3.2-.4.3s-.2.3-.2.5v4.2l1.8-.7zm-13.1 15.5v-15.7l7.3-2.8c.2-.1.3-.2.4-.3s.2-.3.2-.5c0-.6-.7-1.1-1.2-.8l-7.9 3c-.2.1-.3.2-.4.4-.1.1-.2.3-.2.5v17.6c0 .3.1.6.4.7.2.1.3.2.5.2.1 0 .2 0 .3-.1l6.5-2.5v-1.9l-5.9 2.2z" fill="#1b335e"/><path d="m13.3 11-4.9 1.8c-.2.1-.3.2-.4.3s-.2.3-.2.5v6.3l5.5-2z" fill="#e6e568"/><path d="m22.5 7.8c-.2-.2-.5-.2-.8-.1l-6.7 2.5v8.2c0 .4-.2.7-.6.8l-6.7 2.5v9.3c0 .3.1.6.4.7.3.2.4.3.6.3.1 0 .2 0 .3-.1l13.3-5.1c.2-.1.3-.2.4-.3s.2-.3.2-.5v-17.5c0-.3-.2-.6-.4-.7z" fill="#e6e568"/><path d="m14.9 18.4v-8.1l-1.8.7v6.8l-5.3 2v1.9l6.5-2.5c.4-.1.6-.4.6-.8z" fill="#0297a8"/></svg>