<svg xmlns="http://www.w3.org/2000/svg" width="146" height="37" fill="none"><path fill="#4A6F67" d="M26.433 13.222H9.552V9.646h16.881v3.575Zm-.148 13.704h-3.762V15.902h3.762v11.024Zm-6.427 0h-3.761V15.902h3.761v11.024Zm-6.397 0H9.7V15.902h3.761v11.024Zm4.517-25.624c-9.324 0-16.881 7.602-16.881 16.98 0 9.38 7.557 16.982 16.88 16.982 9.324 0 16.881-7.603 16.881-16.981 0-9.379-7.557-16.981-16.88-16.981ZM139.009 16.72c1.787 0 2.129 1.491 2.206 2.945h-4.22c.037-1.301.418-2.944 2.014-2.944Zm.229 8.373c-1.901 0-2.243-1.644-2.243-3.248h7.908c0-3.863-1.369-7.304-5.816-7.304-3.84 0-5.778 3.135-5.778 6.692 0 3.708 2.204 6.04 5.89 6.04 2.51 0 5.094-1.069 5.284-3.9h-3.192c-.229 1.147-.874 1.72-2.053 1.72Zm-14.597-7.991h-2.661v-4.74h2.698c1.522 0 2.776.648 2.776 2.332 0 1.72-1.254 2.408-2.813 2.408Zm2.964 1.262c2.13-.612 3.727-1.911 3.727-4.282 0-3.328-3.08-4.436-5.931-4.436h-7.108V26.93h3.687v-6.998h2.89c3.307 0 2.508 4.627 3.039 6.998h4.03c-1.825-3.251.382-7.648-4.334-8.566Zm-16.801-.306h-3.193c-.076-.88-.874-1.337-1.71-1.337-.76 0-1.863.229-1.825 1.223.038.765.875.994 1.482 1.146l1.37.346c2.091.458 4.485 1.337 4.485 3.861 0 3.059-3.118 3.976-5.627 3.976-2.47 0-4.903-1.108-5.093-3.785h3.308c.113 1.07.95 1.605 1.976 1.605.913 0 2.09-.381 2.09-1.49 0-2.294-7.146-.65-7.146-5.315 0-2.83 2.814-3.747 5.17-3.747 2.167 0 4.334.879 4.675 3.25l.038.267Zm-11.745 0h-3.193c-.077-.88-.874-1.337-1.711-1.337-.76 0-1.863.229-1.825 1.223.038.765.874.994 1.483 1.146l1.368.346c2.091.458 4.486 1.337 4.486 3.861 0 3.059-3.118 3.976-5.626 3.976-2.47 0-4.903-1.108-5.094-3.785h3.307c.114 1.07.95 1.605 1.977 1.605.912 0 2.09-.381 2.09-1.49 0-2.294-7.147-.65-7.147-5.315 0-2.83 2.814-3.747 5.17-3.747 2.168 0 4.334.879 4.676 3.25l.04.267Zm-15.776-5.43h3.802V9.647h-3.802v2.983Zm.114 14.302h3.573V14.885h-3.573V26.93Zm-10.073 0-1.71-5.736c-.381-1.262-.609-2.525-.875-3.786-.191.918-.341 1.837-.609 2.716l-.265.956-1.596 5.85h-4.22l-3.916-12.045h4.03l1.674 6.309.227.879.19.842.228 1.49c.19-1.453.533-2.829.912-4.205l1.482-5.315h4.106l1.558 5.544c.381 1.3.647 2.6.837 3.939l.114-.689c.151-1.146.455-2.255.798-3.403l1.482-5.391h3.84L77.505 26.93h-4.181Zm-14.56-12.428H55.23c-.037-1.683-1.254-2.639-2.888-2.639-1.407 0-3.04.535-3.04 2.219 0 3.823 9.958 1.3 9.958 7.57 0 3.864-3.307 5.621-6.804 5.621-3.992 0-7.299-1.413-7.26-5.811h3.763c0 1.912 1.026 3.212 3.04 3.212 1.483 0 3.46-.535 3.46-2.333 0-4.015-9.807-1.3-9.807-7.762 0-3.825 3.535-5.315 6.804-5.315 3.459 0 6.082 1.682 6.31 5.238Z"/></svg>