<svg enable-background="new 0 0 151 39" viewBox="0 0 151 39" xmlns="http://www.w3.org/2000/svg" xmlns:xlink="http://www.w3.org/1999/xlink"><filter id="a" filterUnits="userSpaceOnUse" height="39" width="61.4" x="89.6" y="0"><feColorMatrix values="1 0 0 0 0 0 1 0 0 0 0 0 1 0 0 0 0 0 1 0"/></filter><mask id="b" height="39" maskUnits="userSpaceOnUse" width="61.4" x="89.6" y="0"><path d="m0 0h151v39h-151z" fill="#fff" filter="url(#a)"/></mask><path d="m13.7 21h-5.6l2.9-9.5zm-8.2 9.7 1.7-5.8h7.1l1.7 5.8h6l-6.3-22.1c-.3-1.4-1-1.9-2.6-1.9h-8.6v2h.7c1 0 1.6.3 1.6 1.1 0 .5 0 .8-.5 2l-6.3 18.9m29.4 0v-22.2c0-1.2-.7-1.8-1.9-1.8h-5.4v2h.3c1 0 1.6.4 1.6 1.4v20.6m15.1 0v-22.2c0-1.2-.7-1.8-1.9-1.8h-5.4v2h.3c1 0 1.6.4 1.6 1.4v20.6m15.2-21.9c0-1.6-1.2-2.5-3.1-2.5-2.1 0-3.1.9-3.1 2.5s1 2.6 3.1 2.6c1.9 0 3.1-1 3.1-2.6zm-.1 21.9v-16.2c0-1.1-.7-1.8-1.7-1.8h-5.4v1.9h.3c1 0 1.4.4 1.4 1.4v14.6m18.2-8.6v3.6c-1 1-2.2 1.6-3.3 1.6s-1.6-.5-1.6-1.8c0-1.5.3-2.1 1.6-2.5.9-.4 1.7-.7 3.3-.9zm-7.6-4.3.5-.2c1.4-.6 2.2-.8 3.3-.9.5-.1 1.2-.1 1.6-.1 1.7 0 2.2.6 2.2 2.2v.3c-2.4.4-3.1.5-4.5.8-.7.2-1.4.4-2.1.7-2.2.9-3.3 2.6-3.3 5.3 0 3.4 1.4 5 4.5 5 1.2 0 2.4-.3 3.3-.8.9-.4 1.2-.6 2.2-1.6v.6c0 1.1.5 1.7 1.6 1.7h5.2v-1.8h-.2c-1 0-1.6-.5-1.6-1.4v-8.8c0-4.6-1.6-6.1-6.1-6.1-1.6 0-2.9.2-4.3.5s-2.1.6-3.6 1.4m23.9 16.2v-12.2c1.2-1.1 2.1-1.6 3.3-1.6s1.6.5 1.6 2.3v11.4h5.4v-12.2c0-2.5-.3-3.6-1-4.6-.9-.9-1.9-1.4-3.5-1.4-2.1 0-3.6.8-6.1 2.8v-1c0-1.1-.5-1.7-1.6-1.7h-5.2v1.9h.2c1 0 1.6.4 1.6 1.4v14.6" fill="#143861"/><g mask="url(#b)"><path d="m103.4 27.2h-8l7.6-10.8v-3.7h-11.3c-1.4 0-1.9.6-1.9 1.9v3.3h1.9v-.4c0-1 .5-1.4 1.6-1.4h4.2l-7.9 10.9v3.7h13.8m30.7-1v-20.3c0-1.6-.7-2.2-2.2-2.2h-4.7v2.2h.5c.9 0 1.2.3 1.2 1.3v18.9h5.2zm2.7 0h5v-15.3c0-1.6-.7-2.2-2.2-2.2h-2.8zm-10.7 0v-17.5h-2.8c-1.6 0-2.2.6-2.2 2.2v15.3zm21.6-10.2c0 9.5-6.9 16.4-16.3 16.4s-16.3-6.9-16.3-16.4 7-16.5 16.4-16.5 16.2 7 16.2 16.5zm3.3 0c0-11.1-8.3-19.5-19.5-19.5-11.1 0-19.5 8.4-19.5 19.5 0 11.2 8.5 19.5 19.5 19.5 11.2 0 19.5-8.4 19.5-19.5z" fill="#143861"/></g></svg>