<svg enable-background="new 0 0 169 33" xmlns="http://www.w3.org/2000/svg" xmlns:xlink="http://www.w3.org/1999/xlink" viewBox="0 0 169 33"><clipPath id="a"><path d="m0 0h169v33h-169z"/></clipPath><g clip-path="url(#a)"><path d="m169 0h-169v33h169z" fill="#01c1d6"/><path d="m154.2 24.4c3 0 4.3-1.3 4.3-3.5v-1.9c0-.6-.2-.9-.6-1.3l-2-1.7 2-1.7c.4-.4.6-.7.6-1.3v-1.7c0-2.2-1.4-3.5-4.3-3.5h-18.8v16.6z" fill="#fff"/><path d="m155.5 21.6h-17v-4.1h17zm-17-11h17v4h-17z" fill="#01c1d6"/><path d="m121.4 24.4c3 0 4.4-1.3 4.4-3.5v-1.9c0-.6-.2-.9-.6-1.3l-2-1.7 2-1.7c.4-.4.6-.7.6-1.3v-1.7c0-2.2-1.4-3.5-4.4-3.5h-18.7v16.6z" fill="#fff"/><path d="m122.7 21.6h-17v-4.1h17zm-16.9-11h17v4h-17z" fill="#01c1d6"/><path d="m89.2 7.8v13.7h-16v-13.7h-3.1v12.8c0 2.4 1.4 3.8 4.2 3.8h13.8c2.7 0 4.2-1.4 4.2-3.8v-12.8zm-48.9 6.8v-6.8h-3v16.6h3v-6.9h16.3v6.9h3v-16.6h-3v6.8zm-12-3.9v-2.9h-17.9c-2.7 0-4.1 1.4-4.1 3.8v9c0 2.4 1.4 3.8 4.1 3.8h17.9v-2.9h-18.9v-10.7h18.9zm137.5-1.1c-.5.6-1.1.8-1.9.8-.7 0-1.3-.2-1.8-.8-.5-.5-.8-1.1-.8-1.8 0-.8.2-1.4.8-1.9.4-.5 1.1-.8 1.8-.8.8 0 1.3.3 1.9.8.4.6.8 1.1.8 1.9-.1.7-.4 1.4-.8 1.8zm-3.4-3.4c-.4.3-.7.9-.7 1.6 0 .6.2 1.1.7 1.6.4.5 1 .7 1.5.7.7 0 1.2-.2 1.6-.7s.5-1 .5-1.6c0-.7-.1-1.2-.5-1.6-.4-.5-1-.7-1.6-.7-.6.1-1.1.3-1.5.7zm1.5.1c.3 0 .5 0 .8.1s.4.3.4.7c0 .3-.1.5-.3.6-.1.1-.2.1-.3.2.2 0 .3.1.4.2s.1.3.1.5v.2c0 .1.1.1.1.2v.2h-.4v-.1l-.1-.1v-.2c0-.3 0-.6-.2-.7-.1 0-.3-.1-.5-.1h-.4v1.2h-.4v-2.9zm.5.5c-.1-.1-.3-.1-.7-.1h-.4v1h.9c.2-.1.2-.2.2-.5.1-.2.1-.3 0-.4z" fill="#fff"/></g></svg>